<?xml version="1.0" encoding="utf-8"?>
<!-- Generator: Adobe Illustrator 15.1.0, SVG Export Plug-In . SVG Version: 6.00 Build 0)  -->
<!DOCTYPE svg PUBLIC "-//W3C//DTD SVG 1.1//EN" "http://www.w3.org/Graphics/SVG/1.1/DTD/svg11.dtd">
<svg version="1.1" id="Layer_1" xmlns="http://www.w3.org/2000/svg" xmlns:xlink="http://www.w3.org/1999/xlink" x="0px" y="0px"
	 width="180px" height="40.594px" viewBox="0 0 180 40.594" enable-background="new 0 0 180 40.594" xml:space="preserve">
<g>
	<path fill="#FFFFFF" d="M3.992,5.88c0,0,0.226-0.395,0.394-0.543c0.169-0.15,0.302-0.076,0.376-0.016
		c0.073,0.052,0.412,0.35,0.638,0.446c0.224,0.092,0.806,0.751,0.917,0.938C6.43,6.892,6.355,7.229,6.28,7.474
		c-0.073,0.244-0.808,3.021-1.03,3.884c-0.225,0.864-0.995,4.332-1.258,5.494c-0.262,1.162-0.826,4.615-0.843,5.626
		c0,0,1.687-3.771,2.549-5.76c0.863-1.985,2.646-5.36,3.582-6.168c0.939-0.808,1.107-0.769,1.783-0.6
		c0.675,0.168,2.172,0.657,2.306,2.12c0.131,1.465-0.358,3.563-0.787,4.876c-0.43,1.311-0.864,2.738-0.864,2.738
		s1.933-2.909,4.316-6.377c2.38-3.468,4.498-5.401,5.115-5.438c0.622-0.036,2.308,0.62,1.952,2.158
		c-0.354,1.537-2.774,7.051-3.451,9.076c-0.674,2.023-1.669,5.437-1.875,6.731c0,0-0.113,1.051-0.788,0.979
		c-0.675-0.076-1.275-0.654-1.032-2.776c0.246-2.119,1.998-7.203,2.618-8.72c0.619-1.519,1.547-4.052,1.547-4.052
		s-4.538,5.793-5.993,8.018c-1.331,2.034-3.384,4.445-3.403,4.669c-0.019,0.226-0.074,0.635-0.505,0.729
		c-0.434,0.097-1.146-0.999-1.558-1.358c-0.412-0.354-0.355-1.049,0.02-2.569c0.374-1.52,2.381-6.675,2.399-8.87
		c0,0-1.706,2.364-4.276,8.365c-2.57,5.999-2.531,5.871-3.131,7.183c-0.601,1.311-1.202,2.458-2.196,1.935
		c-0.993-0.529-1.086-1.466-1.347-1.654C-0.132,27.518,1.18,18.35,1.894,14.17C2.604,9.987,3.525,6.648,3.992,5.88z"/>
	<path fill="#FFFFFF" d="M32.265,11.971c0,0,0.145,0.078,0.37,2.384c0,0,0.025,1.714-0.789,3.233
		c-0.816,1.52-3.123,6.048-5.204,7.907c-2.082,1.853-3.602,1.405-4.502,0.504c-0.901-0.898-1.434-2.701-0.452-5.74
		c0.985-3.035,1.421-4.933,2.63-5.639c0,0,0.789-0.391,1.689,0.396c0.901,0.788,0.452,1.405,0.452,1.405s-0.426,0.283-0.677,0.619
		c-0.251,0.338-1.928,4.373-2.15,6.284c0,0-0.169,1.1,0.562,0.566c0.731-0.534,2.475-1.744,4.246-5.037
		c1.773-3.289,2.666-5.229,3.402-6.46C32.289,11.641,32.265,11.971,32.265,11.971z"/>
	<path fill="#FFFFFF" d="M44.644,4.623C44.475,4.369,43.8,3.611,43.8,3.611s-0.874-0.845-1.408,0.083
		c-2.164,3.77-3.853,10.493-3.853,10.493c-0.348,1.389-0.601,2.615-0.782,3.708c-1.645,0.435-3.274,0.748-4.141,0.568
		c0,0,0.029,0.196,0.141,0.251c0,0-0.562-0.082-0.899-0.026c0,0-0.03,0.307,0.112,0.392c0.141,0.087,0.281,0.171,0.197,0.311
		c0,0-0.168-0.028-0.111,0.114c0.055,0.139-0.171,0.167,0.364,0.306c0,0,0.471,1.019,1.575,1.238c0.984,0.2,2.277-0.029,2.277-0.029
		c0.049-0.004,0.095-0.016,0.145-0.021c-0.199,4.456,1.351,5.542,1.717,5.711c0.506,0.221,0.703,0,0.703,0
		c-0.619-2.228-0.144-5.293-0.144-5.293c0.051-0.407,0.113-0.819,0.185-1.238c1.543-0.789,2.682-1.831,2.682-1.831
		s0.029-0.279-0.083-0.309c-0.112-0.028,0.14-0.196,0.14-0.196c0-0.169,0.197-0.254,0.197-0.254c0-0.141,0.171-0.253,0.171-0.253
		c-0.142-0.113,0.057-0.392,0.196-0.48c0.142-0.083,0.309-0.252,0.309-0.252c-0.029-0.139,0-0.395,0-0.395
		c-0.252-0.055-0.758,0.086-0.758,0.086s-0.917,0.345-2.18,0.758c1.338-5.312,3.55-10.689,3.727-10.998
		C44.503,5.665,44.814,4.877,44.644,4.623z"/>
	<path fill="#FFFFFF" d="M48.464,16.421c0,0,1.151-0.418,0.955-1.236c-0.196-0.816-1.94-1.436-2.448-1.378
		c-0.507,0.057-1.716,2.054-2.082,2.925c-0.366,0.873-2.167,5.159-0.621,7.522c1.549,2.362,2.504,2.615,3.404,2.562
		c0.901-0.059,6.384-0.73,7.708-8.693c0,0,0.085-0.731,0.197-1.547c0.111-0.816-0.562-0.169-0.503-1.436
		c0.054-1.264-0.116-1.152-0.116-1.152s0.085-0.987,0-1.378c0,0-0.168,0.619-0.422,0.647c0,0-1.21,4.473-2.193,6.134
		c-0.984,1.656-2.56,4.611-6.021,4.949c0,0-0.449,0.166-0.334-1.38C46.099,21.413,46.72,18.138,48.464,16.421z"/>
	<path fill="#FFFFFF" d="M67.819,20.617c-0.575-0.55-1.037-0.812-1.037-0.812s-0.116-0.027-0.375,0.117
		c-0.26,0.146-0.661,0.26-0.893-0.084c0,0,0.232-1.961-2.25-2.97c-2.479-1.01-4.526,1.905-4.931,2.507
		c-0.404,0.604-2.02,2.886-1.126,5.247c0.893,2.367,2.625,3.088,6.864,0.294c0,0-0.863,2.448,0.579,2.912
		c1.442,0.459,1.729-1.271,2.191-2.567c0.46-1.298,1.267-3.233,1.267-3.233S68.399,21.163,67.819,20.617z M58.999,24.369
		c0.48-2.617,2.448-4.361,3.209-4.95c0.758-0.59,2.054,1.602,2.054,1.602C60.519,24.567,58.999,24.369,58.999,24.369z"/>
	<path fill="#FFFFFF" d="M79.229,0.272c0,0,0.345-0.492,0.448-0.073c0.104,0.417,0.298,1.675,0.45,1.95
		c0.153,0.274,0.091,0.786-0.065,1.102c-0.154,0.314-4,8.476-5.374,12.507c-1.378,4.029-2.61,7.95-2.427,8.307
		c0,0,0.19-0.148,0.381-0.298c0.19-0.15,0.503-0.076,0.503-0.076l-0.184,0.346c0,0,0.281-0.07,0.23,0.099
		c-0.046,0.176-0.65,1.215-0.775,1.612c-0.124,0.399-0.665,1.549-1.371,0.847c-0.704-0.698-1.361-1.516-0.649-5.263
		c0.71-3.747,2.846-9.471,4.44-13.237C77.56,1.655,79.229,0.272,79.229,0.272z"/>
	<path fill="#FFFFFF" d="M77.575,26.073c0,0-0.48,0.647-0.789,0.647c-0.308,0-0.645-0.423-0.786-1.35
		c-0.143-0.932-0.297-3.025,3.023-11.49c3.319-8.465,5.343-9.96,5.654-10.298c0,0,0.223,0,0.504,0.199
		c0.282,0.199,1.407,0.45,1.492,2.024c0,0-0.057,0.144-0.533,0.199c-0.481,0.055-4.643,8.299-5.628,10.883
		C79.528,19.476,77.63,23.821,77.575,26.073z"/>
	<path fill="#FFFFFF" d="M89.06,13.261c0,0,0.421-0.084,0.508,0.112c0.081,0.197,0.31,0.731,0.476,0.985
		c0.17,0.254,0.422,1.547-0.674,1.969c-1.096,0.424-2.056,1.293-2.056,1.293s-3.064,3.238-3.936,6.611c0,0,0.983,0.339,2.307-0.282
		c1.322-0.619,4.163-2.67,5.932-2.306c0,0,0.762,0.364,1.242,0.817c0.477,0.45,0.899,1.038,0.615,2.532
		c-0.278,1.486-3.232,9.982-3.43,10.687c-0.196,0.701-1.266,3.77-1.266,3.77s-0.646,1.238-0.983,1.097
		c-0.337-0.14-0.395-0.361-0.395-0.361s-0.365-0.595-0.42-1.182c-0.059-0.594,0.787-4.699,1.827-8.356
		c1.042-3.658,1.688-4.782,1.602-5.967c0,0-5.032,3.04-7.339,1.889c-2.307-1.154-1.885-4.643-0.339-7.371
		C84.276,16.466,85.852,14.332,89.06,13.261z"/>
	<path fill="#FFFFFF" d="M111.727,5.005c0,0,0.292-0.459,0.17-0.755c0,0,0.39-0.095,0.365-0.507c0,0,0.534,0.582,1.143,0.778
		c0.605,0.195,1.138,1.135,0.871,1.5c-0.266,0.366-2.43,5.76-2.895,7.127c-0.948,2.784-0.879,2.658-1.829,5.428
		c0,0-2.007,5.834-1.628,5.869c0.223,0.022,3.054-3.693,3.054-3.693s1.874-2.416,3.225-4.15c0,0,0.606-0.676,1.115-0.704
		c0.214-0.013,3-0.234,2.483,2.334c-0.457,2.277-2.699,9.915-0.928,7.853c0,0,0.465,0.531,0.074,0.921
		c-0.386,0.387-0.363,0.56-0.363,0.56s-0.317,0.778-0.801,0.609c-0.487-0.17-2.215-0.296-1.069-6.057c0,0,0.388-1.823,0.582-2.599
		c0.195-0.778,0-0.461-0.511,0.222c-0.51,0.677-6.151,8.356-8.211,8.264c-2.066-0.101-1.704-3.744,0.437-9.87
		C109.146,12.01,111.171,6.221,111.727,5.005z"/>
	<path fill="#FFFFFF" d="M130.611,16.804c-2.317,5.412-5.753,7.313-5.999,7.496c-0.256,0.184-2.869,1.881-4.129,1.532
		c-1.261-0.341,2.888-6.575,3.16-7.056c0.277-0.482-0.364-0.964-0.639-1.192c-0.277-0.231-0.756-0.345-0.756-0.345
		s0.115,0.458-0.275,0.275c-0.391-0.185-0.457,0.161-0.457,0.161s-0.575,0.848-2.318,4.216c-1.739,3.368,0.23,5.229,0.23,5.229
		s1.627,1.854,5.229,0.18c3.597-1.673,5.842-5.66,5.977-5.935c0.137-0.276,0.162-0.686,0.299-1.238
		c0.139-0.55,0.162-1.351,0.072-1.672c-0.094-0.319-0.094-0.962-0.094-0.962s0.16-0.502,0.207-0.756c0,0,0.079-0.309-0.161-0.277
		C130.957,16.46,130.752,16.485,130.611,16.804z"/>
	<path fill="#FFFFFF" d="M136.249,16.713c0,0,0.46-0.343,1.333,0.206c0.868,0.549,0.729,1.101,0.504,1.626
		c-0.229,0.526-2.088,4.881-2.204,6.281c0,0,1.769-0.92,3.693-3.392c1.926-2.477,2.634-3.897,3.277-4.262
		c0.643-0.368,1.606,0.205,1.855,0.687c0.252,0.482,0.183,1.238-0.277,2.405c-0.455,1.17-1.948,5.457-1.741,6.212
		c0,0,1.676-0.066,3.922-2.272c0,0,0,0.207-0.206,0.528c0,0-0.025,0.368-0.391,0.527c-0.365,0.162-0.253,0.526-0.253,0.526
		s-0.594,0.301-0.823,0.578c-0.23,0.271,0,0.347-0.688,0.756c-0.688,0.412-0.641,0.685-0.598,0.85c0,0-1.649,0.459-2.246-0.896
		c-0.595-1.353-0.318-3.048-0.067-4.243c0,0-3.576,4.543-6.119,5.116c0,0-1.742,0.643-1.354-2.985c0,0-1.877,2.985-2.131,3.575
		c-0.253,0.6-0.207,1.104-0.983,0.989c-0.779-0.115-1.765-1.215-1.283-2.335c0.479-1.126,3.113-4.543,3.758-5.621
		C133.866,20.497,135.998,16.919,136.249,16.713z"/>
	<path fill="#FFFFFF" d="M154.427,20.055c0,0,0.638,0.021,0.776,0.188c0.146,0.165,0.475-0.143,0.475-0.567
		c0-0.425-0.45-0.848-0.45-0.848s-0.377-1.32-2.191-0.803c-1.815,0.52-4.786,3.83-5.327,5.162c-0.627,1.535,0,3.819,1.653,3.515
		c1.647-0.305,2.731-1.434,2.731-1.434s-0.21,3.628,1.437,4.382c0,0,0.472,0.225,0.656,0.094c0.195-0.127,0.533-0.266,0.533-0.266
		s-0.141-0.37,0.072-0.841c0.209-0.473,0.522-0.764,0.51-1.003c0,0-0.134-0.036-0.164-0.157c0,0-0.559,0.557-1.23,0.557
		c0,0-0.21-1.885,0.863-4.36c0,0,0.521-1.097,0.021-1.723c-0.493-0.625-1.462-1.167-1.958-0.648
		c-0.494,0.52-2.565,2.832-3.253,2.866C149.581,24.169,151.799,20.972,154.427,20.055z"/>
	<path fill="#FFFFFF" d="M160.784,18.659c0,0,0.229,0.229,0.202,0.444c-0.035,0.214,0.608,0.535,0.671,0.764
		c0.062,0.23,0.108,0.626-0.123,1.022c-0.229,0.398-2.323,3.089-2.369,3.758c0,0,0.933-0.486,3.12-2.671
		c2.182-2.186,3.415-3.393,4.183-3.393c0.766,0,0.932,0.184,1.134,0.507c0.197,0.317,0.778,0.562,0.747,1.601
		c-0.03,1.042-0.878,4.87,0.136,5.777c1.038,0.925,2.218,1.974,6.554,2.078c0,0,2.827,0.105,3.715,0.226
		c0.889,0.127,1.134,0.097,1.134,0.097s-0.079,0.105-0.154,0.123c0,0,0,0.105,0.118,0.137c0,0-0.013,0.092-0.091,0.123
		c0,0,0.109,0.108,0.201,0.108c0,0-0.934,0.012-1.331,0.15c-0.395,0.138-0.457,0.184-0.685,0.2c0,0-0.065,0.105-0.354,0.214
		c-0.287,0.1-0.609,0.148-1.102,0.24c-0.485,0.094-4.355,0.646-6.981-0.913c-2.627-1.558-3.085-3.547-3.225-5.61
		c-0.134-2.064,0.185-3.087,0.185-3.087s-1.229,1.233-2.063,2.329c-0.838,1.09-4.172,4.946-6.341,5.116
		c-2.169,0.166-1.37-3.497-0.766-4.709C157.943,22.005,159.06,19.686,160.784,18.659z"/>
</g>
</svg>
