<?xml version="1.0" encoding="utf-8"?>
<!-- Generator: Adobe Illustrator 15.1.0, SVG Export Plug-In . SVG Version: 6.00 Build 0)  -->
<!DOCTYPE svg PUBLIC "-//W3C//DTD SVG 1.1//EN" "http://www.w3.org/Graphics/SVG/1.1/DTD/svg11.dtd">
<svg version="1.1" id="Layer_1" xmlns="http://www.w3.org/2000/svg" xmlns:xlink="http://www.w3.org/1999/xlink" x="0px" y="0px"
	 width="200px" height="200px" viewBox="0 0 200 200" enable-background="new 0 0 200 200" xml:space="preserve">
<g>
	<path fill-rule="evenodd" clip-rule="evenodd" fill="#424243" d="M141.686,48.098c-0.17-0.101-0.376-0.105-0.562-0.165
		C141.314,48.052,141.494,48.17,141.686,48.098z"/>
	<path fill-rule="evenodd" clip-rule="evenodd" fill="#4D4E4E" d="M30.007,168.351c-0.291-1.2,0.707-3.253,1.411-4.479
		c0.038,0.201,0.291,0.381,0.291,0.64c0.889-2.686,1.415-5.201,3.165-7.366l0.057,0.107c0.807-1.488,1.263-2.964,2.416-4.483
		c-0.204,0.423-0.119,0.659,0.031,0.752c1.698-1.87,1.791-4.052,3.495-6.16c0.719-0.396,1.297-1.911,1.845-1.241
		c1.103-1.856-1.275,0.221-0.095-1.517l-0.142,0.14c1.098-2.526,3.111-4.041,4.16-6.442c0.578-0.311,1.443-0.81,2.211-1.753
		c-0.064-0.608,0.314-1.372,0.611-2.146c0.477-0.396,0.951-0.799,1.546-1.453c-1.09,0.558,0.201-0.758,0.305-1.145
		c-0.014,0.764,0.61,0.238,0.125,1.383c1.897-1.444-0.159-2.012,1.723-3.599l0.758,0.103c-0.404,0.268-0.488,0.784-0.766,1.176
		c0.409-0.269,1.569-1.186,1.778-2.083c-0.005-0.525-1.647,1.062-0.569-0.629c0.592,0.764,0.886-1.123,2.195-1.082
		c-0.139-0.382,0.209-1.263,0.892-1.748c0.183,0.016,0.108,0.129,0.114,0.263c1.172-0.958-0.197-0.917,0.848-1.845
		c0.387,0.025-0.102,1.124,0.621,0.815c1.183-0.394,0.322-0.733,1.479-1.361c-0.458,0.066-0.605-0.846-0.069-1.428
		c0.38,0.294,0.856,0.865,0,1.788c0.728-0.181,1.778-0.676,1.297,0.407c0.696-1.613,2.438-2.922,3.374-4.562
		c0.355,0.072,0.816-0.228,1.36-0.634c0.508-0.779,0.214-2.006,0.979-2.223c0.129-0.483-0.451-0.242-0.631-0.411l0.922-0.959
		c0.851-0.186-0.379,1.232,0.269,1.241l1.154-0.499c0.716-0.871-0.38-0.893-0.849-1c1.23-0.228,0.957-1.243,1.836-1.371
		c-1.354,1.051,1.332,0.5-0.477,1.711l0.863-0.289c0.316,0.341-0.766,1.108-0.707,1.525c1.225-0.618,1.235-1.222,2.416-1.782
		c0.076,0.814-1.402,0.731-1.492,1.763c1.6-0.443,2.203-1.531,2.979-1.154c-0.538,0.617-1.912,0.566-1.816,1.375
		c0.533,0.16,1.278,0.799,2.394-0.263c0.253-0.562-0.683-0.355-1.268-0.021l0.069,0.278l-0.332-0.371
		c0.678-0.206,1.436-1.041,2.088-1.392l-0.215-0.067l-0.041-0.01c-0.263,0.087-0.531,0.216-0.67,0.365
		c0.629-0.959-0.506-1.082-0.217-1.772c0.681-0.227,0.629-0.082,0.874,0.113l-0.181,0.041c-0.217,0.536-0.363,1.119,0.193,1.253
		c0.253-0.077,0.487-0.119,0.642-0.066l0.289,0.02c0.722-0.396,1.404-1.469,2.266-1.432l-1.183,0.854
		c0.321,0.438,1.247,0.113,2.353-0.051c0.849-0.402,2.69-1.181,2.113-1.701l-0.64,0.365c-0.079-1.035,1.869-0.181,1.248-1.148
		c-0.266-0.042-0.453,0.159-0.703,0.309c0.458-0.525,0.115-1.047-0.967-0.882l-0.387,1.026h0.031l0.012,0.242l0.725-0.155
		l-2.234,1.073c0.119-0.552,1.361-0.434,1.51-0.918l-0.144,0.036l0.101-0.278c-1.137-0.217-1.297,0.954-2.525,1.021
		c-0.062-0.227-0.32-0.248-0.119-0.469c1.006-0.284,2.191-0.97,2.593-1.588c-1.144,0.557-0.237-0.593-0.858-0.365
		c1.719-0.81,0.297-1.264,2.219-2.097l-0.455,0.961c1.533-0.469,1.459-1.25,1.75-1.922c-0.352,0.036-0.709,0.046-1.039-0.495
		l0.513-0.258c-0.698-0.755-1.355-1.123-2.057-1.436l0.258-0.104c-1.019-1.559-2.253-2.183-2.214-3.765l-0.83-0.639
		c0.351,0.103,0.404-0.07,0.266-0.498c-0.302-0.698-1.472-1.369-1.516-0.871c-0.57-2.531-1.869-2.711-2.709-5.459
		c0.611-0.107-0.172-1.139,0.492-0.86l-0.564-0.714c0.078,0.118,0.173-0.036,0.222-0.111c0.055-0.345-0.177-0.412-0.417-0.481
		l0.11,0.03l-0.216-1.172l-0.5,0.09l0.221-0.94c0.771,0.376,0.658,1.733,1.387,1.763c-0.098-0.376,0.361-1.936-0.773-2.797
		c-0.103-0.752-0.082-1.52-0.1-2.273c0.288-0.154,0.111,0.057,0.121-0.675c0.103-0.605-0.294-0.588-0.305-1.374
		c0.08,0.238,0.119,0.361,0.232,0.415c0.175-0.966-0.549-1.069-0.879-1.747c0,0.495,0.229,0.915,0.366,1.278
		c-0.116,0.13-0.163,0.013-0.231,0.067c0.002,0.005,0.002,0.01,0.002,0.016l0.434,1.066c-0.287-0.036,0.018-0.195-0.119,0.492
		c-0.129-0.662-0.173-0.914-0.314-1.559l-0.006-0.016h0.004c-0.014-0.057-0.016-0.075-0.029-0.137
		c-0.472-0.354-0.572,0.585-0.91,0.09c-1.189-8.387,2.291-12.066,3.508-19.67c0.753-0.572,2.416-2.129,2.56-2.998l-0.283,0.143
		c0.337-1.152,1.425-0.82,1.44-1.893l-0.036-1.172c0.456-0.245,1.302-1.111,1.374-0.725c0.214-0.822,1.709-1.469,1.183-2.242
		c1.356-1.098,2.292-1.49,3.64-2.443c-0.072,0.104-0.021,0.207-0.021,0.207c0.482,0.087,0.344-0.949,0.995-0.732
		c-0.112,0.266-1.178,1.043-0.14,0.695c0.328-1.01,2.707-1.33,3.114-1.175c0.345-0.231,0.688-0.464,0.896-0.825
		c0.596-0.084,1.539,0.217,0.753,0.655c1.495-0.81,1.783-0.024,1.805-1.042c1.772-1.126,3.244-0.183,4.933-1.218
		c2.925,0.121,5.83,0.507,7.805,1.971l0.2-0.253c-0.479,0.64,1.448,1.598,0.582,1.918c0.855-0.32,1.98,0.305,2.517,0.701
		l-0.429,0.33c-1.088-0.794-0.386,0.103-1.793-0.484c0.159-0.016,0.263,0.031,0.263-0.145c-0.805-0.127-2.346-0.516-3.168-0.475
		l0.227-0.34c-1.26-0.366-1.894,0.766-3.113,1.043c-0.936-0.576,0.188-0.363,0.013-1.203c-1.425-0.005-0.898,2.588-2.172,1.121
		l0.288-0.131c-1.651,0.016,0.688-0.506-0.569-0.918c-2.647,0.346,0.979,1.346-1.229,2.023c0.095-0.616-0.438-0.748-1.057-1.031
		c-0.247,0.789-1.868,1.508-2.317,2.369c0.021-0.294-0.557-0.377-1.219-0.109c0.271-0.566,0.601-0.533,1.479-0.659
		c0.018-0.28,0.188-0.804-0.271-0.989c-0.352,1.227-2.892,1.695-2.848,3.087c0.175-0.433-0.74-0.307-0.885-0.644
		c-0.115,0.576-0.768,0.804-0.869,1.062l0.647-0.083c-1.181,0.232-1.86,1.766-2.698,2.732l-0.126-0.184
		c-0.619,0.723-0.64,1.72-1.431,2.385c0.104-0.553-0.67-0.627-1.014-0.65c-0.762-0.301,0.391-2.236-0.821-1.623
		c-0.354,1.023,0.19,2.006-0.753,2.972c0.203,0.596,0.969-0.091,1.158-0.327c-0.354,0.912-1.725,1.832-1.322,2.605
		c0.164-0.354,0.324-0.412,0.488-0.291c-0.09-0.037,0.558,1.732,0.106,1.917c-0.245-0.373-0.228-0.087-0.448-0.562
		c-0.519,0.332-0.41,0.783-0.404,1.203l0.062,0.029l-0.055,0.012c0,0.225,0,0.457-0.11,0.712c-0.184-1.069-0.371,0.936-0.74,0.108
		c0.191-0.232,0.516-0.281,0.562-0.585c-0.119-0.392-0.459,0.474-0.467-0.14l0.755-0.096l-0.007-0.041
		c-0.784-0.42,0.512-1.244-0.482-1.646c-1.152,1.695-0.418,2.525-0.456,4.271c-0.349,0.688-0.399,1.223-0.827,1.909
		c-0.014-0.106,0.051-0.335-0.09-0.289c-1.122,1.366-0.062,1.155-1.014,2.235c0.564,0.845,0.266,2.433,0.059,3.471
		c-0.1-0.126-0.406-0.19-0.499-0.368c0.054,2.14,0.979,3.863,0.549,5.92l-0.108-0.03c0.186,1.236,0.456,2.326,0.623,3.721
		c-0.121-0.329-0.342-0.396-0.512-0.376c-0.053,1.97,1.365,3.049,1.77,5.021c-0.146,0.655,0.602,1.637-0.209,1.802
		c0.709,1.515,0.558-1.015,1.184,0.443l-0.039-0.137c1.432,1.484,1.745,3.413,3.361,4.593c0.064,0.51,0.17,1.333,0.744,2.077
		c0.534-0.036,1.155,0.234,1.743,0.443c0.247,0.382,0.484,0.8,0.956,1.258c-0.324-0.892,0.624,0.09,0.948,0.103
		c-0.642,0.104-0.252,0.58-1.203,0.311c1.083,1.509,1.703-0.429,2.878,0.974l-0.079,0.585l0.518,0.055l-0.964,0.211l0.121-0.302
		l0.135,0.019c-0.23-0.145-0.539-0.163-0.769-0.33c0.16,0.363,0.97,1.206,1.698,1.165c0.416-0.143-0.868-1.211,0.498-0.696
		c-0.354,0.451,0.069,0.521,0.486,0.764c0.838-0.646-1.043-0.841,0.918-1.738c0.684,0.673,1.714-0.628,2.657-0.598
		c-0.348,0.273-2.314,0.564-1.042,0.817c-2.029,0.049-1.252,1.113-2.316,1.683c0.17,0.145,0.314,0.346,0.343,0.649
		c0.165-0.159,0.487-0.225,0.81-0.19c0.422-0.242,0.822-0.436,1.827-0.487c1.418-0.175,1.577-2.368,4.121-2.433
		c0.557,0.574-1.696,0.804-0.503,1.316c2.364-0.257,2.805-0.922,3.691-1.765c-0.773-0.138-0.143-0.519-0.184-0.91l1.062,0.078
		c-0.18,0.566-0.574-0.109-1.049,0.55c0.622,0.166,0.987,0.232,1.941,0.164l-0.402,0.458c0.722,0.111,1.557-0.497,1.737,0.178
		l1.34-0.931c1.355,0.392,1.676-0.275,2.687-0.513l-0.943-0.299l1.221,0.196c0.841-0.314-0.768-0.627,0.64-0.766
		c-0.948,0.791,1.355,0.502,1.237,1.363c-0.655-0.021-1.824-0.137-1.594,0.381c0.459,0.006,1.284,0.496,1.938,0.897
		c-0.098-0.129,0.964,0,1.026-0.204l-0.805-2.057c0.629-0.445,1.484,1.755,2.237,1.771c-1.319,0.181,0.236,0.223-0.062,0.696
		c1.567-0.253,3.392-0.975,5.011-0.655l-0.506,0.351c1.145-0.252,0.742,0.503,2.165,0.201c0.557-0.201-1.123-0.217-0.123-0.474
		c1.375,0.16,2.741,0.412,4.107,0.727c0.212-0.231,0.428-0.454,0.691-0.489c-0.077,0.134-0.407,0.33-0.64,0.505
		c0.654,0.149,1.314,0.319,1.975,0.506c0.217-0.652,0.479-1.367,1.37-1.779c0.64,0.372-0.876,1.232,0.187,1.355
		c1.608-0.948,1.628-1.67,1.834-2.649c-0.612,0.108-0.35-0.406-0.582-0.725l0.737-0.283c0.19,0.56-0.407,0.129-0.407,0.82
		c0.525-0.021,0.788-0.132,1.346-0.585l-0.011,0.563c0.526-0.197,0.712-1.049,1.206-0.574l0.31-1.309
		c1.099-0.248,0.907-0.887,1.247-1.609l-0.681,0.256l0.764-0.472c0.227-0.655-0.81-0.088-0.17-0.887
		c0.03,1.062,1.02-0.315,1.571,0.353c-0.36,0.333-1.062,0.851-0.593,1.121c0.253-0.247,1.021-0.327,1.681-0.395
		c-0.155-0.041,0.547-0.527,0.429-0.688l-1.918-1.016c-0.011-0.618,2.062,0.459,2.433-0.008c-0.505,0.887,0.294,0.014,0.506,0.487
		c0.515-1.196,0.747-2.716,1.598-3.599l0.123,0.537c0.186-0.91,0.753-0.204,0.919-1.369c-0.011-0.5-0.521,0.676-0.444-0.154
		c2.465-3.363,4.69-7.146,5.866-10.827c0.773,0.376,0.989-1.361,1.366-1.951c-0.171-0.451-0.583-0.201-0.49,0.25
		c-0.195-0.897-0.072-1.234,0.104-2.025c0.69-0.147,0.757-0.872,0.557-1.495c0.248,0.283,0.824,0.051,0.272,1.077
		c0.273-0.255,0.635,1.663,1.155,0.108c-0.716-1.701-1.077-3.434-0.923-5.17c0.17-0.99-0.195-1.464,0.217-1.943l0.253,0.275
		c0.175-0.528-0.232-0.637-0.479-0.791c0.051-0.832,0.804-0.399,1.071-0.119c-0.103-2.013-1.376-2.371-1.5-4.402
		c0.19-0.474,0.902-0.205,0.723-1.133c-0.738-2.975-1.985-5.039-2.861-7.941l0.149-0.943l-1.128-0.219
		c-0.764-2.824-2.465-4.851-4.784-6.936c-0.825-0.222-1.712-0.281-2.248-0.709c-0.144,0.207,0.31-0.523,0.47-0.67
		c-1.222-0.345-2.228,0.129-3.459-0.234c-0.067-0.281,0.675-0.09,0.417-0.601l-0.747-0.255c0.69-0.067-0.175-0.681,0.046-0.688
		c0.114,0.101,0.228,0.26,0.454,0.273c0.159-0.39-0.541-0.686-0.881-1.067c-0.351-0.072-0.702,0.095-0.485,0.369
		c-0.448-0.482,0.021-0.312,0.14-0.67c-0.707-0.461-0.855-0.276-1.145,0.209c-0.088,0.397-0.088,0.402,0.304,0.89
		c-0.654-0.652-1.566-1.093-1.948-1.766l-0.566,0.242l-0.067-0.158c-0.088,0.194-0.139,0.292-0.19,0.328l0.103,0.013
		c-2.618,0.583-5.892-0.816-8.83-0.358c-0.736-0.211-1.494-0.325-2.242-0.428c1.176-0.65,2.979-0.129,3.511-0.487l-0.494,0.008
		c-0.14-0.222,0.85,0.165,1.015-0.361l-0.66-0.451c-1.077-0.458-0.705,1.214-1.67,0.157c1.49-0.041-0.515-0.572,0.506-0.928
		c-0.393-0.464-0.924,0.067-1.47,0.567c0.366-0.016,0.742-0.025,1.031,0.095c-0.289,0.279-1.541-0.077-1.799,0.647
		c-0.228-0.031-0.346-0.113-0.412-0.198c-0.311-0.046-0.459-0.302-0.578-0.539l-0.371,0.041c0.052,0.399-0.67,0.863-1.34,0.716
		c-0.155-0.041,0.402-0.371,0.453-0.644c-1.329-0.845-2.567-0.567-4.144-0.851c0.617,0.216,0.906,0.752,1.03,0.907l-0.494,0.111
		c-0.031,0.175-0.341,0.293-0.578,0.381l0.356-0.374c-0.429,0.016-0.841,0.008-1.099,0.263c-0.154,0.283-0.278,0.489-0.825-0.013
		c0.232-0.049,0.351-0.193,0.444-0.335c-0.361-0.023-0.722-0.028-1.114,0.057c-0.046-0.167-0.298-0.699-1-0.833l0.311,0.915
		c-1.341-0.374-1.166-0.25-1.856-0.219l0.16,0.24c-0.377,0.077-0.83,0.541-1.19,0.343l0.123,0.124
		c-0.438,1.098-0.675,0.178-1.144-0.072c-0.177,0.106-0.377,0.178-0.64,0.137c0.257-0.229,0.463-0.232,0.64-0.137
		c0.432-0.268,0.68-0.804,1.18-0.639c0.407,0.021,0.67,0.013,0.871,0.005c-0.989-1.069-3.263,0.948-3.618-0.072l1.304-0.118
		c-0.551-0.66,1-1.588,0.438-1.967l-1.573,0.766c1.562,0.542-1.386,1.247-0.952,2.072c-0.661,0.155-1.23-0.479-1.908,0.224
		c-0.579-0.067,0.338-0.708-0.353-0.731c-0.426,0.214-0.227,0.665-0.918,0.639c0.039-0.106,0.222-0.379,0.077-0.495
		c-0.76-0.072-0.42,0.495-1.227,0.799l0.175,0.005c-0.277,0.59-1.03,0.011-1.244-0.16l-1.951,1.101
		c0.198-0.397,1.162-1.025,0.436-1.178c0.547-0.967,3.139,0.1,2.742-1.312c-0.698-0.312-1.395,0.843-2.088,0.299
		c-0.038,0.667-0.971,0.915-1.52,1.314l-0.215-0.16c-1.273,0.25,0.266,1.155-1.139,1.291c-0.212-0.157,0.113-0.722-0.712-0.534
		c-0.132,0.181-0.431,0.369-0.428,0.645l0.245,0.036c0.324,0.376-0.969,0.518-1.588,0.608c0.26-0.346,0.273-0.737-0.322-0.755
		c1.064-0.188,0.596-1.327,1.487-1.492c-0.258,0.348-1.101,0.966-0.462,1.145c0.803,0.16,1.284-0.701,2.178-1.093l-0.628,0.067
		c-0.41-0.987,1.456-1.088,1.513-2.149c-0.286,0.062-0.5,0.183-0.536,0.016c0.106,0.221,0.954-0.248,1.421-0.31l-0.359,0.559
		c1.523,0.472,0.995-0.647,2.467-0.608c-0.039,0.371-2.005,1.098-0.814,1.18c-0.104-0.492,0.871-0.307,0.904-0.683l1.049,0.583
		c0.761-0.371,1.649-0.907,2.117-1.231c-0.33,0.44-0.617,0.487-1.016,0.868c1.038-0.42,1.752,0.766,2.419-0.103l-0.654-0.134
		c0.902-0.08,1.232-0.255,1.594-0.508c0.288-0.482-0.521-0.753-1.042-0.753c0.453-0.064,1.434,0.217,1.366-0.275
		c0.51,0.322,0.995,0.023,1.129-0.297c0.841,0.175,0.33,0.304,0.434,0.699c0.67-0.286,2.206-0.052,1.887-0.802
		c-0.311-0.134-1.197,0.237-0.856-0.345c0.361,0.644,0.434-0.361,1.025-0.256c-0.975,0.763,1.33,0.493,0.63,1.06
		c1.04,0.07,1.18-0.384,1.917-0.567l0.041,0.508l1.15-0.222c0.257,0.595-0.331,1.237,0.762,1.451
		c0.814-0.722,0.49-1.727,1.867-2.038l-0.269,0.693c0.411,0.093,1.722-0.049,1.608-0.51c-0.289-0.34-0.712-0.67-1.237-0.727
		l0.175,0.018c0.752-0.343-1.253-0.853,0.272-0.858c-0.386,0.858,2.146,1.458,2.924,2.093c0.521-0.235,1.587-0.518,1.887-0.851
		c-0.047-0.237-0.799-0.459-0.424-0.892c1.795,0.784,2.856-0.371,4.496,0.696c-0.072,0.064-0.083,0.227,0.407,0.24l0.201,0.289
		c0.293-0.059,0.649-0.108,0.891,0.023l1.325,0.312c0.01,0.147,0.269-0.028,0.547-0.167L127.896,38l0.372,0.175
		c0.21-0.093,0.422-0.162,0.525-0.07c0.325-0.492,0.901,0.562,1.371,0.843l-0.336-0.01c0.862,0.428,1.589-0.505,2.294,0.346
		l0.072,0.231l0.258,0.145c0.696,0.248,0.661-0.128,1.712,0.271l-0.49-0.431c0.278,0.062,0.438,0.119,0.552,0.183
		c0.707,0,2.562,0.312,3.393,1.043c1.164-0.139,1.19-0.541,2.618,0.021l-0.453,0.484l1.355,0.948
		c-0.336,0.131,0.252,0.675,1.035,1.286l-0.04-0.031c0.082,1.069,1.236,1.24,1.721,1.369c0.289,0.031,0.975,0.206,0.897,0.428
		c0.49-0.237,1.16,0.353,1.865,0.809l0.016-0.039l0.19,0.286l0.026-0.216c0.231,0.729,1.067,0.384,1.258,1.443
		c0.603,1.186-1.037,0.31-0.269,1.647l0.712,0.34c0.015,0.229-0.082,0.136-0.217,0.115c0.5,0.464,0.366,1.152,1.088,1.016
		c-0.393-1.113-0.351-1.479-0.969-2.593c1.098,1.062,1.798,0.773,2.618,1.805c0.165-0.021,0.011-0.258,0-0.49
		c0.443,0.562,0.396,1.32,0,1.17c0.237,0.596,0.871,0.413,1.324,1.181l0.852-0.412c0.901,0.892,1.154,2.36,1.329,3.304
		c-0.438-1.016-1.506-1.535-1.855-2.178c-1.299,1.139-1.877-2.415-2.645-2.538c0.175,0.721-1.056-0.331-0.448,0.907
		c0.846,0.355,0.629,0.863,1.057,1.577c-0.201,0.654-1.005-0.181-0.247,1.113c-0.099-0.683,1.148,0.269,0.438-0.717
		c1.464,1.487,1.588,1.94,2.484,3.683c-0.629-1.538,0.954,0.385,0.97-0.698c-0.619,0.418-1.412-2.304-0.948-0.192
		c-0.186-0.473-0.475-0.89-0.773-1.305c0.248-0.297,1.181,1.178,0.948-0.229c1.01,1.025,0.659,1.609,1.66,2.561
		c-0.536-0.057-0.195,1.261-0.567,1.562c0.237,0.502,0.897,0.861,0.686,1.541l-0.587-0.76c0.231,0.865-0.269,1.062-0.182,1.826
		c0.248,0.451,0.558,0.439,0.794,0.145l-0.03-0.686l0.17,0.385l-0.14,0.301c0.011,1.258,0.64,2.396,0.511,3.753
		c-0.165-1.572-0.758-0.186-0.933-1.415l-0.134,0.967c1.04,1.611,2.2,4.365,3.154,4.84c0.442,2.336-1.248,1.652-0.155,4.443
		c-0.072-0.404-0.705,0.201-0.933-0.008c-0.088,0.441-0.33,1.191-0.19,1.709l0.633-1.003c0.284,1.327-0.375,3.134-0.622,4.539
		c0.03,0.113,0.005,0.327-0.124,0.755l0.124-0.755c-0.094-0.314-0.495,0.091-0.552-0.794c-0.352-0.062-0.562,0.899-0.707,1.309
		c0.083,1.053,0.943,0.534,0.902,1.762c-3.159,10.887-9.736,20.535-18.928,26.904c0.164,0.057,0.33,0.113,0.49,0.178
		c-0.434,0.646,1.695,1.519,2.401,2.131c0.588-0.004,0.325-0.54-0.258-0.607c1.166,0.129,1.608,0.402,2.608,0.891
		c0.052,0.748,0.959,1.067,1.804,1.232c-0.453,0.108-0.288,0.737-1.442-0.252c0.247,0.346-2.222,0.02-0.423,1.082
		c2.278-0.041,4.438,0.923,6.423,2.294c1.01,0.934,1.753,1.016,2.046,1.716h-0.475c0.49,0.542,0.852,0.3,1.191,0.249
		c0.814,0.799-0.145,0.963-0.583,0.922c2.041,1.624,3.212,1.351,5.19,3.324c0.259,0.588-0.593,0.723,0.361,1.542
		c2.747,2.86,5.577,4.851,7.381,8.727l0.109,1.195l1.324,0.356c1.598,3.731,3.154,6.788,4.855,10.634
		c-0.298-0.319-0.433-0.824-0.742-0.887c0.64,1.191,2.32,1.907,2.604,3.108c0.231-0.093-0.552,0.263-0.769,0.283
		c0.897,1.305,2.114,1.727,3.072,3.206c-0.092,0.299-0.654-0.557-0.722,0.13l0.501,0.917c-0.594-0.598-0.32,0.742-0.512,0.53
		c-0.005-0.18,0.032-0.442-0.164-0.639c-0.346,0.159-0.047,1.078-0.062,1.695c0.205,0.388,0.587,0.599,0.612,0.171
		c0,0.81-0.221,0.227-0.582,0.381c0.195,1.016,0.453,1.031,1.011,0.943c0.345-0.212,0.345-0.212,0.401-0.974
		c0.031,1.164,0.434,2.386,0.206,3.206l0.608,0.401l-0.077,0.186c0.206-0.035,0.315-0.046,0.387-0.02l-0.067-0.114
		c1.191,1.341,1.975,3.31,2.717,5.34C192.052,144.428,200,123.165,200,100.002C200,44.773,155.227,0,100,0
		C44.771,0,0,44.773,0,100.002c0,27.41,11.046,52.225,28.905,70.287C29.371,169.479,28.936,169.319,30.007,168.351z M79.783,113.186
		c-0.86,0.187-1.236,1.17-1.917,0.784C78.923,113.372,78.854,113.506,79.783,113.186z M77.201,111
		c0.18,0.154-0.264,0.531-0.701,0.732l-0.392,0.066L77.201,111z M76.621,113.319c-0.387,0.248-0.799,1.516-1.366,0.907
		c0.292-0.329,0.797-0.629,0.474-0.892L76.621,113.319z M75.799,110.99c-0.322,0.112-0.912,0.211-1.098,0.618
		C74.69,111.242,75.477,110.727,75.799,110.99z M95.615,104.69c0.297-0.33,1.424-0.525,1.359-0.101
		C96.621,105.108,95.964,104.671,95.615,104.69z M100.547,103.113l-1.047-0.552l0.734-0.492
		C99.381,102.909,101.469,102.64,100.547,103.113z M101.005,102.443c-0.231-0.042,0-0.139,0.269-0.234
		C101.143,102.268,101.021,102.366,101.005,102.443z M101.753,102.263c-0.065-0.121-0.214-0.139-0.335-0.104l0.36-0.143
		L101.753,102.263z M102.417,54.186c-0.134-0.206-0.278-0.407-0.145-0.613C102.132,53.608,103.201,54.021,102.417,54.186z
		 M105.402,102.052l0.505,0.31l0.098,0.211L105.402,102.052z M106.928,102.43c-0.227-0.44,0.195-0.595,0.928-0.471
		C107.278,102.124,107.731,102.366,106.928,102.43z M135.33,45.402c0.464,0.506-0.396-0.247-0.16-0.42
		C134.969,44.546,135.599,45.178,135.33,45.402z M133.686,98.961c-0.252,0.371,0.171,0.377-0.299,0.756
		C132.989,99.448,133.165,99.168,133.686,98.961z M132.712,100.072l0.186,0.129l-0.66-0.181L132.712,100.072z M129.877,101.191
		l0.097,0.221c-0.107-0.092-0.211-0.062-0.293,0.006L129.877,101.191z M129.614,101.492l-0.078,0.278
		C129.366,101.799,129.475,101.654,129.614,101.492z M128.861,101.642c-0.228,0.987,1.097,0.181,0.665,0.854l-0.949-0.206
		L128.861,101.642z M119.309,42.139l0.32,0.242c-0.443,0.302-1.583,0.552-2.5,0.562C117.557,42.304,118.536,42.534,119.309,42.139z
		 M116.113,41.028c-0.217,0.075-0.329,0.286-0.484,0.425c0.495,0.072,0.943,0.119,0.989-0.322c0.619,0.42,0.005,1.018-0.464,1.42
		c0.093-0.554-0.896-0.695-1.582-0.966C115.232,41.345,115.294,41.413,116.113,41.028z M112.319,42.752
		c-0.17,0.598-0.943-0.252-1.231,0.376C111.098,42.516,112.067,42.943,112.319,42.752z M108.299,43.366
		c-0.098,0.497-1.351,0.165-1.062-0.145L108.299,43.366z M95.851,44.257l-0.095,0.34c-0.16,0.003-0.508-0.265-0.66-0.381
		L95.851,44.257z M174.206,150.836c-0.134,0.556-0.185-0.589,0.165-0.517C174.356,149.443,174.521,150.923,174.206,150.836z
		 M157.299,66.469c-0.176,0.245-0.588-0.455-0.495-0.656C157.088,65.66,157.057,66.139,157.299,66.469z M156.381,59.763
		c0.356-0.116,0.263,0.341,0.402,0.66c-0.608-0.789-0.896-1.407-1.283-2.093C155.86,58.392,156.335,59.268,156.381,59.763z
		 M136.562,39.343c-0.727-0.036-2.313-0.134-2.686-0.505C133.896,38.405,135.743,39.208,136.562,39.343z M120.099,36.783
		l-1.604,1.01l-0.119-0.134C119.083,37.134,119.134,37.204,120.099,36.783z M117.319,36.077l0.836,0.797l-1.062,0.286
		C117.258,36.521,116.072,36.319,117.319,36.077z M114.511,37.291l-0.077,0.717c-0.794,0.281,0.04-0.446-0.893-0.289
		c0.171-0.152,0.51-0.105,0.753-0.013C114.588,37.521,113.69,37.232,114.511,37.291z M111.525,37.209
		c-1.066,0.023,0.083,1.015-0.706,0.683l0.248-0.521c-0.804,0.103-1.077-0.278-1.232-0.58
		C110.536,36.665,110.928,37.078,111.525,37.209z M109.835,37.405c-0.19,0.43-1.051-0.085-1.64-0.019
		C108.902,37.446,109.433,36.874,109.835,37.405z M102.843,38.696c0.574-0.093,0.132,0.404,0.786,0.084
		c-0.062,0.387-0.737,0.536-1.294,0.353L102.843,38.696z M93.294,40.763l0.739,0.111l-0.316,0.193l1.242,0.222
		c-1.258,0.417-1.918,0.394-2.791,1.113C92.307,41.832,92.248,41.39,93.294,40.763z M91.346,43.294
		c0.639,0.181-0.684,0.716,0.278,0.974l0.845-0.33c-0.523,0.423,0.738,0.787-0.461,0.866c0.018-0.779-1.923,0.242-2.162-0.191
		C91.25,44.41,90.25,43.593,91.346,43.294z M88.611,43.688l-1.088,0.74l-0.142-0.095L88.611,43.688z M88.619,44.078l-0.586,0.799
		l-0.012-0.392L88.619,44.078z M89.453,44.492c-0.002,0.786-1.28,1.369-2.273,1.255C87.51,44.936,88.719,45.188,89.453,44.492z
		 M84.967,45.392l0.613-0.072C85.145,45.516,84.797,46.046,84.967,45.392z M72.482,87.396c0.266,1.275,0.53,2.227,1.069,3.258
		c-0.495-0.724-0.38-0.505-0.823-0.479c-0.064-1.119-0.772-0.568-0.721-1.658l0.355,0.145l-0.551-1.389
		C71.596,86.802,72.253,87.676,72.482,87.396z M72.469,112.521c0.379-0.011-0.031,0.351,0.475,0.355
		c0.752-0.366,0.025-1.087,1.17-1.535l-0.531,1.638c-1.095-0.442-1.148,1.001-2.307,1.959c0.163-0.479-0.52-0.958-0.887-1.051
		C70.654,113.3,71.5,112.748,72.469,112.521z M65.479,118.696l-0.459,0.309l1.222-1.185L65.479,118.696z M65.225,118.253
		l-0.941,1.005l0.758-1.164L65.225,118.253z M64.484,118.253l-0.664,0.798l-0.176,0.094L64.484,118.253z M62.059,120.418
		c0.375,0.319-0.566,0.546-0.822,0.922l-0.453-0.051C61.149,121.314,61.858,120.769,62.059,120.418z"/>
	<path fill-rule="evenodd" clip-rule="evenodd" fill="#4D4E4E" d="M174.521,165.629c0.093,0.041,0.243-0.005,0.026-0.525
		l0.164-0.325c-0.19-0.268-0.392-0.608-0.402-0.907l-0.386-1.469c0.113-0.083-0.181-0.247-0.448-0.443l0.052,0.433l-0.052-0.442
		c-0.187-0.14-0.372-0.305-0.351-0.464c-0.593-0.037-0.031-1.145-0.052-1.773l0.175,0.34c-0.134-1.072-1.268-1.222-1.01-2.361
		l0.145-0.222l-0.052-0.313c-0.32-0.764-0.578-0.496-1.01-1.655l0.02,0.712c-0.154-0.284-0.227-0.459-0.247-0.593
		c-0.495-0.599-1.521-2.305-1.587-3.495c-1.011-0.743-1.3-0.438-2.124-1.768l0.648-0.109l-0.545-1.628
		c0.335,0.092,0.206-0.753-0.176-1.769l0.031,0.052c0.407-0.989-0.619-1.779-0.996-2.119c-0.252-0.19-0.804-0.644-0.665-0.819
		c-0.556,0.021-0.958-0.794-1.469-1.484l-0.03,0.03l-0.139-0.329l-0.072,0.206c-0.072-0.758-0.991-0.624-0.97-1.686
		c-0.371-1.314,1.104-0.077,0.541-1.629l-0.644-0.505c0.01-0.237,0.098-0.125,0.226-0.072c-0.412-0.583-0.206-1.34-0.948-1.248
		c0.305,1.217,0.155,1.629,0.594,2.861c-0.943-1.242-1.5-1.119-2.305-2.119c-0.181,0.021,0,0.232,0,0.469
		c-0.454-0.53-0.458-1.236-0.042-1.112c-0.298-0.557-0.927-0.351-1.432-1.047l-0.814,0.484c-0.948-0.7-1.228-2.071-1.567-2.953
		c0.557,0.871,1.587,1.232,2.01,1.819c1.145-1.263,2.119,2.19,2.856,2.329c-0.145-0.757,1.072,0.408,0.453-0.886
		c-0.922-0.36-0.747-0.855-1.268-1.572c0.123-0.686,1.051,0.155,0.107-1.17c0.201,0.696-1.19-0.19-0.346,0.778
		c-1.731-1.366-1.653-1.953-3.194-3.355c1.165,1.258-1.053-0.077-0.687,0.917c0.516-0.598,1.964,1.897,0.97-0.072l1.02,1.166
		c-0.221,0.34-1.283-0.98-0.88,0.401c-1.053-0.835-0.996-1.417-2.264-1.923c0.541-0.129-0.263-1.19-0.036-1.613
		c-0.412-0.376-1.135-0.423-1.227-1.134l0.834,0.453c-0.541-0.706-0.175-1.107-0.587-1.819c-0.418-0.304-0.731-0.118-0.764,0.243
		l0.331,0.617l-0.299-0.272l-0.032-0.345c-0.664-1.13-1.865-1.702-2.659-2.789c1.14,1.128,0.727-0.325,1.681,0.572l-0.525-0.867
		c-1.929-0.757-4.542-2.021-5.547-1.499c-1.979-0.975-0.499-1.975-3.335-2.521c0.366,0.112,0.181-0.691,0.479-0.799
		c-0.34-0.284-0.887-0.847-1.397-0.949l0.562,1.016c-1.248-0.351-2.428-1.763-3.732-2.294c0.33,0,0.083-0.521,0.929-0.309
		c0.195-0.335-0.691-0.764-1.062-0.99c-1.062-0.165-0.772,0.769-1.917,0.49c-3.083-1.707-6.325-2.996-9.66-3.948
		c-5.397,2.401-11.687,3.592-17.634,3.505l0.092,0.227c-2.571-1.418-1.644,1.701-4.417-0.036c-1.865,1.129-4.681-0.392-7.088-0.16
		l-0.085-0.495c-2.028,0.753-3.271-1.953-5.417-1.865c-0.202-0.31-0.323-0.608-0.519-0.846c-5.046,1.423-10.186,3.186-14.877,5.671
		l0.182,0.134c-2.92,0.123-0.583,2.134-3.756,2.283c-0.74,2.139-3.711,2.458-4.871,4.695l-0.43-0.227
		c-0.605,1.861-3.314,1.66-4.248,3.566c-0.771,0.114-1.35-0.076-1.914,1.083c-0.045,0.237,0.688,0.434-0.14,0.717l-0.019-1.088
		c-0.93,0.639-1.742,1.541-2,2.464c0.766-0.186,0.575-1.139,0.887-0.407c-0.273,0.335-0.559,0.779-1,1.104l0.113-0.696l-0.934,0.938
		l0.061-0.504c-0.715,0.736-1.67,1.236-1.758,2.329c-0.025-0.483-0.173-1.474-0.812-0.737l-0.234,0.861
		c-0.178,0.01-0.113-0.484-0.796,0.742c0.544,0-0.456,1.093-1.126,0.99c0.518,0.226,1.296-0.263,1.752,0.092
		c-1.137,0.846,0.234,1.552-0.84,2.289l-0.305-0.475c-0.734,0.723-0.975,1.444-1.088,2.207l-0.17-0.237
		c-1.291,1.33-1.463,2.695-2.964,3.196l-0.301,1c-0.034-0.361-0.216-0.341-0.578-0.052c-0.531,0.566-0.639,1.917-0.17,1.737
		c-2.144,1.582-1.436,2.942-3.144,5.201c-0.469-0.418-0.781,0.871-0.987,0.169l-0.19,0.893c0.043-0.134-0.145-0.103-0.227-0.088
		c-0.312,0.181-0.208,0.407-0.104,0.634l-0.054-0.112l-0.737,0.989l0.418,0.289l-0.84,0.525c-0.253-0.814,0.791-1.731,0.366-2.273
		c-0.253,0.283-1.714,1.175-1.552,2.619l-1.423,1.964c-0.322-0.063-0.049-0.125-0.526,0.494c-0.448,0.484-0.157,0.681-0.587,1.407
		c0.064-0.269,0.095-0.397,0.044-0.51c-0.688,0.788-0.152,1.299-0.248,2.082c0.265-0.443,0.304-0.964,0.407-1.361
		c0.175-0.041,0.149,0.088,0.234,0.067l0.284-1.201c0.204,0.196-0.134,0.155,0.405-0.351c-0.335,0.712-0.459,0.866-0.74,1.696
		c0.196,0.572,0.786-0.19,0.814,0.428c-2.526,5.948-5.716,9.134-7.487,14.057C51.748,190.567,74.748,200,100,200
		c29.681,0,56.258-13,74.572-33.536C174.536,166.201,174.475,165.959,174.521,165.629z M43.286,157.289l-0.165-0.351l-0.449,1.505
		c-0.126,0.531-0.101-0.618-0.453-0.53c0.525-1.294,1.165-2.125,1.53-3.295c-0.19,0.897-0.121,0.635,0.22,0.934
		C43.186,156.443,44.078,156.495,43.286,157.289z M57.214,137.716l0.204-1.335v0.352c0.541-0.352,0.592-1.201,1.066-1.444
		C57.83,136.258,58.132,136.753,57.214,137.716z M58.986,135.896l-0.172-0.737c0.273,0.006,0.531,0.016,0.531,0.383
		C59.176,135.536,59.055,135.768,58.986,135.896z M148.717,125.103c-0.026-0.298,0.716-0.041,0.778,0.191
		C149.371,125.587,149.093,125.201,148.717,125.103z M153.191,129.901c-0.273,0.273-0.346-0.18-0.583-0.396
		c0.804,0.423,1.299,0.855,1.896,1.31C154.14,130.907,153.412,130.325,153.191,129.901z M169.247,153.975
		c0.454,0.576,1.476,1.938,1.449,2.489C170.361,156.727,169.696,154.701,169.247,153.975z"/>
</g>
</svg>
