<?xml version="1.0" standalone="no"?>
<!DOCTYPE svg PUBLIC "-//W3C//DTD SVG 1.1//EN" "http://www.w3.org/Graphics/SVG/1.1/DTD/svg11.dtd" >
<svg xmlns="http://www.w3.org/2000/svg">
<metadata>
This is a custom SVG webfont generated by Font Squirrel.
Copyright   : Copyright  2004 Joshua Darden  Phils Fonts Inc All rights reserved Published by Garagefonts USA 3012602285 wwwgaragefontscom
Designer    : Joshua Darden
Foundry     : Joshua Darden  Phils Fonts Inc
Foundry URL : httpwwwgaragefontscom
</metadata>
<defs>
<font id="FreightTextBook" horiz-adv-x="819" >
<font-face units-per-em="2048" ascent="1638" descent="-410" />
<missing-glyph horiz-adv-x="327" />
<glyph unicode=" "  horiz-adv-x="327" />
<glyph unicode="&#x09;" horiz-adv-x="327" />
<glyph unicode="&#xa0;" horiz-adv-x="327" />
<glyph unicode="!" horiz-adv-x="575" d="M170 86q0 45 34 79t85 34q53 0 83.5 -34t30.5 -79q0 -47 -30.5 -82t-83.5 -35q-51 0 -85 35t-34 82zM193 1233q-4 35 11 55.5t70 20.5h31q55 0 70.5 -20.5t11.5 -55.5l-78 -827q-2 -12 -20.5 -12.5t-20.5 12.5z" />
<glyph unicode="&#x22;" horiz-adv-x="727" d="M35 825l215 500h2l151 -53l-301 -447h-67zM356 825l215 500h2l150 -53l-299 -447h-68z" />
<glyph unicode="#" horiz-adv-x="1148" d="M-4 371v71h285l104 389h-264v72h282l107 389h74l-105 -389h357l106 389h74l-107 -389h267v-72h-285l-105 -389h267v-71h-285l-104 -383h-74l104 383h-360l-103 -383h-73l102 383h-264zM354 442h359l104 389h-356z" />
<glyph unicode="$" horiz-adv-x="1019" d="M102 387h68l94 -281q10 -6 23.5 -11t29.5 -9l140 516q-68 27 -128.5 56.5t-104.5 70.5t-70.5 97.5t-26.5 134.5q0 68 25.5 130t77 109t130 77t183.5 30h53q25 0 47 -2l55 206h76l-29 -106q-10 -41 -19 -75t-11 -34q16 -2 29.5 -4t25.5 -6l109 31v-404h-74l-62 254 q-12 4 -26.5 10.5t-30.5 10.5l-121 -455q74 -29 141.5 -59.5t119 -73.5t82 -104.5t30.5 -149.5q0 -74 -32 -142.5t-91 -119.5t-145 -83t-195 -32q-59 0 -115 6l-84 -315h-73l86 324q-43 8 -83 19t-77 26zM266 1018q0 -55 18.5 -95t50.5 -70t74 -52.5t89 -40.5l118 448 q-29 6 -56.5 10.5t-53.5 4.5q-59 0 -104.5 -17.5t-75 -45t-45 -64.5t-15.5 -78zM385 66q35 -6 67.5 -10.5t63.5 -2.5q68 0 119 20.5t87 52.5t54.5 74t18.5 87q0 66 -21.5 110.5t-58.5 76.5t-86 56.5t-105 44.5l-69 -253q-12 -47 -25.5 -93.5t-23 -82t-15.5 -58.5z" />
<glyph unicode="%" horiz-adv-x="1527" d="M35 987q0 70 23.5 132.5t67.5 108.5t107.5 73.5t141.5 27.5q80 0 142.5 -27.5t106.5 -73.5t67.5 -108.5t23.5 -132.5q0 -68 -23.5 -129t-67.5 -107t-106.5 -74t-142.5 -28q-78 0 -141.5 28t-107.5 74t-67.5 107t-23.5 129zM131 987q0 -49 16.5 -94t48 -80t76.5 -55.5 t103 -20.5q57 0 102 20.5t77 55.5t48 80t16 94q0 106 -63 180t-180 74t-180.5 -74t-63.5 -180zM190 -31l1045 1340h104l-1042 -1340h-107zM813 291q0 68 23.5 129t67.5 107t106.5 74t142.5 28q78 0 141.5 -28t107.5 -74t67.5 -107.5t23.5 -128.5q0 -70 -23.5 -132.5 t-67.5 -108.5t-107.5 -73.5t-141.5 -27.5q-80 0 -142.5 27.5t-106.5 73.5t-67.5 108.5t-23.5 132.5zM909 291q0 -106 63.5 -180t180.5 -74t180.5 73.5t63.5 180.5q0 49 -16.5 94t-48.5 80t-77 55.5t-102 20.5t-102 -20.5t-77 -55.5t-48.5 -80t-16.5 -94z" />
<glyph unicode="&#x26;" horiz-adv-x="1413" d="M53 305q0 63 23.5 121.5t63.5 108t95.5 88.5t118.5 63q-88 41 -142 116t-54 173q0 66 26.5 126t75.5 106t119 73t153 27q76 0 135.5 -22.5t100.5 -60.5t62.5 -87.5t21.5 -102.5q0 -94 -62.5 -180t-199.5 -141q96 -41 183 -119t140 -170q39 55 72 102q29 41 51.5 79 t22.5 50q2 33 -45 39l-72 11l-4 67h428l-8 -67l-66 -11q-41 -10 -82 -34.5t-73 -69.5q-51 -66 -90 -117q-35 -43 -64 -79t-29 -38q35 -70 66 -121t60.5 -82.5t62.5 -47t71 -15.5q39 0 80 19.5t86 46.5l31 -54q-59 -63 -121.5 -99t-134.5 -36q-104 0 -172 65.5t-129 196.5 q-39 -51 -87 -98t-103.5 -83t-118 -57.5t-129.5 -21.5q-86 0 -153.5 28t-114 74t-71 107t-24.5 127zM205 360q0 -53 20.5 -101t59.5 -85t91 -58.5t113 -21.5q82 0 167 53.5t159 155.5q-37 72 -81 125t-93 94t-105.5 71t-119.5 56q-96 -49 -153.5 -122t-57.5 -167zM293 1026 q0 -102 57.5 -168.5t171.5 -114.5q182 84 183 269q0 43 -13.5 82t-39 68.5t-63.5 48t-85 18.5q-98 0 -154.5 -60.5t-56.5 -142.5z" />
<glyph unicode="'" horiz-adv-x="405" d="M35 825l215 500h2l151 -53l-301 -447h-67z" />
<glyph unicode="(" horiz-adv-x="808" d="M190 428q0 186 54.5 342t135.5 275.5t176 202.5t177 124l25 -33q10 -12 17 -23t7 -13q-76 -41 -163 -121t-158.5 -192.5t-119.5 -254t-48 -307.5t48 -307t119.5 -254t159 -193t162.5 -118q0 -2 -7 -12.5t-17 -24.5q-10 -16 -25 -35q-82 41 -177 124t-176 202.5 t-135.5 275.5t-54.5 342z" />
<glyph unicode=")" horiz-adv-x="808" d="M27 -446q78 41 163.5 120.5t157.5 192.5t120 254t48 307t-48 307.5t-120 254t-158 192.5t-163 121q0 2 8 13t18 23l25 33q82 -41 176 -124t175 -202.5t135 -275.5t54 -342t-54 -342t-135 -275.5t-175 -202.5t-176 -124l-25 33q-10 12 -18 23.5t-8 13.5z" />
<glyph unicode="*" horiz-adv-x="710" d="M66 1157l24 37l131 -25l107 -155l32 10v190l82 93l45 -15l17 -127l-119 -151l21 -27l182 62l112 -56v-45l-112 -55l-182 63l-21 -26l115 -152l-17 -127l-43 -10l-86 94l4 189l-30 8l-107 -150l-125 -26l-28 37l65 116l176 49v35l-176 54z" />
<glyph unicode="+" horiz-adv-x="983" d="M66 430l6 100h368v379h105v-379h366l7 -100h-373v-381h-105v381h-374z" />
<glyph unicode="," horiz-adv-x="462" d="M68 -322q33 25 63.5 54.5t55 63.5t39 73t14.5 80q0 43 -23.5 73.5t-52.5 50t-52.5 30t-23.5 12.5q0 47 34 80.5t95 33.5q33 0 65.5 -14t58.5 -38.5t41 -58.5t15 -75q0 -63 -25.5 -119.5t-66.5 -105.5t-92 -92t-100 -80z" />
<glyph unicode="-" horiz-adv-x="671" d="M70 428l6 104h524l6 -104h-536z" />
<glyph unicode="." horiz-adv-x="466" d="M106 96q0 49 36 86t94 37q55 0 89.5 -37t34.5 -86t-34.5 -88t-89.5 -39q-57 0 -93.5 39t-36.5 88z" />
<glyph unicode="/" horiz-adv-x="571" d="M18 -432l439 1790h92l-438 -1790h-93z" />
<glyph unicode="0" horiz-adv-x="1146" d="M80 479q0 115 37 208t102.5 160.5t156.5 104.5t199 37q109 0 199 -37t154.5 -102.5t100.5 -158.5t36 -208q0 -113 -37 -208t-102.5 -162.5t-155.5 -105.5t-199 -38t-198.5 37t-155 104.5t-101.5 161.5t-36 207zM197 483q0 -88 27.5 -161.5t77.5 -127t120 -83t153 -29.5 q84 0 153 29.5t118 82t75.5 125t26.5 160.5t-27.5 161t-77.5 125t-119 82t-153 30t-152.5 -29t-117.5 -81t-76.5 -124t-27.5 -160z" />
<glyph unicode="1" horiz-adv-x="749" d="M86 864l6 60l369 59v-856q0 -31 37 -37l149 -20l6 -70h-522l6 70l146 20q35 12 34 37v725z" />
<glyph unicode="2" horiz-adv-x="954" d="M68 106q106 82 201.5 156t166 141.5t111.5 132t41 126.5q0 39 -14.5 74.5t-42 62t-68.5 43t-92 16.5q-76 0 -138.5 -43t-101.5 -98l-39 24q47 117 141.5 182.5t219.5 65.5q61 0 115.5 -19.5t96.5 -55t66.5 -86t24.5 -111.5q0 -76 -37 -142.5t-107.5 -133t-172 -140.5 t-232.5 -166v-10h117q147 0 233 3t135 15.5t70.5 35t36.5 59.5l37 92h63l-25 -330h-798z" />
<glyph unicode="3" horiz-adv-x="856" d="M25 -270q0 43 27.5 69.5t68.5 26.5q55 0 95 -46t50 -102q29 -6 58 -6q57 0 112.5 22.5t98.5 63.5t69.5 97.5t26.5 126.5q0 125 -73 199.5t-198 74.5q-41 0 -85 -8t-87 -29l-22 53q68 43 134.5 86t120.5 88.5t88 95.5t34 111q0 41 -14.5 79t-42 66.5t-67.5 46t-89 17.5 q-80 0 -141.5 -44t-102.5 -99q-2 0 -9 4t-15.5 8t-13.5 8t-3 4q47 117 150.5 181.5t226.5 64.5q66 0 119 -20.5t92 -55t60.5 -83t21.5 -103.5q0 -104 -67.5 -187t-209.5 -167v-4q78 0 142.5 -22.5t111.5 -62.5t74 -97.5t27 -129.5q0 -90 -43 -174t-116 -149.5t-169 -105.5 t-203 -40q-113 0 -175 43.5t-62 98.5z" />
<glyph unicode="4" horiz-adv-x="952" d="M14 119l652 862h69v-811h230l-15 -123h-215v-424h-145v424h-570zM141 170h449v590h-6z" />
<glyph unicode="5" horiz-adv-x="858" d="M23 -276q0 45 28.5 70.5t67.5 25.5q57 0 95 -43t48 -101q16 -4 29 -4h28q63 0 119 24.5t98 67.5t65.5 99.5t23.5 122.5q0 145 -138.5 247.5t-382.5 167.5l144 562h540l-4 -154h-489l-72 -287q285 -78 412 -199.5t127 -273.5q0 -92 -40 -176t-109.5 -146.5t-161 -100.5 t-193.5 -38q-104 0 -169.5 39.5t-65.5 96.5z" />
<glyph unicode="6" horiz-adv-x="1024" d="M78 465q0 170 70.5 322.5t191.5 269.5t279.5 190.5t332.5 87.5l15 -59q-145 -20 -261 -76.5t-203 -137.5t-146.5 -183.5t-90.5 -214.5l4 -2q59 55 140.5 90.5t160.5 35.5q88 0 157 -30.5t117 -83.5t72.5 -124t24.5 -149q0 -98 -34 -179t-93 -138t-140 -89t-173 -32 q-100 0 -180 42t-133.5 111.5t-82 160t-28.5 188.5zM242 459q0 -80 20.5 -155t60 -133t96 -94t126.5 -36q59 0 104 25.5t77 67.5t48.5 97.5t16.5 114.5q0 76 -23 138.5t-60.5 107.5t-89 69.5t-110.5 24.5q-78 0 -142.5 -30.5t-105.5 -69.5q-8 -10 -13 -49t-5 -78z" />
<glyph unicode="7" horiz-adv-x="946" d="M55 637l41 326h803l10 -89l-635 -1253h-106l614 1188v10h-360q-80 0 -126 -1t-70.5 -7t-35 -18.5t-18.5 -32.5q-14 -31 -25 -58q-10 -23 -17 -42t-9 -23h-66z" />
<glyph unicode="8" horiz-adv-x="997" d="M82 301q0 61 22.5 112.5t60.5 92.5t90 73.5t110 57.5v2q-51 27 -97.5 57.5t-80 69.5t-54 87t-20.5 110q0 61 25.5 122.5t75.5 110.5t125 80t171 31q74 0 139.5 -23.5t114.5 -66.5t77.5 -101.5t28.5 -126.5q0 -109 -66.5 -185.5t-174.5 -125.5v-2q57 -29 108 -60.5 t91 -73.5t63.5 -94.5t23.5 -121.5q0 -74 -29.5 -139.5t-86 -113.5t-138 -76t-186.5 -28q-80 0 -151.5 24.5t-125 70t-85 105.5t-31.5 132zM231 311q0 -57 20.5 -108t59.5 -88t92.5 -58.5t118.5 -21.5q61 0 109.5 18.5t81 50t50 73.5t17.5 91q0 70 -31.5 120t-84 89t-117 71 t-131.5 64q-78 -55 -131.5 -132t-53.5 -169zM250 1022q0 -59 26.5 -105.5t71.5 -83t103.5 -68.5t121.5 -63q76 53 114 118t38 157q0 49 -17.5 97t-50 86t-80 61.5t-104.5 23.5q-51 0 -92 -18.5t-69.5 -49t-45 -70.5t-16.5 -85z" />
<glyph unicode="9" horiz-adv-x="1024" d="M55 -315q145 20 261 76.5t203 137.5t146.5 183t92.5 215l-6 2q-59 -57 -140.5 -92t-160.5 -35q-86 0 -156 30.5t-117 84t-72.5 123t-25.5 149.5q0 98 33.5 179t93 138.5t140.5 88t173 30.5q102 0 181 -42t133.5 -110.5t82 -158.5t27.5 -188q0 -172 -70.5 -324 t-191.5 -268.5t-278.5 -190t-333.5 -88.5zM233 612q0 -76 21.5 -138t60.5 -107t90.5 -70t108.5 -25q78 0 142.5 32t105.5 71q8 10 13 48t5 79q0 78 -20.5 152.5t-59 133t-95 94.5t-126.5 36q-59 0 -105 -25t-77 -67t-47.5 -97.5t-16.5 -116.5z" />
<glyph unicode=":" horiz-adv-x="462" d="M106 96q0 49 36 86t94 37q55 0 89.5 -37t34.5 -86t-34.5 -88t-89.5 -39q-57 0 -93.5 39t-36.5 88zM106 731q0 49 36 86t94 37q55 0 89.5 -37t34.5 -86t-34.5 -87t-89.5 -38q-57 0 -93.5 38t-36.5 87z" />
<glyph unicode=";" horiz-adv-x="462" d="M68 -322q33 25 63.5 54.5t55 63.5t39 73t14.5 80q0 43 -23.5 73.5t-52.5 50t-52.5 30t-23.5 12.5q0 47 34 80.5t95 33.5q33 0 65.5 -14t58.5 -38.5t41 -58.5t15 -75q0 -63 -25.5 -119.5t-66.5 -105.5t-92 -92t-100 -80zM106 731q0 49 36 86t94 37q55 0 89.5 -37t34.5 -86 t-34.5 -87t-89.5 -38q-57 0 -93.5 38t-36.5 87z" />
<glyph unicode="&#x3c;" horiz-adv-x="983" d="M59 457v49l820 385l24 -92l-667 -312v-10l667 -313l-24 -92z" />
<glyph unicode="=" horiz-adv-x="983" d="M86 250l6 104h799l6 -104h-811zM86 711h811l-6 -105h-799z" />
<glyph unicode="&#x3e;" horiz-adv-x="983" d="M80 164l668 313v10l-668 312l24 92l820 -385v-49l-820 -385z" />
<glyph unicode="?" horiz-adv-x="731" d="M109 1202q0 47 42 77t109 30q84 0 154.5 -29t123 -77t82 -108.5t29.5 -123.5t-16.5 -105.5t-46 -71t-68.5 -49t-86 -38.5q-33 -12 -64.5 -25.5t-55 -31t-38 -40t-14.5 -57.5q0 -51 31 -93t76 -83h-62q-18 16 -42.5 38.5t-46 52.5t-37 64.5t-15.5 73.5q0 53 18.5 90 t50 64.5t73.5 48t89 41.5q35 14 66 27.5t55.5 30t38.5 36t14 45.5q0 68 -87 116t-228 48q-39 0 -71.5 -4t-55.5 -8q-8 10 -13 27.5t-5 33.5zM193 86q0 45 32.5 79t85.5 34q51 0 83 -34t32 -79q0 -47 -32 -82t-83 -35q-53 0 -85.5 35t-32.5 82z" />
<glyph unicode="@" horiz-adv-x="1708" d="M94 537q6 162 74 304t178.5 246.5t257 164t307.5 55.5q156 -4 293 -57.5t236.5 -147.5t155 -223t46.5 -285q-6 -115 -43.5 -210t-99 -163.5t-141.5 -106.5t-168 -38q-76 0 -119 16.5t-64.5 41t-24.5 52t3 47.5l72 314h-27q-43 -84 -91 -164t-96 -141.5t-94.5 -98.5 t-89.5 -37q-41 0 -78.5 17.5t-66.5 46.5t-45 64.5t-16 70.5q0 61 19.5 138t52 154t75.5 146.5t90 116.5t99.5 70.5t101.5 23.5q74 0 128 -45t77 -116h22l51 137h97l-117 -334l-45 -365q-6 -35 19.5 -59.5t90.5 -24.5q72 0 133.5 35t107.5 95.5t73.5 141.5t32.5 175 q6 139 -42.5 255t-137.5 201t-211.5 133t-262.5 52q-145 4 -275 -51.5t-229.5 -150.5t-160 -223t-66.5 -271q-8 -158 41 -290t138 -228.5t213 -150.5t266 -54q66 0 129 11t122 30l21 -68q-74 -25 -138.5 -36t-140.5 -11q-158 0 -296 59.5t-237 165t-153.5 251t-46.5 319.5z M592 334q0 -37 11 -61.5t28.5 -41t37 -23.5t36.5 -7q23 0 59.5 40t80.5 102.5t91 140t90 153.5q10 20 17.5 49t7.5 33q-10 20 -30 46t-46.5 48.5t-58 37.5t-66.5 15q-55 0 -88 -32q-29 -29 -59.5 -90.5t-55 -135t-40 -147.5t-15.5 -127z" />
<glyph unicode="A" horiz-adv-x="1222" d="M-33 0l6 70l82 14q23 6 40.5 16.5t36 40t41 86t54.5 150.5l285 803v65l170 72l395 -1188q10 -33 51 -39l121 -20l6 -70h-526l6 70l117 14q20 4 30.5 11t11.5 23.5t-6 45.5t-22 74l-75 225h-443l-74 -223q-29 -84 -29.5 -116t36.5 -40l102 -14l6 -70h-422zM377 547h387 l-182 575h-11z" />
<glyph unicode="B" horiz-adv-x="1181" d="M86 0l6 70l107 12q53 6 53 29v1060q0 12 -10.5 17.5t-42.5 9.5l-107 12l-6 70h522q127 0 213 -23.5t138.5 -62.5t75 -90t22.5 -107q0 -61 -22.5 -115.5t-63.5 -98.5t-98.5 -73.5t-127.5 -41.5v-9q186 -20 272.5 -108t86.5 -203q0 -172 -133 -260t-371 -88h-514zM420 102 l160 -28l59 2q57 4 108.5 20.5t91.5 49t63.5 79.5t23.5 109q0 72 -28 125t-79 89t-119.5 53t-152.5 17h-127v-516zM420 694l162 2q78 0 133 23.5t91 58.5t53.5 80t17.5 88q0 121 -78 190.5t-250 69.5h-129v-512z" />
<glyph unicode="C" horiz-adv-x="1359" d="M94 621q0 160 54.5 286.5t149.5 215.5t224 137.5t279 48.5q90 0 164.5 -12.5t119.5 -26.5l156 33v-416h-86l-53 266q-53 31 -126 53.5t-188 22.5q-113 0 -206 -44t-160.5 -121t-104 -183.5t-36.5 -233.5q0 -131 35.5 -241.5t103 -190.5t166 -124t225.5 -44 q76 0 143.5 16.5t120.5 45.5l86 276h90l-49 -387l-94 20q-57 -18 -144 -33.5t-171 -15.5q-147 0 -275.5 44t-221.5 128t-147.5 205t-54.5 275z" />
<glyph unicode="D" horiz-adv-x="1390" d="M86 0l6 70l107 12q53 6 53 29v1060q0 12 -10.5 17.5t-42.5 9.5l-107 12l-6 70l455 6h15q167 0 301 -44q140 -46 238.5 -129t150.5 -197.5t52 -249.5q0 -133 -47 -254t-142 -212t-237.5 -145.5t-332.5 -54.5h-453zM420 102l164 -26q127 2 225 45t165.5 115.5t103.5 171 t36 210.5q0 133 -40 241t-117.5 185.5t-192.5 119.5t-266 42h-78v-1104z" />
<glyph unicode="E" horiz-adv-x="1193" d="M86 0l6 70l107 12q53 6 53 29v1060q0 12 -10.5 17.5t-42.5 9.5l-107 12l-6 70h983v-371h-88l-45 207q-8 31 -21.5 48.5t-56.5 26.5t-127 11t-233 2h-78v-514h78q66 0 103.5 1t59 5t30.5 11.5t14 21.5l45 137h71l-43 -426h-67l-17 131q0 12 -5 20.5t-25.5 14.5t-60.5 8 t-109 2h-74v-540h55q164 0 255 3t138 12t62.5 26.5t25.5 46.5l52 198h100l-39 -362h-983z" />
<glyph unicode="F" horiz-adv-x="1140" d="M86 0l6 70l107 12q53 6 53 29v1060q0 12 -10.5 17.5t-42.5 9.5l-107 12l-6 70h969v-371h-90l-43 207q-8 31 -22.5 48.5t-57.5 26.5t-126 11t-233 2h-63v-526h94q66 0 103.5 1t59 5t30 11t14.5 22l47 137h70l-43 -426h-68l-14 131q-2 12 -8.5 20.5t-26 14.5t-59 8 t-109.5 2h-90v-495q0 -12 11 -17.5t42 -9.5l148 -12l6 -70h-541z" />
<glyph unicode="G" horiz-adv-x="1449" d="M94 621q0 160 56.5 287.5t154.5 216.5t229.5 136.5t278.5 47.5q92 0 166 -12.5t117 -26.5l155 33v-416h-86l-53 266q-53 31 -126 53.5t-189 22.5q-111 0 -205 -44t-164 -121t-108.5 -183.5t-38.5 -233.5q0 -131 34.5 -241.5t101 -190.5t164 -124t222.5 -44 q74 0 144.5 15.5t117.5 35.5v359q0 12 -10.5 17t-42.5 9l-129 13l-6 67h520l-6 -67l-107 -13q-53 -8 -53 -30v-320l119 -10l4 -53q-127 -43 -276.5 -72t-282.5 -29q-150 0 -278 44t-222 128t-147.5 205t-53.5 275z" />
<glyph unicode="H" horiz-adv-x="1501" d="M86 0l6 70l107 12q53 6 53 29v1060q0 12 -10.5 17.5t-42.5 9.5l-107 12l-6 70h500l-6 -70l-107 -12q-53 -6 -53 -29v-471h661v473q0 14 -10 18.5t-43 8.5l-106 12l-7 70h500l-6 -70l-106 -12q-53 -6 -54 -29v-1060q0 -12 10.5 -17.5t43.5 -9.5l106 -12l6 -70h-500l7 70 l106 12q53 6 53 29v503h-661v-505q0 -12 11 -17.5t42 -9.5l107 -12l6 -70h-500z" />
<glyph unicode="I" horiz-adv-x="718" d="M90 0l6 70l127 12q53 6 53 29v1060q0 12 -10 17.5t-43 9.5l-127 12l-6 70h541l-6 -70l-127 -12q-53 -6 -54 -29v-1060q0 -12 11.5 -17.5t42.5 -9.5l127 -12l6 -70h-541z" />
<glyph unicode="J" horiz-adv-x="796" d="M2 96q0 41 26.5 64.5t67.5 23.5q53 0 94 -39q37 -37 56 -106h2q39 10 67.5 33.5t48 72t28.5 127t9 201.5v698q0 14 -10 18.5t-43 8.5l-141 12l-6 70h549l-7 -70l-118 -12q-31 -4 -42.5 -10t-11.5 -19v-665q0 -258 -96 -396.5t-276 -138.5q-90 0 -143.5 36t-53.5 91z" />
<glyph unicode="K" horiz-adv-x="1296" d="M86 0l6 70l107 12q53 6 53 29v1060q0 12 -10.5 17.5t-42.5 9.5l-107 12l-6 70h500l-6 -70l-107 -12q-53 -6 -53 -29v-561l440 443q85 83 86 116q0 27 -43 31l-104 12l-6 70h489l-6 -70l-86 -10q-35 -6 -67.5 -26.5t-86.5 -73.5l-364 -363l440 -590q29 -39 46.5 -51 t47.5 -16l74 -10l6 -70h-452l6 70l80 12q12 4 11 16.5t-11 28.5l-361 508l-139 -137v-389q0 -12 11 -17.5t42 -9.5l107 -12l6 -70h-500z" />
<glyph unicode="L" horiz-adv-x="1157" d="M86 0l6 70l107 12q53 6 53 29v1060q0 12 -10.5 17.5t-42.5 9.5l-107 12l-6 70h518l-6 -70l-125 -12q-53 -6 -53 -29v-1093h51q152 0 239 3t132 12t60.5 26.5t23.5 46.5l61 244h94l-45 -408h-950z" />
<glyph unicode="M" horiz-adv-x="1728" d="M29 0l8 70l137 14q12 2 20.5 10t16.5 38t13 87t12 158l34 674q1 10 1 20q0 102 -60 117l-145 22l-7 70h439l362 -987h10l355 987h428l-4 -70l-152 -10q-20 -2 -27.5 -17.5t-9.5 -31.5l29 -780q2 -88 6 -144.5t10 -88.5t14.5 -44t18.5 -14l129 -10l6 -70h-522l6 70l133 10 q12 2 19.5 15.5t10.5 47t4 88.5v24q0 49 -3 116l-29 794h-14l-412 -1124h-86l-399 1083h-21l-34 -747q-4 -98 -7 -157q-1 -39 -1 -65v-23q1 -30 7.5 -39t18.5 -9l135 -14l6 -70h-456z" />
<glyph unicode="N" horiz-adv-x="1507" d="M76 0l6 70l123 16q23 4 36 12t19 38t8 86.5t2 154.5v676q0 66 -14 94.5t-49 44.5l-117 18l-6 70h354l738 -1032h6v655q0 98 -2 154.5t-8.5 86.5t-19.5 38t-36 12l-123 16l-6 70h473l-6 -70l-123 -16q-23 -4 -36 -12t-20 -38t-9 -86.5t-2 -154.5v-919h-99l-805 1126h-8 v-733q0 -98 2 -154.5t8.5 -86.5t19.5 -38t36 -12l123 -16l6 -70h-471z" />
<glyph unicode="O" horiz-adv-x="1513" d="M94 629q0 137 50.5 260t139.5 216t210.5 147.5t265.5 54.5q141 0 261 -48.5t209 -135.5t139 -208.5t50 -269.5q0 -137 -50 -260t-139 -215t-211 -146.5t-265 -54.5q-141 0 -262 48.5t-209 134.5t-138.5 208t-50.5 269zM281 651q0 -143 38.5 -256.5t105.5 -191.5t154 -120 t181 -42q96 0 181 39t150.5 113.5t103.5 183t38 246.5q0 143 -40 256.5t-105.5 191.5t-152.5 120t-183 42q-94 0 -180.5 -39t-151 -113.5t-102 -182.5t-37.5 -247z" />
<glyph unicode="P" horiz-adv-x="1146" d="M86 0l6 70l107 12q53 6 53 29v1060q0 12 -10.5 17.5t-42.5 9.5l-107 12l-6 70h496q129 0 223 -27.5t157.5 -75t94 -110.5t30.5 -137q0 -98 -38.5 -175t-105 -129.5t-157 -80t-192.5 -27.5q-45 0 -89 3t-85 7v-419q0 -12 11 -17.5t42 -9.5l145 -12l7 -70h-539zM420 610 q39 -10 80 -15t86 -5q147 0 234 82t87 225q0 145 -89 227q-87 80 -235 80h-8h-108q-25 0 -47 -2v-592z" />
<glyph unicode="Q" horiz-adv-x="1513" d="M94 629q0 137 50.5 260t139.5 216t210.5 147.5t265.5 54.5q141 0 261 -48.5t209 -135.5t139 -208.5t50 -269.5q0 -117 -35.5 -222.5t-100 -191.5t-156 -148.5t-199.5 -90.5q53 -92 114.5 -148.5t133 -85t156.5 -32.5q21 -1 44 -1q67 0 142 9l6 -66q-43 -14 -115 -25.5 t-145 -11.5q-98 0 -176 18.5t-140.5 59.5t-115 104.5t-99.5 155.5q-135 2 -251.5 51.5t-202.5 135.5t-135.5 207t-49.5 266zM281 651q0 -143 38.5 -256.5t105.5 -191.5t154 -120t181 -42q96 0 181 39t150.5 113.5t103.5 183t38 246.5q0 143 -40 256.5t-105.5 191.5 t-152.5 120t-183 42q-94 0 -180.5 -39t-151 -113.5t-102 -182.5t-37.5 -247z" />
<glyph unicode="R" horiz-adv-x="1210" d="M86 0l6 70l107 12q53 6 53 29v1060q0 12 -10.5 17.5t-42.5 9.5l-107 12l-6 70h524q233 0 342 -87t109 -226t-83 -229.5t-220 -137.5l278 -430q37 -53 56.5 -67.5t42.5 -18.5l84 -14l6 -70h-301l-78 141l-250 426q-49 -2 -88 -2h-88v-456q0 -12 11 -17.5t42 -9.5l117 -12 l6 -70h-510zM420 651q14 0 29 -2q12 -2 27.5 -3t31.5 -3q37 -4 86 -6q129 14 207 86t78 207q0 139 -79 210q-69 62 -203 61q-19 0 -40 -1h-32q-24 0 -46 -2q-27 -2 -59 -2v-545z" />
<glyph unicode="S" horiz-adv-x="1032" d="M90 387h82l86 -283q51 -23 122 -39t130 -16q70 0 123 20.5t90 54.5t55.5 77t18.5 90q0 63 -22.5 108t-64.5 79t-101.5 60.5t-133.5 53.5q-74 29 -139.5 59.5t-114.5 72.5t-76.5 99.5t-27.5 137.5q0 68 25.5 131t77.5 110t132 77t187 30h36q61 0 104 -5q56 -7 99 -18 l107 31v-404h-82l-58 263q-51 23 -114.5 37t-118.5 14q-61 0 -108.5 -17.5t-78 -47t-46 -68.5t-15.5 -80q0 -61 23.5 -104.5t66.5 -76t100.5 -57t125.5 -51.5q78 -29 145.5 -59.5t116.5 -73.5t77.5 -102.5t28.5 -143.5q0 -76 -32.5 -143.5t-93 -119.5t-147.5 -83t-196 -31 h-23q-91 0 -169 15q-88 16 -166 41z" />
<glyph unicode="T" horiz-adv-x="1253" d="M51 887l35 393h1096v-393h-88l-45 215q-6 29 -17.5 48t-43.5 30.5t-93 17.5t-170 6h-14v-1095q0 -12 11 -17.5t42 -9.5l139 -12l6 -70h-565l6 70l139 12q53 6 54 29v1093h-15q-104 0 -165.5 -3t-95.5 -12t-47 -26.5t-21 -46.5l-56 -229h-92z" />
<glyph unicode="U" horiz-adv-x="1456" d="M70 1280h499l-6 -70l-106 -12q-53 -6 -54 -29v-708q0 -111 29 -184.5t79 -118.5t118.5 -64.5t148.5 -19.5q174 0 262 99t88 261v469q0 98 -2 154.5t-8 86.5t-19.5 38t-35.5 12l-123 16l-6 70h471l-6 -70l-121 -16q-23 -4 -36 -12t-20.5 -38t-9.5 -86.5t-2 -154.5v-479 q0 -106 -33.5 -190t-97 -142.5t-154.5 -90.5t-204 -32t-202 28t-152.5 85t-97 146t-33.5 212v731q0 12 -10.5 17.5t-43.5 9.5l-106 12z" />
<glyph unicode="V" horiz-adv-x="1257" d="M-35 1280h527l-7 -70l-116 -14q-20 -4 -29.5 -11t-8.5 -23.5t10 -45.5t24 -74l301 -899h18l256 760q31 90 43 148q10 46 10 75q0 7 -1 14q-3 32 -19.5 45t-44.5 15l-78 10l-6 70h446l-6 -70l-80 -14q-25 -6 -43 -16.5t-35.5 -40t-39 -85t-56.5 -151.5l-315 -907h-168 l-404 1155q-4 16 -15 25.5t-34 13.5l-123 20z" />
<glyph unicode="W" horiz-adv-x="1880" d="M-31 1280h527l-7 -70l-116 -14q-39 -6 -37 -34.5t33 -119.5l256 -831h8l278 790l-49 150q-4 16 -15 25.5t-36 13.5l-117 20l-6 70h520l-6 -70l-121 -14q-35 -6 -33.5 -37t29.5 -117l271 -833l6 2l207 692q31 96 45 152q13 52 13 81q0 33 -16 43q-15 9 -42 15l-107 16 l-6 70h457l-7 -70l-73 -14q-25 -8 -40.5 -17.5t-31.5 -38t-36.5 -84t-53.5 -153.5l-287 -907h-119l-296 885h-5l-309 -885h-121l-381 1155q-4 16 -15 25.5t-34 13.5l-121 20z" />
<glyph unicode="X" horiz-adv-x="1265" d="M2 0l6 70l92 14q37 10 62.5 33.5t62.5 72.5l326 453l-356 508q-10 14 -26.5 25.5t-31.5 13.5l-106 20l-8 70h509l-6 -70l-100 -12q-41 -7 -41 -28q0 -6 3 -13q13 -33 67 -117l198 -295h9l225 342q33 48 33 76q0 29 -37 35l-95 12l-6 70h443l-6 -70l-91 -14 q-37 -10 -64.5 -33.5t-62.5 -72.5l-290 -408l391 -553q10 -14 25.5 -24.5t31.5 -14.5l107 -20l6 -70h-510l6 70l102 12q47 6 34 40t-68 118l-228 342h-8l-256 -387q-35 -48 -35 -74q0 -30 41 -37l90 -14l9 -70h-447z" />
<glyph unicode="Y" horiz-adv-x="1228" d="M-14 1280h499l-6 -70l-102 -12q-35 -4 -31 -39t55 -119l246 -407h10l267 454q28 46 28 72q0 32 -45 41l-78 10l-6 70h414l-6 -70l-62 -10q-41 -12 -71.5 -32.5t-67.5 -77.5l-321 -533v-448q0 -12 10 -17.5t43 -9.5l139 -12l6 -70h-567l6 70l141 12q53 6 54 29v426 l-381 602q-12 16 -34 33.5t-50 23.5l-84 14z" />
<glyph unicode="Z" horiz-adv-x="1136" d="M68 0v70l806 1126v8h-231q-137 0 -216 -6t-119 -18.5t-54 -35t-25 -57.5l-41 -186h-82v379h967v-72l-805 -1126l-2 -8l234 2q150 0 234.5 5t129.5 16.5t60.5 32t25.5 50.5l51 203h95l-43 -383h-985z" />
<glyph unicode="[" horiz-adv-x="753" d="M195 -451v1784h516v-86h-416v-1612h416v-86h-516z" />
<glyph unicode="\" horiz-adv-x="571" d="M20 1358h93l438 -1790h-92z" />
<glyph unicode="]" horiz-adv-x="753" d="M43 -365h416v1612h-416v86h516v-1784h-516v86z" />
<glyph unicode="^" d="M143 1040l228 398h78l227 -398h-55l-209 252h-4l-209 -252h-56z" />
<glyph unicode="_" horiz-adv-x="962" d="M-16 -106l6 104h983l6 -104h-995z" />
<glyph unicode="`" d="M127 1417h186l197 -377h-45z" />
<glyph unicode="a" horiz-adv-x="913" d="M70 709q0 37 35.5 78.5t91 76.5t123 58.5t129.5 23.5q86 0 144 -19.5t93 -65.5t48 -123q10 -59 10 -139q0 -25 -1 -52l-16 -391v-11q0 -61 45 -61q23 0 47.5 15.5t57.5 41.5l34 -45q-47 -59 -94 -93t-96 -34q-55 0 -93 36t-38 116h-8q-59 -63 -121 -107.5t-135 -44.5 q-51 0 -96.5 17.5t-79 49.5t-54 76t-20.5 95q0 66 29.5 116t93 93t163 78.5t236.5 68.5v19q0 82 -13.5 135t-40 85t-66.5 44t-89 12q-29 0 -57.5 -5t-52 -13.5t-38 -17.5t-14.5 -17t20.5 -31.5t20.5 -62.5q0 -35 -27.5 -64t-72.5 -29q-43 0 -70.5 25t-27.5 66zM225 242 q0 -74 45 -116t111 -42q53 0 101 29.5t100 76.5l12 308q-102 -27 -173 -55.5t-114 -59.5t-62.5 -65.5t-19.5 -75.5z" />
<glyph unicode="b" horiz-adv-x="1050" d="M-16 1303l6 51l313 73v-639h8q55 59 132 102.5t165 43.5q84 0 152.5 -34t117 -94.5t75 -141t26.5 -177.5q0 -104 -33 -197t-94 -165t-149.5 -114t-198.5 -42q-23 0 -52.5 4t-61.5 10.5t-61.5 15.5t-52.5 17h-4l-92 -59h-22v1262q0 33 -21 38zM303 162q47 -45 104.5 -79 t131.5 -34q59 0 110 27.5t90 77t60.5 120t21.5 156.5t-19.5 156.5t-56 120t-87 77t-111.5 27.5q-78 0 -140.5 -38t-103.5 -85v-526z" />
<glyph unicode="c" horiz-adv-x="905" d="M70 430q0 113 37.5 207t103 162.5t153 106.5t183.5 38q70 0 124 -16.5t92 -43t57.5 -60t19.5 -70.5q0 -59 -34 -82t-71 -23q-55 0 -86 51q-18 30 -18 68q0 28 10 61v5q-23 16 -55.5 26t-73.5 10q-61 0 -113.5 -26.5t-90.5 -74.5t-60.5 -115.5t-22.5 -151.5 q0 -86 23.5 -160t66.5 -127t102.5 -84t129.5 -31q72 0 139.5 30t122.5 95l41 -24q-55 -111 -151.5 -170.5t-217.5 -59.5q-88 0 -163.5 34t-131 95.5t-86 145.5t-30.5 184z" />
<glyph unicode="d" horiz-adv-x="1077" d="M70 430q0 104 34.5 197.5t99 162t155 108.5t200.5 40q45 0 94 -10t90 -27h5v359q0 31 -19 36l-160 37l9 49l315 45v-1300q0 -33 20 -39l146 -33l-6 -49l-305 -37v137h-7q-51 -55 -124.5 -95t-163.5 -40q-80 0 -151 34t-122 95.5t-80.5 145.5t-29.5 184zM229 483 q0 -178 80 -283.5t213 -105.5q72 0 126 26.5t100 67.5v549q-47 47 -103.5 83t-132.5 36q-63 0 -115.5 -26.5t-89.5 -75.5t-57.5 -118t-20.5 -153z" />
<glyph unicode="e" horiz-adv-x="935" d="M70 430q0 113 37.5 207t101 162.5t149.5 106.5t181 38q145 0 230 -82t85 -215q0 -27 -3 -56.5t-7 -51.5l-617 8q-2 -6 -2 -25v-24q0 -86 23.5 -160t66.5 -126t102.5 -82t129.5 -30q72 0 139.5 30t122.5 95l41 -24q-55 -111 -151.5 -170.5t-217.5 -59.5q-88 0 -163.5 34 t-131 95.5t-86 145.5t-30.5 184zM236 608q131 2 231 2h223q1 16 1 32q0 99 -45 160q-52 71 -144 70q-43 0 -85 -18t-78 -52t-63.5 -83.5t-39.5 -110.5z" />
<glyph unicode="f" horiz-adv-x="638" d="M25 821l12 90h149l2 52q4 102 40 188t94.5 147.5t133 95t156.5 33.5q72 0 125.5 -33.5t53.5 -88.5q0 -43 -26 -68t-63 -25q-43 0 -77.5 33t-51.5 94l-2 11l-51 4q-86 -35 -132 -129.5t-46 -247.5v-66h285l-15 -94h-270v-711q0 -12 11.5 -19t45.5 -9l136 -8l6 -70h-488 l6 70l86 8q51 2 52 31v704z" />
<glyph unicode="g" horiz-adv-x="940" d="M20 -274q0 47 16.5 84.5t44.5 67.5t61.5 51.5t70.5 37.5v8q-57 10 -94 53.5t-37 94.5q0 61 50 113.5t116 82.5q0 6 2 7h2q-78 35 -127 106.5t-49 175.5q0 72 27.5 132.5t75.5 106.5t114.5 71.5t144.5 25.5q68 0 124 -14.5t106 -36.5l278 -2v-119l-219 39v-10 q29 -35 46.5 -78t17.5 -105q0 -68 -28 -126t-77 -103t-114.5 -70.5t-141.5 -25.5q-29 0 -60.5 3t-52.5 9q-12 -6 -28.5 -16t-31.5 -24.5t-25.5 -31t-10.5 -34.5q0 -41 36 -68t93 -27q25 0 59.5 1t68.5 1t63.5 1.5t46.5 1.5q70 0 125 -20.5t94 -56.5t60.5 -83t21.5 -103 q0 -80 -38 -147.5t-105.5 -115.5t-160.5 -74.5t-202 -26.5q-166 0 -264.5 67.5t-98.5 176.5zM160 -227q0 -51 23.5 -91t63.5 -68t94 -42t118 -14q63 0 117.5 17t93.5 47t60.5 71t21.5 88q0 78 -48.5 128t-173.5 54h-50q-19 0 -41.5 -1t-55.5 -2t-90 -1q-16 -6 -40 -22.5 t-44.5 -40t-34.5 -54t-14 -69.5zM229 635q0 -78 23.5 -137.5t64.5 -96.5q53 -43 115 -43q86 0 133 45q74 66 74 211q0 70 -18.5 124.5t-55.5 88.5q-55 51 -129 52q-94 0 -150.5 -69t-56.5 -175z" />
<glyph unicode="h" horiz-adv-x="1081" d="M8 1303l6 51l308 73v-630h10q78 66 159.5 106.5t167.5 40.5q47 0 92.5 -15.5t79.5 -49.5q41 -41 58.5 -97.5t17.5 -130.5v-542q0 -12 10.5 -19.5t51.5 -11.5l80 -8l6 -70h-434l6 70l84 8q33 2 42 9t9 22v446q0 152 -52.5 208t-144.5 56q-72 0 -136 -33.5t-107 -68.5v-252 v-359q0 -12 10 -19t45 -9l94 -8l6 -70h-442l6 70l82 8q51 2 51 31v1105q0 37 -22 43z" />
<glyph unicode="i" horiz-adv-x="544" d="M49 821l4 56l293 67v-838q0 -12 11.5 -19t45.5 -9l86 -8l7 -70h-439l6 70l87 8q51 2 51 31v575q0 37 -3 59.5t-10.5 35t-20.5 18.5t-36 12zM147 1243q0 45 26 80t79 35t78.5 -34t25.5 -81q0 -45 -25.5 -80t-78.5 -35t-79 35t-26 80z" />
<glyph unicode="j" horiz-adv-x="516" d="M-131 -414q0 41 30.5 69t67.5 28q49 0 81 -33t48 -88q53 16 76 87.5t23 186.5v848q0 37 -3.5 59.5t-10.5 35t-20.5 18.5t-35.5 12l-82 12l4 56l293 67v-1012q-6 -109 -36 -195.5t-75 -147t-100 -92.5t-113 -32q-59 0 -103 30t-44 91zM141 1243q0 45 26 80t79 35t78.5 -34 t25.5 -81q0 -45 -25.5 -80t-78.5 -35t-79 35t-26 80z" />
<glyph unicode="k" horiz-adv-x="993" d="M8 1303l6 51l308 73v-964l217 203q47 43 80.5 77.5t33.5 57.5q0 18 -16 26.5t-41 12.5l-66 6l-6 67h426l-6 -67l-51 -8q-20 -2 -39.5 -11.5t-43.5 -26t-54.5 -42t-71.5 -62.5l-166 -151l293 -400q23 -29 40 -47t40 -20l80 -8l6 -70h-264l-107 174l-192 277l-92 -84v-261 q0 -12 10 -18t45 -10l80 -8l6 -70h-428l6 70l82 8q29 4 40 9t11 22v1105q0 37 -22 43z" />
<glyph unicode="l" horiz-adv-x="546" d="M27 1303l6 51l311 73v-1321q0 -12 11.5 -19t45.5 -9l86 -8l7 -70h-439l6 70l86 8q51 2 52 31v1105q0 37 -23 43z" />
<glyph unicode="m" horiz-adv-x="1654" d="M49 821l2 56l295 67v-147h6q76 66 155 106.5t159 40.5q45 0 89 -15.5t76 -45.5q41 -41 60 -101h8q78 72 161 117t165 45q47 0 92 -15.5t80 -49.5q76 -76 76 -224v-546q0 -12 9 -19.5t50 -11.5l80 -8l6 -70h-430l6 70l80 8q33 2 42 9t9 22v452q0 74 -14.5 124t-40 80 t-59 42t-74.5 12q-63 0 -125 -32.5t-105 -71.5q0 -6 1 -23.5t1 -37.5v-37v-23v-485q0 -12 9.5 -19.5t50.5 -11.5l86 -8l6 -70h-436l6 70l80 8q33 2 42 9t9 22v452q0 74 -14.5 124t-40 80t-59.5 42t-75 12q-63 0 -124.5 -32.5t-102.5 -67.5v-256v-357q0 -12 10.5 -19t44.5 -9 l99 -8l6 -70h-447l7 70l81 8q51 2 52 31v575q0 37 -3 59.5t-10.5 35t-20.5 18.5t-34 12z" />
<glyph unicode="n" horiz-adv-x="1110" d="M49 821l2 56l295 67v-147h10q78 66 160 106.5t168 40.5q47 0 92 -15.5t80 -49.5q41 -41 58.5 -97.5t17.5 -130.5v-542q0 -12 10 -19.5t51 -11.5l82 -8l6 -70h-436l6 70l84 8q33 2 42 9t9 22v446q0 152 -52 208t-144 56q-72 0 -136.5 -33.5t-107.5 -68.5v-252v-359 q0 -12 10.5 -19t44.5 -9l95 -8l6 -70h-443l7 70l81 8q51 2 52 31v579q0 35 -2 56.5t-9.5 34t-19.5 18.5t-33 12z" />
<glyph unicode="o" horiz-adv-x="1060" d="M72 453q0 104 36.5 194t101 156.5t152 103.5t185.5 37t180 -35t140.5 -97t91 -147t32.5 -188q0 -106 -35.5 -199.5t-99 -162t-151 -107.5t-187.5 -39t-183 37t-141.5 101.5t-90 153t-31.5 192.5zM233 498q0 -115 28 -211.5t85 -155.5q29 -29 76 -55.5t117 -26.5 q61 0 114.5 25.5t93 74t62 116t22.5 151.5q0 113 -26.5 210t-83.5 156q-29 29 -78 56.5t-117 27.5q-63 0 -116.5 -26.5t-92 -74.5t-61.5 -115.5t-23 -151.5z" />
<glyph unicode="p" horiz-adv-x="1073" d="M29 821l4 56l293 67v-156h8q55 59 132 102.5t165 43.5q84 0 152.5 -34t116.5 -94.5t74.5 -141t26.5 -177.5q0 -104 -32.5 -197t-94 -165t-148.5 -114t-198 -42q-47 0 -102 10.5t-96 26.5h-4v-403q0 -12 10 -19.5t47 -9.5l106 -8l7 -70h-459l6 70l84 8q51 2 51 31v1083 q0 35 -2 56.5t-9 34t-19.5 18.5t-32.5 12zM326 162q47 -45 104 -79t131 -34q59 0 110.5 27.5t89.5 77t60.5 120t22.5 156.5t-19.5 156.5t-56.5 120t-87 77t-112 27.5q-78 0 -140 -38t-103 -85v-526z" />
<glyph unicode="q" horiz-adv-x="1052" d="M70 430q0 104 34.5 197.5t99 162t155 108.5t200.5 40q53 0 112.5 -14.5t102.5 -34.5h4l92 57h23v-1341q0 -12 10 -19.5t51 -11.5l82 -8l6 -70h-458l6 70l106 8q33 2 42.5 9t9.5 22v501h-7q-51 -55 -124.5 -95t-163.5 -40q-80 0 -151 34t-122 95.5t-80.5 145.5t-29.5 184z M229 483q0 -178 80 -283.5t213 -105.5q72 0 126 26.5t100 67.5v549q-47 47 -103.5 83t-132.5 36q-63 0 -115.5 -26.5t-89.5 -75.5t-57.5 -118t-20.5 -153z" />
<glyph unicode="r" horiz-adv-x="757" d="M51 821l4 56l291 67v-266h8q45 74 82 125t70 83t64.5 46t64.5 14q55 0 85 -30.5t30 -73.5t-25 -74t-72 -31q-33 0 -58.5 19.5t-39.5 46.5q-25 -14 -52.5 -39t-56 -55.5t-55 -66.5t-45.5 -75v-461q0 -12 10.5 -19t44.5 -9l109 -8l6 -70h-457l7 70l81 8q51 2 52 31v579 q0 35 -2 56.5t-9.5 34t-19.5 18.5t-33 12z" />
<glyph unicode="s" horiz-adv-x="823" d="M100 276h93l43 -182q35 -25 76.5 -39t90.5 -14q37 0 74 12.5t65.5 35t46 54t17.5 70.5t-19.5 66.5t-51 49t-72.5 38t-86 32.5q-51 18 -99.5 41t-86 54.5t-61.5 76.5t-24 111q0 51 20.5 99t61.5 85t100.5 59.5t137.5 22.5q68 0 114 -10t85 -23l61 21l16 -287h-90l-39 178 q-35 23 -78.5 36.5t-84.5 13.5q-78 0 -126 -41t-48 -105q0 -37 16 -63.5t46 -48t72 -39t91 -35.5q51 -18 100 -41t88 -55.5t62.5 -77.5t23.5 -111q0 -55 -22.5 -108.5t-67.5 -93.5t-111.5 -64.5t-154.5 -24.5q-72 0 -141.5 10.5t-124.5 32.5z" />
<glyph unicode="t" horiz-adv-x="702" d="M18 821l2 60l140 84l96 129l72 -9l-2 -174h331l-14 -94h-317l-13 -545v-17q0 -89 39 -127q43 -42 125 -42q41 0 86 15.5t86 37.5l13 -53q-49 -51 -121 -84t-140 -33q-104 0 -169.5 62.5t-63.5 204.5l12 577z" />
<glyph unicode="u" horiz-adv-x="1077" d="M20 913h306l-15 -553q0 -154 52.5 -210t144.5 -56q72 0 136.5 34t107.5 71v323v285q0 14 -10.5 20.5t-45.5 10.5l-102 8l-6 67h311v-786q0 -33 19 -39l147 -33l-6 -49l-307 -37v150h-11q-78 -66 -159.5 -108t-167.5 -42q-47 0 -92.5 16.5t-79.5 51.5q-41 39 -58.5 96 t-17.5 129l4 545q0 23 -12.5 23.5t-53.5 7.5l-77 8z" />
<glyph unicode="v" horiz-adv-x="942" d="M-37 913h428l-6 -67l-76 -10q-25 -4 -36 -15.5t-1 -40.5l242 -626l211 577q16 44 16 67q0 29 -45 33l-80 15l-6 67h367l-6 -67l-68 -15q-16 -2 -28.5 -7t-22.5 -16t-19.5 -31.5t-21.5 -53.5l-283 -737h-102l-311 786q-14 33 -28.5 43t-51.5 16l-64 13z" />
<glyph unicode="w" horiz-adv-x="1413" d="M-29 913h410l-6 -67l-68 -10q-25 -4 -37 -18.5t-2 -41.5l207 -614l199 524l-31 86q-12 33 -27.5 44t-50.5 15l-63 15l-6 67h415l-6 -67l-65 -10q-27 -4 -39.5 -17.5t-1.5 -42.5l221 -618l172 563q11 38 11 63q0 11 -2 19q-7 27 -54 33l-64 10l-6 67h367l-6 -67l-64 -10 q-18 -2 -31.5 -8.5t-23.5 -17.5t-19.5 -31.5t-21.5 -55.5l-238 -737h-100l-223 596l-236 -596h-100l-270 786q-10 33 -24.5 45t-47.5 17l-62 10z" />
<glyph unicode="x" horiz-adv-x="974" d="M-6 0l6 68l70 12q33 4 56.5 25.5t70.5 74.5l221 269l-221 286q-41 53 -66 72.5t-59 23.5l-60 15l-6 67h418l-6 -67l-60 -12q-35 -4 -33.5 -22.5t33.5 -63.5l148 -203h2l154 200q35 45 35.5 64.5t-40.5 24.5l-67 12l-6 67h379l-7 -67l-69 -12q-39 -4 -61.5 -25t-67.5 -74 l-203 -243l238 -312q41 -53 65.5 -72.5t54.5 -25.5l58 -12l6 -70h-416l6 68l60 12q36 8 36 27q0 18 -30 61l-166 227h-2l-174 -225q-35 -47 -36 -66.5t40 -23.5l67 -12l7 -68h-375z" />
<glyph unicode="y" horiz-adv-x="925" d="M-37 913h422l-6 -67l-70 -10q-25 -2 -36 -14.5t1 -41.5l254 -604l195 555q11 37 11 59q0 9 -2 16q-7 22 -48 25l-76 15l-6 67h371l-6 -67l-68 -15q-33 -4 -50.5 -23.5t-43.5 -84.5l-250 -680l-98 -311q-43 -133 -96.5 -201t-143.5 -68q-61 0 -97 30t-36 77 q0 43 23.5 72.5t72.5 29.5q47 0 74 -20.5t43 -52.5q27 12 47.5 50t42.5 107l78 224v2l-356 790q-14 31 -26.5 42t-51.5 17l-60 13z" />
<glyph unicode="z" horiz-adv-x="917" d="M57 0v61l592 783h-65q-115 0 -184.5 -4t-107.5 -15.5t-54.5 -32t-22.5 -53.5l-33 -172h-90v346h737v-61l-589 -780h88q115 0 185.5 4t111.5 14t62.5 31.5t35.5 54.5l76 170h86l-82 -346h-746z" />
<glyph unicode="{" horiz-adv-x="681" d="M51 442l23 56q49 2 97 10t86 26.5t61.5 48t23.5 74.5q0 53 -17.5 97.5t-39 89.5t-40 95t-18.5 116q0 137 100.5 216t288.5 91v-68q-123 -10 -187 -65t-64 -127q0 -53 18 -97t39.5 -89.5t39 -96.5t17.5 -117q0 -51 -25.5 -96t-64.5 -78.5t-85 -53t-87 -21.5v-25 q41 -2 87 -22.5t85 -54.5t64.5 -78t25.5 -95q0 -63 -17.5 -113.5t-39 -95.5t-39.5 -89t-18 -95q0 -35 16 -68.5t49 -60.5t79 -45.5t107 -24.5v-63q-188 10 -288.5 90t-100.5 217q0 66 18.5 116t40 94t39 88t17.5 97q0 43 -23.5 73t-61.5 48.5t-86 27.5t-97 11z" />
<glyph unicode="|" horiz-adv-x="567" d="M238 -381v1790h90v-1790h-90z" />
<glyph unicode="}" horiz-adv-x="681" d="M66 -414q121 10 186 68.5t65 130.5q0 51 -17 95t-38.5 89t-40 95.5t-18.5 113.5q0 51 25.5 95t64.5 78t85 54.5t87 22.5v25q-41 2 -87 21.5t-85 53t-64.5 78.5t-25.5 96q0 66 18.5 117t40 96.5t38.5 89.5t17 97q0 72 -65.5 127t-185.5 65v68q188 -12 288.5 -91 t100.5 -216q0 -66 -17.5 -116t-39 -95t-40 -89t-18.5 -98q0 -45 23.5 -74.5t61.5 -48t86 -26.5t97 -10l23 -56l-23 -57q-49 -2 -97 -11t-86 -27.5t-61.5 -48.5t-23.5 -73q0 -53 18.5 -97t40 -88t39 -94t17.5 -116q0 -137 -100.5 -217t-288.5 -90v63z" />
<glyph unicode="~" d="M78 354q20 119 67.5 179.5t128.5 60.5q47 0 90.5 -22.5t81 -50t71.5 -51.5t61 -24q33 0 56 27t54 107h53q-20 -117 -67 -178.5t-129 -61.5q-47 0 -90 23.5t-81 51t-71 50t-61 22.5q-33 0 -56.5 -26.5t-54.5 -106.5h-53z" />
<glyph unicode="&#xa1;" horiz-adv-x="575" d="M170 1192q0 47 34 82t85 35q53 0 83.5 -35t30.5 -82q0 -45 -30.5 -79t-83.5 -34q-51 0 -85 34t-34 79zM193 45l75 829q2 12 20.5 12.5t20.5 -12.5l78 -829q4 -33 -11.5 -54.5t-70.5 -21.5h-31q-55 0 -70 21.5t-11 54.5z" />
<glyph unicode="&#xa2;" horiz-adv-x="903" d="M70 446q0 111 37.5 202t103 156.5t152 102.5t184.5 37q25 0 47 -2t43 -6q2 0 16.5 56.5t32.5 125.5q23 82 49 182h74l-102 -385q63 -29 96 -70.5t33 -88.5q0 -41 -27 -65.5t-55 -24.5q-68 0 -99 59l-166 -619q27 -8 66 -8q70 0 136.5 33t119.5 94l41 -22 q-59 -113 -153.5 -173.5t-209.5 -60.5h-18q-8 0 -16 2l-84 -311h-74l86 326q-72 18 -129 62t-98 105.5t-63.5 136t-22.5 156.5zM225 504q0 -131 53.5 -230.5t143.5 -144.5l190 715q-43 23 -106 22q-59 0 -110.5 -24.5t-89.5 -70.5t-59.5 -113.5t-21.5 -153.5z" />
<glyph unicode="&#xa3;" horiz-adv-x="946" d="M8 14q154 47 214.5 140.5t60.5 228.5q0 35 -1 72t-3 75h-207l6 80h196q-4 61 -6 116.5t-2 96.5q0 104 28 190.5t80 148t128 95t170 33.5q100 0 159.5 -41t59.5 -112q0 -41 -28.5 -69t-67.5 -28q-51 0 -82 40t-19 104q-16 10 -39.5 18t-54.5 8q-39 0 -72.5 -15t-58.5 -53 t-38 -100.5t-13 -156.5q0 -47 3 -119t7 -156h334l6 -80h-338q2 -23 2 -45v-45q-2 -78 -20.5 -148.5t-49.5 -123.5v-10q29 -6 67 -18.5t79 -26t83 -22.5t79 -9q80 0 110 35q29 29 49.5 68.5t38.5 86.5l45 -12q2 -55 -11 -110.5t-43 -99.5t-78 -71.5t-117 -27.5 q-55 0 -104.5 19.5t-92.5 45t-80 54t-65 47.5q-47 -59 -119 -104.5t-172 -67.5z" />
<glyph unicode="&#xa4;" horiz-adv-x="1056" d="M43 434l6 80h119q-2 23 -3 46.5t-1 45.5q0 23 1 42.5t3 41.5h-125l6 80h129q20 115 66.5 209t115 161.5t156.5 105.5t191 38q66 0 121 -13.5t97 -37t65.5 -54t23.5 -65.5q0 -39 -24.5 -65.5t-65.5 -26.5q-53 0 -84 46t-39 101q-29 18 -59.5 25.5t-69.5 7.5 q-143 0 -232.5 -117.5t-111.5 -314.5h424l6 -80h-436v-49q0 -68 6 -127h424l6 -80h-416q41 -174 137 -260t217 -86q92 0 164 44t125 108l41 -23q-59 -113 -152.5 -180.5t-228.5 -67.5q-88 0 -163.5 34t-136 94.5t-102.5 146.5t-63 190h-137z" />
<glyph unicode="&#xa5;" horiz-adv-x="1253" d="M20 1280h488l-6 -70l-103 -12q-35 -4 -30.5 -39t57.5 -119l233 -389h9l247 436q29 53 24 79t-42 34l-78 10l-6 70h412l-6 -70l-60 -10q-41 -12 -71.5 -32.5t-65.5 -77.5l-272 -463h346l6 -82h-387v-174h381l6 -82h-387v-162q0 -31 37 -37l159 -20l7 -70h-564l6 70l160 20 q37 6 37 37v162h-377l6 82h371v174h-377l6 82h332l-321 512q-10 16 -33 33.5t-51 23.5l-86 14z" />
<glyph unicode="&#xa6;" horiz-adv-x="962" d="M10 195q0 57 33 89.5t78 32.5q41 0 70.5 -25.5t29.5 -68.5q0 -33 -11 -57.5t-28 -40.5q16 -27 60.5 -53.5t119.5 -26.5q119 0 179.5 84t60.5 260v764q0 31 -35 37l-159 20l-7 70h549l-6 -70l-137 -20q-35 -6 -35 -37v-723q0 -119 -31.5 -207t-87 -144t-130 -84 t-161.5 -28q-90 0 -156.5 20.5t-109.5 52.5t-64.5 73t-21.5 82z" />
<glyph unicode="&#xa7;" horiz-adv-x="880" d="M61 666q0 82 51.5 145t123.5 100q-43 68 -43 144q0 45 22.5 90t63 82t96 59.5t119.5 22.5q43 0 83.5 -10.5t71.5 -29t50.5 -46t19.5 -62.5q0 -41 -25.5 -66.5t-64.5 -25.5q-49 0 -81 38t-46 107q-31 14 -74 15q-51 0 -87 -33t-36 -96q0 -41 20.5 -76t54.5 -66.5t78 -60.5 t89 -57q49 -31 97 -63t87 -68.5t62.5 -81.5t23.5 -105q0 -84 -51 -147.5t-123 -100.5q43 -63 43 -141q0 -49 -23.5 -97t-64.5 -86t-99.5 -60.5t-125.5 -22.5q-43 0 -83 10t-72 28.5t-51.5 46.5t-19.5 62q0 41 26 66.5t65 25.5q49 0 80.5 -37.5t46.5 -107.5q20 -10 40.5 -12 t43.5 -2q57 0 90.5 36.5t33.5 102.5q0 41 -20.5 77t-54 67.5t-76.5 60t-90 57.5q-49 31 -97.5 62.5t-87 69.5t-62.5 83.5t-24 102.5zM172 731q0 -76 55.5 -130t130.5 -103q66 -41 135.5 -85t118.5 -100q94 57 95 144q0 39 -15.5 70.5t-41 59t-59.5 53.5t-71 50 q-66 43 -135.5 85t-116.5 97q-39 -23 -67.5 -61.5t-28.5 -79.5z" />
<glyph unicode="&#xa8;" d="M92 1223q0 47 30 83.5t83 36.5t82.5 -36.5t29.5 -83.5t-29.5 -84t-82.5 -37t-83 37t-30 84zM502 1223q0 47 29.5 83.5t82.5 36.5t83 -36.5t30 -83.5t-29.5 -84t-83.5 -37q-53 0 -82.5 37t-29.5 84z" />
<glyph unicode="&#xa9;" horiz-adv-x="1503" d="M82 639q0 139 52 261t143.5 213t213 144.5t261.5 53.5q139 0 261 -53.5t213 -144.5t143 -213t52 -261t-52 -261t-143 -213t-213 -143.5t-261 -52.5t-261 52.5t-213.5 143.5t-143.5 213t-52 261zM156 639q0 -123 47 -232.5t128 -191.5t189.5 -130t231.5 -48t231.5 48 t189 130t128 191.5t47.5 232.5t-47.5 233.5t-128 192.5t-189.5 130t-231 48q-123 0 -231.5 -48t-189.5 -130t-128 -192.5t-47 -233.5zM389 627q0 86 28.5 158.5t79 125t121 81t154.5 28.5q51 0 93 -6t73 -17l92 23v-260h-53l-43 151q-27 18 -70 30.5t-102 12.5 q-55 0 -102.5 -21.5t-82 -59t-54 -93t-19.5 -123.5q0 -147 74.5 -241t214.5 -94q37 0 71.5 8t57.5 24l63 162h55l-26 -242l-58 13q-35 -12 -86 -20.5t-94 -8.5q-92 0 -163.5 27.5t-121 77t-76 117t-26.5 147.5z" />
<glyph unicode="&#xaa;" horiz-adv-x="692" d="M57 1137q0 29 29 58.5t74 54t99 40t106 15.5q115 0 166 -60.5t47 -163.5l-13 -327q-2 -39 9.5 -57.5t43.5 -18.5q33 0 72 22l6 -36q-23 -31 -63.5 -54.5t-85.5 -23.5q-49 0 -75 28.5t-32 77.5h-4q-49 -45 -105.5 -75.5t-103.5 -30.5q-63 0 -115.5 43t-52.5 116 q0 98 100.5 157t286.5 93l3 68q6 80 -43.5 126t-120.5 46q-37 0 -69 -15.5t-32 -25.5q0 -4 12.5 -22.5t12.5 -45.5q0 -29 -19.5 -47t-54.5 -18t-56.5 20.5t-21.5 55.5zM190 791q0 -45 29 -76t76 -31q35 0 76 20.5t67 43.5l6 200q-111 -23 -182.5 -59.5t-71.5 -97.5z" />
<glyph unicode="&#xab;" horiz-adv-x="997" d="M68 410v86l444 295l18 -41l-297 -297l297 -297l-18 -41zM453 410v86l442 315l18 -41l-315 -317l315 -318l-18 -41z" />
<glyph unicode="&#xac;" horiz-adv-x="913" d="M70 709q0 37 35.5 78.5t91 76.5t123 58.5t129.5 23.5q86 0 144 -19.5t93 -65.5t48.5 -122.5t8.5 -191.5l-16 -391q-4 -72 45 -72q23 0 47.5 15.5t57.5 41.5l34 -45q-47 -59 -94 -93t-96 -34q-55 0 -93 36t-38 116h-8q-59 -63 -121 -107.5t-135 -44.5q-51 0 -96.5 17.5 t-79 49.5t-54 76t-20.5 95q0 66 29.5 116t93 93t163 78.5t236.5 68.5v19q0 82 -13.5 135t-40 85t-66.5 44t-89 12q-29 0 -57.5 -5t-52 -13.5t-38 -17.5t-14.5 -17t20.5 -31.5t20.5 -62.5q0 -35 -27.5 -64t-72.5 -29q-43 0 -70.5 25t-27.5 66zM225 242q0 -74 45 -116t111 -42 q53 0 101 29.5t100 76.5l12 308q-102 -27 -173 -55.5t-114 -59.5t-62.5 -65.5t-19.5 -75.5z" />
<glyph unicode="&#xad;" horiz-adv-x="671" d="M70 428l6 104h524l6 -104h-536z" />
<glyph unicode="&#xae;" horiz-adv-x="1503" d="M82 639q0 139 52 261t143.5 213t213 144.5t261.5 53.5q139 0 261 -53.5t213 -144.5t143 -213t52 -261t-52 -261t-143 -213t-213 -143.5t-261 -52.5t-261 52.5t-213.5 143.5t-143.5 213t-52 261zM156 639q0 -123 47 -232.5t128 -191.5t189.5 -130t231.5 -48t231.5 48 t189 130t128 191.5t47.5 232.5t-47.5 233.5t-128 192.5t-189.5 130t-231 48q-123 0 -231.5 -48t-189.5 -130t-128 -192.5t-47 -233.5zM440 281l6 59l76 12q20 2 21 23v538q0 20 -21 23l-76 12l-6 60h324q70 0 120 -15.5t82.5 -42t48 -59.5t15.5 -70q0 -78 -47 -131t-131 -80 l145 -221q20 -25 29.5 -31t22.5 -10l69 -8l6 -59h-190l-45 81l-141 224l-97 4v-215q0 -20 21 -23l88 -12l4 -59h-324zM651 655l94 -10q72 6 119 44t47 114q0 150 -198 141l-62 -2v-287z" />
<glyph unicode="&#xaf;" d="M160 1104l6 84h493l7 -84h-506z" />
<glyph unicode="&#xb0;" horiz-adv-x="841" d="M80 987q0 70 23.5 132.5t67.5 108.5t107.5 73.5t141.5 27.5q80 0 142.5 -27.5t106.5 -73.5t67.5 -108.5t23.5 -132.5q0 -68 -23.5 -129t-67.5 -107t-106.5 -74t-142.5 -28q-78 0 -141.5 28t-107.5 74t-67.5 107t-23.5 129zM174 987q0 -49 16.5 -95t48 -82t77.5 -56.5 t104 -20.5q57 0 103 20.5t78 56.5t49.5 82t17.5 95q0 53 -17.5 100.5t-49.5 82t-78 55t-103 20.5t-103.5 -20.5t-78 -55t-48 -82t-16.5 -100.5z" />
<glyph unicode="&#xb1;" horiz-adv-x="1503" d="M82 639q0 139 52 261t143.5 213t213 144.5t261.5 53.5q139 0 261 -53.5t213 -144.5t143 -213t52 -261t-52 -261t-143 -213t-213 -143.5t-261 -52.5t-261 52.5t-213.5 143.5t-143.5 213t-52 261zM156 639q0 -123 47 -232.5t128 -191.5t189.5 -130t231.5 -48t231.5 48 t189 130t128 191.5t47.5 232.5t-47.5 233.5t-128 192.5t-189.5 130t-231 48q-123 0 -231.5 -48t-189.5 -130t-128 -192.5t-47 -233.5zM487 281l5 59l77 12q20 2 21 23v540q0 18 -21 21l-77 14l-5 58h293q147 0 217 -57.5t70 -145.5q0 -55 -22.5 -101.5t-60.5 -78t-88 -50 t-105 -18.5q-27 0 -48.5 1t-46.5 5v-188q0 -18 21 -23l98 -12l2 -59h-330zM696 627q23 -4 42.5 -7.5t47.5 -3.5q78 0 124 45.5t46 122.5q0 78 -51 120t-143 40h-66v-317z" />
<glyph unicode="&#xb2;" horiz-adv-x="954" d="M68 106q106 82 201.5 156t166 141.5t111.5 132t41 126.5q0 39 -14.5 74.5t-42 62t-68.5 43t-92 16.5q-76 0 -138.5 -43t-101.5 -98l-39 24q47 117 141.5 182.5t219.5 65.5q61 0 115.5 -19.5t96.5 -55t66.5 -86t24.5 -111.5q0 -76 -37 -142.5t-107.5 -133t-172 -140.5 t-232.5 -166v-10h117q147 0 233 3t135 15.5t70.5 35t36.5 59.5l37 92h63l-25 -330h-798z" />
<glyph unicode="&#xb3;" horiz-adv-x="856" d="M25 -270q0 43 27.5 69.5t68.5 26.5q55 0 95 -46t50 -102q29 -6 58 -6q57 0 112.5 22.5t98.5 63.5t69.5 97.5t26.5 126.5q0 125 -73 199.5t-198 74.5q-41 0 -85 -8t-87 -29l-22 53q68 43 134.5 86t120.5 88.5t88 95.5t34 111q0 41 -14.5 79t-42 66.5t-67.5 46t-89 17.5 q-80 0 -141.5 -44t-102.5 -99q-2 0 -9 4t-15.5 8t-13.5 8t-3 4q47 117 150.5 181.5t226.5 64.5q66 0 119 -20.5t92 -55t60.5 -83t21.5 -103.5q0 -104 -67.5 -187t-209.5 -167v-4q78 0 142.5 -22.5t111.5 -62.5t74 -97.5t27 -129.5q0 -90 -43 -174t-116 -149.5t-169 -105.5 t-203 -40q-113 0 -175 43.5t-62 98.5z" />
<glyph unicode="&#xb4;" d="M307 1040l193 377h192l-338 -377h-47z" />
<glyph unicode="&#xb5;" horiz-adv-x="940" d="M20 -274q0 47 16.5 84.5t44.5 67.5t61.5 51.5t70.5 37.5v8q-57 10 -94 53.5t-37 94.5q0 61 50 113.5t116 82.5q0 6 2 7h2q-78 35 -127 106.5t-49 175.5q0 72 27.5 132.5t75.5 106.5t114.5 71.5t144.5 25.5q68 0 124 -14.5t106 -36.5l278 -2v-119l-219 39v-10 q29 -35 46.5 -78t17.5 -105q0 -68 -28 -126t-77 -103t-114.5 -70.5t-141.5 -25.5q-29 0 -60.5 3t-52.5 9q-12 -6 -28.5 -16t-31.5 -24.5t-25.5 -31t-10.5 -34.5q0 -41 36 -68t93 -27q25 0 59.5 1t68.5 1t63.5 1.5t46.5 1.5q70 0 125 -20.5t94 -56.5t60.5 -83t21.5 -103 q0 -80 -38 -147.5t-105.5 -115.5t-160.5 -74.5t-202 -26.5q-166 0 -264.5 67.5t-98.5 176.5zM160 -227q0 -51 23.5 -91t63.5 -68t94 -42t118 -14q63 0 117.5 17t93.5 47t60.5 71t21.5 88q0 78 -48.5 128t-173.5 54h-50q-19 0 -41.5 -1t-55.5 -2t-90 -1q-16 -6 -40 -22.5 t-44.5 -40t-34.5 -54t-14 -69.5zM229 635q0 -78 23.5 -137.5t64.5 -96.5q53 -43 115 -43q86 0 133 45q74 66 74 211q0 70 -18.5 124.5t-55.5 88.5q-55 51 -129 52q-94 0 -150.5 -69t-56.5 -175z" />
<glyph unicode="&#xb6;" horiz-adv-x="1011" d="M82 905q0 92 31.5 163t90 118t140.5 70.5t180 23.5h312v-1346h-99v627q-53 -16 -101 -22.5t-85 -6.5q-119 0 -208 29t-146.5 80t-86 118.5t-28.5 145.5z" />
<glyph unicode="&#xb7;" horiz-adv-x="462" d="M106 465q0 49 36 86t94 37q55 0 89.5 -37t34.5 -86t-34.5 -88t-89.5 -39q-57 0 -93.5 39t-36.5 88z" />
<glyph unicode="&#xb8;" d="M209 -502q164 23 241.5 67t77.5 113q0 49 -43 80t-131 31q-29 0 -58.5 -3t-59.5 -7v35l213 225h81l-151 -160q117 4 190.5 -43t73.5 -137q0 -98 -107.5 -163.5t-310.5 -82.5z" />
<glyph unicode="&#xb9;" horiz-adv-x="749" d="M86 864l6 60l369 59v-856q0 -31 37 -37l149 -20l6 -70h-522l6 70l146 20q35 12 34 37v725z" />
<glyph unicode="&#xba;" horiz-adv-x="788" d="M49 942q0 74 25.5 140.5t72 115.5t111 78t139.5 29q78 0 141.5 -29t107.5 -77t67.5 -113.5t23.5 -139.5t-25.5 -139.5t-70.5 -114.5t-108.5 -77.5t-141.5 -28.5t-141.5 27.5t-107.5 76.5t-68.5 113.5t-24.5 138.5zM190 979q0 -92 24 -165t65 -114q23 -23 55.5 -36 t73.5 -13q82 0 135 67.5t53 190.5q0 90 -21.5 162t-62.5 113q-23 23 -56.5 40t-74.5 17q-84 0 -137.5 -69.5t-53.5 -192.5z" />
<glyph unicode="&#xbb;" horiz-adv-x="997" d="M86 135l315 318l-315 317l20 41l441 -315v-86l-441 -316zM469 156l299 297l-299 297l18 41l445 -295v-86l-445 -295z" />
<glyph unicode="&#xbc;" horiz-adv-x="1228" d="M25 821l12 90h149l2 33q10 102 46 187.5t93.5 146.5t130 95t154.5 34q72 0 125.5 -34t53.5 -89q0 -43 -26 -67.5t-63 -24.5q-43 0 -77.5 32.5t-51.5 94.5l-2 10l-51 4q-86 -35 -132 -129t-46 -248v-45h432l2 52q6 102 42 188t93.5 147.5t133 95t157.5 33.5 q72 0 125 -33.5t53 -88.5q0 -43 -25.5 -68t-64.5 -25q-41 0 -76.5 33t-50.5 94l-2 11l-53 4q-86 -35 -131 -129.5t-45 -247.5v-66h282l-14 -94h-268v-711q0 -12 10 -19t47 -9l133 -8l6 -70h-485l6 70l84 8q18 2 34.5 8t16.5 23v710h-442v-692q0 -33 37 -39l162 -18l6 -70 h-494l6 70l103 18q35 6 35 39v686z" />
<glyph unicode="&#xbd;" horiz-adv-x="1722" d="M25 821l12 90h149l2 33q10 102 46 187.5t93.5 146.5t130 95t154.5 34q72 0 125.5 -34t53.5 -89q0 -43 -26 -67.5t-63 -24.5q-43 0 -77.5 34t-51.5 93l-2 10l-51 4q-86 -35 -132 -129t-46 -248v-45h432l2 52q6 102 41 188t95.5 147.5t142.5 95t182 33.5q78 0 143 -38 l140 38v-1321q0 -12 11 -19t46 -9l86 -8l6 -70h-438l6 70l86 8q51 2 51 31v708h-442v-711q0 -12 10 -19t47 -9l133 -8l6 -70h-485l6 70l84 8q18 2 34.5 8t16.5 23v710h-442v-692q0 -33 37 -39l162 -18l6 -70h-494l6 70l103 18q35 6 35 39v686zM932 911h442v285q-6 -2 -20 -2 q-96 0 -127 119l-2 10l-117 23q-86 -35 -131 -125.5t-45 -243.5v-66z" />
<glyph unicode="&#xbe;" horiz-adv-x="1718" d="M25 821l12 90h149l2 33q10 102 46 187.5t93.5 146.5t130 95t154.5 34q72 0 125.5 -34t53.5 -89q0 -43 -26 -67.5t-63 -24.5q-43 0 -77.5 34t-51.5 93l-2 10l-51 4q-86 -35 -132 -129t-46 -248v-45h432l2 52q6 102 41 188t95.5 147.5t142.5 95t182 33.5q35 0 72 -9 t66.5 -26.5t49 -44t19.5 -61.5q0 -41 -25.5 -66.5t-64.5 -25.5q-96 0 -127 119l-2 10l-117 23q-86 -35 -131 -125.5t-45 -243.5v-66h356l232 31v-836q0 -12 11 -19t46 -9l86 -8l6 -70h-438l6 70l86 8q51 2 51 31v708h-442v-711q0 -12 10 -19t47 -9l133 -8l6 -70h-485l6 70 l84 8q18 2 34.5 8t16.5 23v710h-442v-692q0 -33 37 -39l162 -18l6 -70h-494l6 70l103 18q35 6 35 39v686z" />
<glyph unicode="&#xbf;" horiz-adv-x="731" d="M86 307q0 63 16.5 105.5t45 71t68.5 49t85 38.5q35 12 65.5 25.5t55 31t39 41t14.5 56.5q0 51 -31.5 93t-76.5 83h61q18 -14 44 -37.5t47.5 -53.5t36.5 -64.5t15 -73.5q0 -53 -18 -90t-50 -65t-74 -48t-89 -41q-35 -14 -66.5 -27.5t-56 -30t-39 -36t-14.5 -45.5 q0 -68 87 -116t230 -48q37 0 70 4t55 8q10 -10 14.5 -27.5t4.5 -33.5q0 -47 -41 -77t-111 -30q-84 0 -154.5 30t-123 77t-81 107.5t-28.5 123.5zM307 1192q0 47 32 82t83 35q53 0 87 -35t34 -82q0 -45 -34 -79t-87 -34q-51 0 -83 34t-32 79z" />
<glyph unicode="&#xc0;" horiz-adv-x="1202" d="M-33 0l6 70l82 14q23 6 40.5 16.5t36 40t41 86t54.5 150.5l285 803v65l170 72l395 -1188q10 -33 51 -39l121 -20l6 -70h-526l6 70l117 14q20 4 30.5 11t11.5 23.5t-6 45.5t-22 74l-75 225h-443l-74 -223q-29 -84 -29.5 -116t36.5 -40l102 -14l6 -70h-422zM279 1763h186 l197 -377h-46zM377 547h387l-182 575h-11z" />
<glyph unicode="&#xc1;" horiz-adv-x="1202" d="M-33 0l6 70l82 14q23 6 40.5 16.5t36 40t41 86t54.5 150.5l285 803v65l170 72l395 -1188q10 -33 51 -39l121 -20l6 -70h-526l6 70l117 14q20 4 30.5 11t11.5 23.5t-6 45.5t-22 74l-75 225h-443l-74 -223q-29 -84 -29.5 -116t36.5 -40l102 -14l6 -70h-422zM377 547h387 l-182 575h-11zM524 1386l193 377h192l-338 -377h-47z" />
<glyph unicode="&#xc2;" horiz-adv-x="1202" d="M-33 0l6 70l82 14q23 6 40.5 16.5t36 40t41 86t54.5 150.5l285 803v65l170 72l395 -1188q10 -33 51 -39l121 -20l6 -70h-526l6 70l117 14q20 4 30.5 11t11.5 23.5t-6 45.5t-22 74l-75 225h-443l-74 -223q-29 -84 -29.5 -116t36.5 -40l102 -14l6 -70h-422zM334 1386 l227 398h78l227 -398h-55l-209 252h-4l-209 -252h-55zM377 547h387l-182 575h-11z" />
<glyph unicode="&#xc3;" horiz-adv-x="1202" d="M-33 0l6 70l82 14q23 6 40.5 16.5t36 40t41 86t54.5 150.5l285 803v65l170 72l395 -1188q10 -33 51 -39l121 -20l6 -70h-526l6 70l117 14q20 4 30.5 11t11.5 23.5t-6 45.5t-22 74l-75 225h-443l-74 -223q-29 -84 -29.5 -116t36.5 -40l102 -14l6 -70h-422zM268 1425 q20 119 67.5 179.5t129.5 60.5q47 0 90 -22.5t81 -50t71.5 -51t60.5 -23.5q33 0 56.5 26.5t54.5 106.5h53q-20 -117 -67.5 -178.5t-129.5 -61.5q-47 0 -90 23.5t-81 51t-70.5 50.5t-61.5 23q-33 0 -56.5 -27t-53.5 -107h-54zM377 547h387l-182 575h-11z" />
<glyph unicode="&#xc4;" horiz-adv-x="1202" d="M-33 0l6 70l82 14q23 6 40.5 16.5t36 40t41 86t54.5 150.5l285 803v65l170 72l395 -1188q10 -33 51 -39l121 -20l6 -70h-526l6 70l117 14q20 4 30.5 11t11.5 23.5t-6 45.5t-22 74l-75 225h-443l-74 -223q-29 -84 -29.5 -116t36.5 -40l102 -14l6 -70h-422zM283 1556 q0 47 29.5 84t82.5 37t83 -36.5t30 -84.5q0 -47 -29.5 -83.5t-83.5 -36.5q-53 0 -82.5 36.5t-29.5 83.5zM377 547h387l-182 575h-11zM692 1556q0 47 30 84t83 37t83 -36.5t30 -84.5q0 -47 -30 -83.5t-83 -36.5t-83 36.5t-30 83.5z" />
<glyph unicode="&#xc5;" horiz-adv-x="1202" d="M-33 0l6 70l82 14q23 6 40.5 16.5t36 40t41 86t54.5 150.5l308 864q-51 20 -80 66.5t-29 103.5q0 76 48 130t134 54t134.5 -54t48.5 -130q0 -51 -23 -94t-63 -68l372 -1120q10 -33 51 -39l121 -20l6 -70h-526l6 70l117 14q20 4 30.5 11t11.5 23.5t-6 45.5t-22 74l-75 225 h-443l-74 -223q-29 -84 -29.5 -116t36.5 -40l102 -14l6 -70h-422zM377 547h387l-182 577h-11zM487 1411q0 -53 32 -92t89 -39q59 0 91 39t32 92q0 51 -31.5 90t-91.5 39q-57 0 -89 -39t-32 -90z" />
<glyph unicode="&#xc6;" horiz-adv-x="1646" d="M-106 0l6 70l86 14q25 6 44 15.5t42.5 38t56.5 85t84 156.5l381 725q43 80 -41 94l-88 12l-6 70h1079v-371h-80l-45 207q-8 31 -20.5 48.5t-55.5 26.5t-127 11t-235 2h-62v-514h60q68 0 106.5 1t60 5t30 11.5t12.5 21.5l47 137h65l-41 -426h-65l-14 131q-2 12 -7.5 20.5 t-26 14.5t-60.5 8t-111 2h-56v-540h35q166 0 259 3t140.5 12t62.5 26.5t24 46.5l51 198h92l-39 -362h-950l6 70l125 20q37 6 37 37v336h-396l-102 -201q-27 -55 -41 -88t-17 -51.5t5 -25.5t22 -11l103 -16l6 -70h-442zM403 547h353v647h-19z" />
<glyph unicode="&#xc7;" horiz-adv-x="1366" d="M94 621q0 160 54.5 286.5t149.5 215.5t224 137.5t279 48.5q90 0 164.5 -12.5t119.5 -26.5l156 33v-416h-86l-53 266q-53 31 -126 53.5t-188 22.5q-113 0 -206 -44t-160.5 -121t-104 -183.5t-36.5 -233.5q0 -131 35.5 -241.5t103 -190.5t166 -124t225.5 -44 q76 0 143.5 16.5t120.5 45.5l86 276h90l-49 -387l-94 20q-51 -16 -127 -30.5t-154 -18.5l-86 -90q117 4 191 -43t74 -137q0 -98 -107.5 -163.5t-310.5 -82.5l-17 45q164 23 242 67t78 113q0 49 -43 80t-131 31q-29 0 -58.5 -3t-60.5 -7v35l147 157q-139 6 -257.5 53.5 t-206.5 130.5t-137.5 201t-49.5 265z" />
<glyph unicode="&#xc8;" horiz-adv-x="1193" d="M86 0l6 70l107 12q53 6 53 29v1060q0 12 -10.5 17.5t-42.5 9.5l-107 12l-6 70h983v-371h-88l-45 207q-8 31 -21.5 48.5t-56.5 26.5t-127 11t-233 2h-78v-514h78q66 0 103.5 1t59 5t30.5 11.5t14 21.5l45 137h71l-43 -426h-67l-17 131q0 12 -5 20.5t-25.5 14.5t-60.5 8 t-109 2h-74v-540h55q164 0 255 3t138 12t62.5 26.5t25.5 46.5l52 198h100l-39 -362h-983zM301 1763h186l197 -377h-45z" />
<glyph unicode="&#xc9;" horiz-adv-x="1193" d="M86 0l6 70l107 12q53 6 53 29v1060q0 12 -10.5 17.5t-42.5 9.5l-107 12l-6 70h983v-371h-88l-45 207q-8 31 -21.5 48.5t-56.5 26.5t-127 11t-233 2h-78v-514h78q66 0 103.5 1t59 5t30.5 11.5t14 21.5l45 137h71l-43 -426h-67l-17 131q0 12 -5 20.5t-25.5 14.5t-60.5 8 t-109 2h-74v-540h55q164 0 255 3t138 12t62.5 26.5t25.5 46.5l52 198h100l-39 -362h-983zM539 1386l192 377h193l-338 -377h-47z" />
<glyph unicode="&#xca;" horiz-adv-x="1193" d="M86 0l6 70l107 12q53 6 53 29v1060q0 12 -10.5 17.5t-42.5 9.5l-107 12l-6 70h983v-371h-88l-45 207q-8 31 -21.5 48.5t-56.5 26.5t-127 11t-233 2h-78v-514h78q66 0 103.5 1t59 5t30.5 11.5t14 21.5l45 137h71l-43 -426h-67l-17 131q0 12 -5 20.5t-25.5 14.5t-60.5 8 t-109 2h-74v-540h55q164 0 255 3t138 12t62.5 26.5t25.5 46.5l52 198h100l-39 -362h-983zM332 1386l227 398h78l227 -398h-55l-209 252h-4l-209 -252h-55z" />
<glyph unicode="&#xcb;" horiz-adv-x="1193" d="M86 0l6 70l107 12q53 6 53 29v1060q0 12 -10.5 17.5t-42.5 9.5l-107 12l-6 70h983v-371h-88l-45 207q-8 31 -21.5 48.5t-56.5 26.5t-127 11t-233 2h-78v-514h78q66 0 103.5 1t59 5t30.5 11.5t14 21.5l45 137h71l-43 -426h-67l-17 131q0 12 -5 20.5t-25.5 14.5t-60.5 8 t-109 2h-74v-540h55q164 0 255 3t138 12t62.5 26.5t25.5 46.5l52 198h100l-39 -362h-983zM281 1556q0 47 29.5 84t82.5 37t83 -36.5t30 -84.5q0 -47 -30 -83.5t-83 -36.5t-82.5 36.5t-29.5 83.5zM690 1556q0 47 30 84t83 37t82.5 -36.5t29.5 -84.5q0 -47 -29.5 -83.5 t-82.5 -36.5t-83 36.5t-30 83.5z" />
<glyph unicode="&#xcc;" horiz-adv-x="718" d="M16 1763h187l196 -377h-45zM90 0l6 70l127 12q53 6 53 29v1060q0 12 -10 17.5t-43 9.5l-127 12l-6 70h541l-6 -70l-127 -12q-53 -6 -54 -29v-1060q0 -12 11.5 -17.5t42.5 -9.5l127 -12l6 -70h-541z" />
<glyph unicode="&#xcd;" horiz-adv-x="718" d="M90 0l6 70l127 12q53 6 53 29v1060q0 12 -10 17.5t-43 9.5l-127 12l-6 70h541l-6 -70l-127 -12q-53 -6 -54 -29v-1060q0 -12 11.5 -17.5t42.5 -9.5l127 -12l6 -70h-541zM322 1386l192 377h193l-338 -377h-47z" />
<glyph unicode="&#xce;" horiz-adv-x="718" d="M90 0l6 70l127 12q53 6 53 29v1060q0 12 -10 17.5t-43 9.5l-127 12l-6 70h541l-6 -70l-127 -12q-53 -6 -54 -29v-1060q0 -12 11.5 -17.5t42.5 -9.5l127 -12l6 -70h-541zM92 1386l227 398h78l228 -398h-56l-209 252h-4l-209 -252h-55z" />
<glyph unicode="&#xcf;" horiz-adv-x="718" d="M41 1563q0 47 29.5 83.5t83.5 36.5q53 0 82.5 -36.5t29.5 -83.5t-29.5 -84t-82.5 -37t-83 37t-30 84zM90 0l6 70l127 12q53 6 53 29v1060q0 12 -10 17.5t-43 9.5l-127 12l-6 70h541l-6 -70l-127 -12q-53 -6 -54 -29v-1060q0 -12 11.5 -17.5t42.5 -9.5l127 -12l6 -70h-541 zM451 1563q0 47 29.5 83.5t82.5 36.5t83 -36.5t30 -83.5t-30 -84t-83 -37t-82.5 37t-29.5 84z" />
<glyph unicode="&#xd0;" horiz-adv-x="1370" d="M68 614l6 80h178v459q0 31 -37 37l-125 20l-6 70l444 6q172 2 311.5 -44t239 -129t153.5 -197.5t54 -249.5q0 -143 -47 -265t-141 -211.5t-237.5 -139.5t-334.5 -50h-442l6 70l125 20q37 6 37 37v487h-184zM410 102l165 -26q127 -2 226.5 38t169 112.5t106.5 172 t37 213.5q0 135 -41 245t-120 187.5t-195.5 119.5t-270.5 42h-77v-512h254l6 -80h-260v-512z" />
<glyph unicode="&#xd1;" horiz-adv-x="1505" d="M76 0l6 70l123 16q23 4 36 12t19 38t8 86.5t2 154.5v676q0 66 -14 94.5t-49 44.5l-117 18l-6 70h354l738 -1032h6v655q0 98 -2 154.5t-8.5 86.5t-19.5 38t-36 12l-123 16l-6 70h473l-6 -70l-123 -16q-23 -4 -36 -12t-20 -38t-9 -86.5t-2 -154.5v-919h-99l-805 1126h-8 v-733q0 -98 2 -154.5t8.5 -86.5t19.5 -38t36 -12l123 -16l6 -70h-471zM422 1425q20 119 67.5 179.5t128.5 60.5q47 0 90.5 -22.5t81 -50t71.5 -51t61 -23.5q33 0 56 26.5t54 106.5h53q-20 -117 -67 -178.5t-129 -61.5q-47 0 -90 23.5t-81 51t-71 50.5t-61 23 q-33 0 -56.5 -27t-54.5 -107h-53z" />
<glyph unicode="&#xd2;" horiz-adv-x="1513" d="M94 629q0 137 50.5 260t139.5 216t210.5 147.5t265.5 54.5q141 0 261 -48.5t209 -135.5t139 -208.5t50 -269.5q0 -137 -50 -260t-139 -215t-211 -146.5t-265 -54.5q-141 0 -262 48.5t-209 134.5t-138.5 208t-50.5 269zM281 651q0 -143 38.5 -256.5t105.5 -191.5t154 -120 t181 -42q96 0 181 39t150.5 113.5t103.5 183t38 246.5q0 143 -40 256.5t-105.5 191.5t-152.5 120t-183 42q-94 0 -180.5 -39t-151 -113.5t-102 -182.5t-37.5 -247zM453 1763h186l197 -377h-45z" />
<glyph unicode="&#xd3;" horiz-adv-x="1513" d="M94 629q0 137 50.5 260t139.5 216t210.5 147.5t265.5 54.5q141 0 261 -48.5t209 -135.5t139 -208.5t50 -269.5q0 -137 -50 -260t-139 -215t-211 -146.5t-265 -54.5q-141 0 -262 48.5t-209 134.5t-138.5 208t-50.5 269zM281 651q0 -143 38.5 -256.5t105.5 -191.5t154 -120 t181 -42q96 0 181 39t150.5 113.5t103.5 183t38 246.5q0 143 -40 256.5t-105.5 191.5t-152.5 120t-183 42q-94 0 -180.5 -39t-151 -113.5t-102 -182.5t-37.5 -247zM653 1386l193 377h192l-338 -377h-47z" />
<glyph unicode="&#xd4;" horiz-adv-x="1513" d="M94 629q0 137 50.5 260t139.5 216t210.5 147.5t265.5 54.5q141 0 261 -48.5t209 -135.5t139 -208.5t50 -269.5q0 -137 -50 -260t-139 -215t-211 -146.5t-265 -54.5q-141 0 -262 48.5t-209 134.5t-138.5 208t-50.5 269zM281 651q0 -143 38.5 -256.5t105.5 -191.5t154 -120 t181 -42q96 0 181 39t150.5 113.5t103.5 183t38 246.5q0 143 -40 256.5t-105.5 191.5t-152.5 120t-183 42q-94 0 -180.5 -39t-151 -113.5t-102 -182.5t-37.5 -247zM489 1386l228 398h78l227 -398h-55l-209 252h-4l-209 -252h-56z" />
<glyph unicode="&#xd5;" horiz-adv-x="1513" d="M94 629q0 137 50.5 260t139.5 216t210.5 147.5t265.5 54.5q141 0 261 -48.5t209 -135.5t139 -208.5t50 -269.5q0 -137 -50 -260t-139 -215t-211 -146.5t-265 -54.5q-141 0 -262 48.5t-209 134.5t-138.5 208t-50.5 269zM281 651q0 -143 38.5 -256.5t105.5 -191.5t154 -120 t181 -42q96 0 181 39t150.5 113.5t103.5 183t38 246.5q0 143 -40 256.5t-105.5 191.5t-152.5 120t-183 42q-94 0 -180.5 -39t-151 -113.5t-102 -182.5t-37.5 -247zM424 1425q20 119 67.5 179.5t129.5 60.5q47 0 90 -22.5t80.5 -50t71.5 -51t61 -23.5q33 0 56.5 26.5 t53.5 106.5h53q-20 -117 -67 -178.5t-129 -61.5q-47 0 -90 23.5t-81 51t-71 50.5t-61 23q-33 0 -56.5 -27t-54.5 -107h-53z" />
<glyph unicode="&#xd6;" horiz-adv-x="1513" d="M94 629q0 137 50.5 260t139.5 216t210.5 147.5t265.5 54.5q141 0 261 -48.5t209 -135.5t139 -208.5t50 -269.5q0 -137 -50 -260t-139 -215t-211 -146.5t-265 -54.5q-141 0 -262 48.5t-209 134.5t-138.5 208t-50.5 269zM281 651q0 -143 38.5 -256.5t105.5 -191.5t154 -120 t181 -42q96 0 181 39t150.5 113.5t103.5 183t38 246.5q0 143 -40 256.5t-105.5 191.5t-152.5 120t-183 42q-94 0 -180.5 -39t-151 -113.5t-102 -182.5t-37.5 -247zM438 1556q0 47 30 84t83 37t83 -36.5t30 -84.5q0 -47 -30 -83.5t-83 -36.5t-83 36.5t-30 83.5zM848 1556 q0 47 29.5 84t83.5 37q53 0 82.5 -36.5t29.5 -84.5q0 -47 -29.5 -83.5t-82.5 -36.5t-83 36.5t-30 83.5z" />
<glyph unicode="&#xd7;" horiz-adv-x="995" d="M80 133l346 346l-346 344l76 76l346 -346l346 348l76 -76l-349 -346l347 -346l-76 -76l-344 346l-346 -346z" />
<glyph unicode="&#xd8;" horiz-adv-x="1513" d="M86 629q0 135 45 258t129 216t204 149.5t271 56.5q170 0 307 -72l99 172h90l-121 -209q127 -86 200.5 -226t73.5 -325q0 -135 -45 -258t-129 -216t-204.5 -149.5t-272.5 -56.5q-82 0 -157.5 17.5t-143.5 50.5q-16 -31 -35.5 -63.5t-36.5 -61.5q-18 -33 -36 -64h-91 l132 228q-129 84 -204 225.5t-75 327.5zM254 666q0 -158 48 -278t128 -200l553 949q-115 90 -264 90q-98 0 -183 -39t-147.5 -111.5t-98.5 -176t-36 -234.5zM489 137q119 -82 261 -82q98 0 184 38t148.5 109.5t98.5 175t36 234.5q0 154 -48.5 274t-126.5 199 q-156 -264 -276 -473q-51 -88 -100.5 -174t-88 -152.5t-63.5 -107.5z" />
<glyph unicode="&#xd9;" horiz-adv-x="1456" d="M70 1280h499l-6 -70l-106 -12q-53 -6 -54 -29v-708q0 -111 29 -184.5t79 -118.5t118.5 -64.5t148.5 -19.5q174 0 262 99t88 261v469q0 98 -2 154.5t-8 86.5t-19.5 38t-35.5 12l-123 16l-6 70h471l-6 -70l-121 -16q-23 -4 -36 -12t-20.5 -38t-9.5 -86.5t-2 -154.5v-479 q0 -106 -33.5 -190t-97 -142.5t-154.5 -90.5t-204 -32t-202 28t-152.5 85t-97 146t-33.5 212v731q0 12 -10.5 17.5t-43.5 9.5l-106 12zM422 1763h186l197 -377h-45z" />
<glyph unicode="&#xda;" horiz-adv-x="1456" d="M70 1280h499l-6 -70l-106 -12q-53 -6 -54 -29v-708q0 -111 29 -184.5t79 -118.5t118.5 -64.5t148.5 -19.5q174 0 262 99t88 261v469q0 98 -2 154.5t-8 86.5t-19.5 38t-35.5 12l-123 16l-6 70h471l-6 -70l-121 -16q-23 -4 -36 -12t-20.5 -38t-9.5 -86.5t-2 -154.5v-479 q0 -106 -33.5 -190t-97 -142.5t-154.5 -90.5t-204 -32t-202 28t-152.5 85t-97 146t-33.5 212v731q0 12 -10.5 17.5t-43.5 9.5l-106 12zM684 1386l193 377h192l-338 -377h-47z" />
<glyph unicode="&#xdb;" horiz-adv-x="1456" d="M70 1280h499l-6 -70l-106 -12q-53 -6 -54 -29v-708q0 -111 29 -184.5t79 -118.5t118.5 -64.5t148.5 -19.5q174 0 262 99t88 261v469q0 98 -2 154.5t-8 86.5t-19.5 38t-35.5 12l-123 16l-6 70h471l-6 -70l-121 -16q-23 -4 -36 -12t-20.5 -38t-9.5 -86.5t-2 -154.5v-479 q0 -106 -33.5 -190t-97 -142.5t-154.5 -90.5t-204 -32t-202 28t-152.5 85t-97 146t-33.5 212v731q0 12 -10.5 17.5t-43.5 9.5l-106 12zM489 1386l228 398h78l227 -398h-55l-209 252h-4l-209 -252h-56z" />
<glyph unicode="&#xdc;" horiz-adv-x="1456" d="M70 1280h499l-6 -70l-106 -12q-53 -6 -54 -29v-708q0 -111 29 -184.5t79 -118.5t118.5 -64.5t148.5 -19.5q174 0 262 99t88 261v469q0 98 -2 154.5t-8 86.5t-19.5 38t-35.5 12l-123 16l-6 70h471l-6 -70l-121 -16q-23 -4 -36 -12t-20.5 -38t-9.5 -86.5t-2 -154.5v-479 q0 -106 -33.5 -190t-97 -142.5t-154.5 -90.5t-204 -32t-202 28t-152.5 85t-97 146t-33.5 212v731q0 12 -10.5 17.5t-43.5 9.5l-106 12zM410 1556q0 47 29.5 84t82.5 37t83 -36.5t30 -84.5q0 -47 -30 -83.5t-83 -36.5t-82.5 36.5t-29.5 83.5zM819 1556q0 47 30 84t83 37 t82.5 -36.5t29.5 -84.5q0 -47 -29.5 -83.5t-82.5 -36.5t-83 36.5t-30 83.5z" />
<glyph unicode="&#xdd;" horiz-adv-x="1239" d="M-14 1280h499l-6 -70l-102 -12q-35 -4 -31 -39t55 -119l246 -407h10l267 454q33 53 27.5 79t-44.5 34l-78 10l-6 70h414l-6 -70l-62 -10q-41 -12 -71.5 -32.5t-67.5 -77.5l-321 -533v-448q0 -12 10 -17.5t43 -9.5l139 -12l6 -70h-567l6 70l141 12q53 6 54 29v426 l-381 602q-12 16 -34 33.5t-50 23.5l-84 14zM518 1393l193 376h192l-338 -376h-47z" />
<glyph unicode="&#xde;" horiz-adv-x="1181" d="M86 0l6 70l107 12q53 6 53 29v1060q0 12 -10.5 17.5t-42.5 9.5l-107 12l-6 70h500l-6 -70l-107 -12q-16 -2 -34.5 -9t-18.5 -20v-137h162q129 0 223 -27.5t157.5 -75.5t94 -113.5t30.5 -141.5q0 -96 -38.5 -171t-105 -127t-157 -79t-192.5 -27q-49 0 -88 3t-86 8v-172 q0 -12 11 -17.5t42 -9.5l145 -12l7 -70h-539zM420 365q43 -10 84 -15.5t96 -5.5q147 0 227 79t80 218q0 152 -99 234.5t-282 78.5h-106v-589z" />
<glyph unicode="&#xdf;" horiz-adv-x="1349" d="M25 821l12 90h149l2 52q4 102 40 188t94.5 147.5t133 95t156.5 33.5q72 0 125.5 -33.5t53.5 -88.5q0 -43 -26 -68t-63 -25q-43 0 -77.5 33t-51.5 94l-2 11l-51 4q-86 -35 -132 -129.5t-46 -247.5v-871q0 -12 11.5 -19t45.5 -9l99 -8l6 -70h-451l6 70l86 8q51 2 52 31v704 zM612 276h93l45 -182q35 -25 76.5 -39t88.5 -14q39 0 76 12.5t65.5 35t46 54t17.5 70.5t-19.5 66.5t-51 49t-72.5 38t-86 32.5q-51 18 -99.5 41t-86 54.5t-61 76.5t-23.5 111q0 51 20.5 99t61 85t100 59.5t137.5 22.5q66 0 113 -10t84 -23l63 21l17 -287h-93l-39 178 q-35 23 -78.5 36.5t-84.5 13.5q-76 0 -124 -41t-48 -105q0 -37 16 -63.5t46 -48t71 -39t92 -35.5q49 -18 98 -41t88 -55.5t63.5 -77.5t24.5 -111q0 -55 -22.5 -108.5t-67.5 -93.5t-111.5 -64.5t-154.5 -24.5q-74 0 -142.5 10.5t-125.5 32.5z" />
<glyph unicode="&#xe0;" horiz-adv-x="899" d="M70 709q0 37 35.5 78.5t91 76.5t123 58.5t129.5 23.5q86 0 144 -19.5t93 -65.5t48.5 -122.5t8.5 -191.5l-16 -391q-4 -72 45 -72q23 0 47.5 15.5t57.5 41.5l34 -45q-47 -59 -94 -93t-96 -34q-55 0 -93 36t-38 116h-8q-59 -63 -121 -107.5t-135 -44.5q-51 0 -96.5 17.5 t-79 49.5t-54 76t-20.5 95q0 66 29.5 116t93 93t163 78.5t236.5 68.5v19q0 82 -13.5 135t-40 85t-66.5 44t-89 12q-29 0 -57.5 -5t-52 -13.5t-38 -17.5t-14.5 -17t20.5 -31.5t20.5 -62.5q0 -35 -27.5 -64t-72.5 -29q-43 0 -70.5 25t-27.5 66zM129 1417h186l197 -377h-45z M225 242q0 -74 45 -116t111 -42q53 0 101 29.5t100 76.5l12 308q-102 -27 -173 -55.5t-114 -59.5t-62.5 -65.5t-19.5 -75.5z" />
<glyph unicode="&#xe1;" horiz-adv-x="899" d="M70 709q0 37 35.5 78.5t91 76.5t123 58.5t129.5 23.5q86 0 144 -19.5t93 -65.5t48.5 -122.5t8.5 -191.5l-16 -391q-4 -72 45 -72q23 0 47.5 15.5t57.5 41.5l34 -45q-47 -59 -94 -93t-96 -34q-55 0 -93 36t-38 116h-8q-59 -63 -121 -107.5t-135 -44.5q-51 0 -96.5 17.5 t-79 49.5t-54 76t-20.5 95q0 66 29.5 116t93 93t163 78.5t236.5 68.5v19q0 82 -13.5 135t-40 85t-66.5 44t-89 12q-29 0 -57.5 -5t-52 -13.5t-38 -17.5t-14.5 -17t20.5 -31.5t20.5 -62.5q0 -35 -27.5 -64t-72.5 -29q-43 0 -70.5 25t-27.5 66zM225 242q0 -74 45 -116t111 -42 q53 0 101 29.5t100 76.5l12 308q-102 -27 -173 -55.5t-114 -59.5t-62.5 -65.5t-19.5 -75.5zM348 1040l193 377h192l-338 -377h-47z" />
<glyph unicode="&#xe2;" horiz-adv-x="899" d="M70 709q0 37 35.5 78.5t91 76.5t123 58.5t129.5 23.5q86 0 144 -19.5t93 -65.5t48.5 -122.5t8.5 -191.5l-16 -391q-4 -72 45 -72q23 0 47.5 15.5t57.5 41.5l34 -45q-47 -59 -94 -93t-96 -34q-55 0 -93 36t-38 116h-8q-59 -63 -121 -107.5t-135 -44.5q-51 0 -96.5 17.5 t-79 49.5t-54 76t-20.5 95q0 66 29.5 116t93 93t163 78.5t236.5 68.5v19q0 82 -13.5 135t-40 85t-66.5 44t-89 12q-29 0 -57.5 -5t-52 -13.5t-38 -17.5t-14.5 -17t20.5 -31.5t20.5 -62.5q0 -35 -27.5 -64t-72.5 -29q-43 0 -70.5 25t-27.5 66zM147 1040l228 398h78l227 -398 h-55l-209 252h-4l-209 -252h-56zM225 242q0 -74 45 -116t111 -42q53 0 101 29.5t100 76.5l12 308q-102 -27 -173 -55.5t-114 -59.5t-62.5 -65.5t-19.5 -75.5z" />
<glyph unicode="&#xe3;" horiz-adv-x="899" d="M70 709q0 37 35.5 78.5t91 76.5t123 58.5t129.5 23.5q86 0 144 -19.5t93 -65.5t48.5 -122.5t8.5 -191.5l-16 -391q-4 -72 45 -72q23 0 47.5 15.5t57.5 41.5l34 -45q-47 -59 -94 -93t-96 -34q-55 0 -93 36t-38 116h-8q-59 -63 -121 -107.5t-135 -44.5q-51 0 -96.5 17.5 t-79 49.5t-54 76t-20.5 95q0 66 29.5 116t93 93t163 78.5t236.5 68.5v19q0 82 -13.5 135t-40 85t-66.5 44t-89 12q-29 0 -57.5 -5t-52 -13.5t-38 -17.5t-14.5 -17t20.5 -31.5t20.5 -62.5q0 -35 -27.5 -64t-72.5 -29q-43 0 -70.5 25t-27.5 66zM86 1079q20 119 67.5 179.5 t129.5 60.5q47 0 90 -22.5t81 -50t71.5 -51.5t60.5 -24q33 0 56.5 27t53.5 107h54q-20 -117 -67.5 -178.5t-129.5 -61.5q-47 0 -90 23.5t-81 51t-70.5 50t-61.5 22.5q-33 0 -56.5 -26.5t-54.5 -106.5h-53zM225 242q0 -74 45 -116t111 -42q53 0 101 29.5t100 76.5l12 308 q-102 -27 -173 -55.5t-114 -59.5t-62.5 -65.5t-19.5 -75.5z" />
<glyph unicode="&#xe4;" horiz-adv-x="899" d="M70 709q0 37 35.5 78.5t91 76.5t123 58.5t129.5 23.5q86 0 144 -19.5t93 -65.5t48.5 -122.5t8.5 -191.5l-16 -391q-4 -72 45 -72q23 0 47.5 15.5t57.5 41.5l34 -45q-47 -59 -94 -93t-96 -34q-55 0 -93 36t-38 116h-8q-59 -63 -121 -107.5t-135 -44.5q-51 0 -96.5 17.5 t-79 49.5t-54 76t-20.5 95q0 66 29.5 116t93 93t163 78.5t236.5 68.5v19q0 82 -13.5 135t-40 85t-66.5 44t-89 12q-29 0 -57.5 -5t-52 -13.5t-38 -17.5t-14.5 -17t20.5 -31.5t20.5 -62.5q0 -35 -27.5 -64t-72.5 -29q-43 0 -70.5 25t-27.5 66zM113 1223q0 47 29.5 83.5 t82.5 36.5t83 -36.5t30 -83.5t-29.5 -84t-83.5 -37q-53 0 -82.5 37t-29.5 84zM225 242q0 -74 45 -116t111 -42q53 0 101 29.5t100 76.5l12 308q-102 -27 -173 -55.5t-114 -59.5t-62.5 -65.5t-19.5 -75.5zM522 1223q0 47 30 83.5t83 36.5t83 -36.5t30 -83.5t-30 -84t-83 -37 t-83 37t-30 84z" />
<glyph unicode="&#xe5;" horiz-adv-x="899" d="M70 709q0 37 35.5 78.5t91 76.5t123 58.5t129.5 23.5q86 0 144 -19.5t93 -65.5t48.5 -122.5t8.5 -191.5l-16 -391q-4 -72 45 -72q23 0 47.5 15.5t57.5 41.5l34 -45q-47 -59 -94 -93t-96 -34q-55 0 -93 36t-38 116h-8q-59 -63 -121 -107.5t-135 -44.5q-51 0 -96.5 17.5 t-79 49.5t-54 76t-20.5 95q0 66 29.5 116t93 93t163 78.5t236.5 68.5v19q0 82 -13.5 135t-40 85t-66.5 44t-89 12q-29 0 -57.5 -5t-52 -13.5t-38 -17.5t-14.5 -17t20.5 -31.5t20.5 -62.5q0 -35 -27.5 -64t-72.5 -29q-43 0 -70.5 25t-27.5 66zM225 242q0 -74 45 -116t111 -42 q53 0 101 29.5t100 76.5l12 308q-102 -27 -173 -55.5t-114 -59.5t-62.5 -65.5t-19.5 -75.5zM260 1239q0 76 48 130t134 54t134.5 -54t48.5 -130t-48.5 -130t-134.5 -54t-134 54t-48 130zM322 1239q0 -51 31.5 -90t88.5 -39t89 39t32 90q0 53 -31.5 92t-89.5 39 q-57 0 -88.5 -39t-31.5 -92z" />
<glyph unicode="&#xe6;" horiz-adv-x="1456" d="M70 709q0 37 35.5 78.5t91 76.5t123 58.5t129.5 23.5q115 0 183 -37t91 -116q66 72 152 111.5t184 39.5q145 0 230 -82t85 -215q0 -27 -3 -56.5t-9 -51.5l-617 8q0 -6 -1 -24.5t-1 -24.5q0 -86 24 -160t67 -126t102 -82t129 -30q72 0 140.5 30t121.5 95l41 -24 q-55 -111 -151.5 -170.5t-215.5 -59.5q-117 0 -208 55.5t-144 151.5q-29 -43 -65.5 -81t-79.5 -66.5t-88 -45t-92 -16.5q-49 0 -94.5 17.5t-79 49.5t-54 76t-20.5 95q0 127 124 208t398 148v25q6 76 -7 127t-42 82.5t-70 46t-90 14.5q-29 0 -57.5 -5t-52 -13.5t-38 -17.5 t-14.5 -17t20.5 -31.5t20.5 -62.5q0 -35 -27.5 -64t-72.5 -29q-43 0 -70.5 25t-27.5 66zM225 242q0 -74 45 -116t115 -42t129 38t111 103q-16 47 -26.5 98.5t-10.5 106.5q0 12 2 33.5t4 34.5q-102 -27 -173 -55.5t-114 -59.5t-62.5 -65.5t-19.5 -75.5zM754 608q131 2 231 2 h225q6 121 -45 191.5t-145 70.5q-43 0 -85 -18t-78 -52t-63.5 -83.5t-39.5 -110.5z" />
<glyph unicode="&#xe7;" horiz-adv-x="897" d="M70 430q0 113 37.5 207t103 162.5t153 106.5t183.5 38q70 0 124 -16.5t92 -43t57.5 -60t19.5 -70.5q0 -59 -34 -82t-71 -23q-55 0 -86 51.5t-8 128.5v5q-23 16 -55.5 26t-73.5 10q-61 0 -113.5 -26.5t-90.5 -74.5t-60.5 -115.5t-22.5 -151.5q0 -86 23.5 -160t66.5 -127 t102.5 -84t129.5 -31q72 0 139.5 30t122.5 95l41 -24q-47 -96 -127 -153.5t-180 -72.5l-92 -96q117 4 190.5 -43t73.5 -137q0 -98 -107.5 -163.5t-310.5 -82.5l-16 45q164 23 241.5 67t77.5 113q0 49 -43 80t-131 31q-29 0 -58.5 -3t-60.5 -7v35l150 157q-84 6 -156 42 t-123 96.5t-79.5 142.5t-28.5 178z" />
<glyph unicode="&#xe8;" horiz-adv-x="933" d="M70 430q0 113 37.5 207t101 162.5t149.5 106.5t181 38q145 0 230 -82t85 -215q0 -27 -3 -56.5t-7 -51.5l-617 8q-2 -6 -2 -25v-24q0 -86 23.5 -160t66.5 -126t102.5 -82t129.5 -30q72 0 139.5 30t122.5 95l41 -24q-55 -111 -151.5 -170.5t-217.5 -59.5q-88 0 -163.5 34 t-131 95.5t-86 145.5t-30.5 184zM182 1417h187l196 -377h-45zM236 608q131 2 231 2h223q8 121 -44 191.5t-144 70.5q-43 0 -85 -18t-78 -52t-63.5 -83.5t-39.5 -110.5z" />
<glyph unicode="&#xe9;" horiz-adv-x="933" d="M70 430q0 113 37.5 207t101 162.5t149.5 106.5t181 38q145 0 230 -82t85 -215q0 -27 -3 -56.5t-7 -51.5l-617 8q-2 -6 -2 -25v-24q0 -86 23.5 -160t66.5 -126t102.5 -82t129.5 -30q72 0 139.5 30t122.5 95l41 -24q-55 -111 -151.5 -170.5t-217.5 -59.5q-88 0 -163.5 34 t-131 95.5t-86 145.5t-30.5 184zM236 608q131 2 231 2h223q8 121 -44 191.5t-144 70.5q-43 0 -85 -18t-78 -52t-63.5 -83.5t-39.5 -110.5zM375 1040l192 377h193l-338 -377h-47z" />
<glyph unicode="&#xea;" horiz-adv-x="933" d="M70 430q0 113 37.5 207t101 162.5t149.5 106.5t181 38q145 0 230 -82t85 -215q0 -27 -3 -56.5t-7 -51.5l-617 8q-2 -6 -2 -25v-24q0 -86 23.5 -160t66.5 -126t102.5 -82t129.5 -30q72 0 139.5 30t122.5 95l41 -24q-55 -111 -151.5 -170.5t-217.5 -59.5q-88 0 -163.5 34 t-131 95.5t-86 145.5t-30.5 184zM209 1040l227 398h78l227 -398h-55l-209 252h-4l-209 -252h-55zM236 608q131 2 231 2h223q8 121 -44 191.5t-144 70.5q-43 0 -85 -18t-78 -52t-63.5 -83.5t-39.5 -110.5z" />
<glyph unicode="&#xeb;" horiz-adv-x="933" d="M70 430q0 113 37.5 207t101 162.5t149.5 106.5t181 38q145 0 230 -82t85 -215q0 -27 -3 -56.5t-7 -51.5l-617 8q-2 -6 -2 -25v-24q0 -86 23.5 -160t66.5 -126t102.5 -82t129.5 -30q72 0 139.5 30t122.5 95l41 -24q-55 -111 -151.5 -170.5t-217.5 -59.5q-88 0 -163.5 34 t-131 95.5t-86 145.5t-30.5 184zM158 1223q0 47 29.5 83.5t82.5 36.5t83 -36.5t30 -83.5t-29.5 -84t-83.5 -37q-53 0 -82.5 37t-29.5 84zM236 608q131 2 231 2h223q8 121 -44 191.5t-144 70.5q-43 0 -85 -18t-78 -52t-63.5 -83.5t-39.5 -110.5zM567 1223q0 47 30 83.5 t83 36.5t83 -36.5t30 -83.5t-30 -84t-83 -37t-83 37t-30 84z" />
<glyph unicode="&#xec;" horiz-adv-x="544" d="M-35 1417h187l196 -377h-45zM49 821l4 56l293 67v-838q0 -12 11.5 -19t45.5 -9l86 -8l7 -70h-439l6 70l87 8q51 2 51 31v575q0 37 -3 59.5t-10.5 35t-20.5 18.5t-36 12z" />
<glyph unicode="&#xed;" horiz-adv-x="544" d="M49 821l4 56l293 67v-838q0 -12 11.5 -19t45.5 -9l86 -8l7 -70h-439l6 70l87 8q51 2 51 31v575q0 37 -3 59.5t-10.5 35t-20.5 18.5t-36 12zM170 1040l192 377h193l-338 -377h-47z" />
<glyph unicode="&#xee;" horiz-adv-x="544" d="M2 1040l227 398h78l228 -398h-56l-209 252h-4l-209 -252h-55zM49 821l4 56l293 67v-838q0 -12 11.5 -19t45.5 -9l86 -8l7 -70h-439l6 70l87 8q51 2 51 31v575q0 37 -3 59.5t-10.5 35t-20.5 18.5t-36 12z" />
<glyph unicode="&#xef;" horiz-adv-x="544" d="M-49 1223q0 47 29.5 83.5t82.5 36.5t83 -36.5t30 -83.5t-29.5 -84t-83.5 -37q-53 0 -82.5 37t-29.5 84zM49 821l4 56l293 67v-838q0 -12 11.5 -19t45.5 -9l86 -8l7 -70h-439l6 70l87 8q51 2 51 31v575q0 37 -3 59.5t-10.5 35t-20.5 18.5t-36 12zM360 1223q0 47 30 83.5 t83 36.5t83 -36.5t30 -83.5t-30 -84t-83 -37t-83 37t-30 84z" />
<glyph unicode="&#xf0;" horiz-adv-x="1024" d="M53 455q0 109 36 197.5t95.5 152t137 98.5t159.5 35q96 0 182.5 -49t139.5 -152q-27 119 -84 226.5t-154 191.5l-303 -100v84l225 75q-102 68 -229 103l31 53q84 -16 159.5 -48t141.5 -75q0 2 42 15.5t93 29.5q59 20 133 45v-84l-188 -63q141 -117 222 -284t81 -363 q0 -121 -32 -225.5t-91 -182.5t-145.5 -122t-196.5 -44q-102 0 -186 38t-143.5 104.5t-92.5 155t-33 188.5zM215 508q0 -119 35 -219.5t94 -159.5q29 -29 75 -54.5t111 -25.5q121 0 200 92t79 267q0 117 -32 215t-91 157q-31 31 -79 57.5t-113 26.5q-123 0 -201 -91 t-78 -265z" />
<glyph unicode="&#xf1;" horiz-adv-x="1110" d="M49 821l2 56l295 67v-147h10q78 66 160 106.5t168 40.5q47 0 92 -15.5t80 -49.5q41 -41 58.5 -97.5t17.5 -130.5v-542q0 -12 10 -19.5t51 -11.5l82 -8l6 -70h-436l6 70l84 8q33 2 42 9t9 22v446q0 152 -52 208t-144 56q-72 0 -136.5 -33.5t-107.5 -68.5v-252v-359 q0 -12 10.5 -19t44.5 -9l95 -8l6 -70h-443l7 70l81 8q51 2 52 31v579q0 35 -2 56.5t-9.5 34t-19.5 18.5t-33 12zM223 1079q20 119 67.5 179.5t129.5 60.5q47 0 90 -22.5t81 -50t71.5 -51.5t60.5 -24q33 0 56.5 27t54.5 107h53q-20 -117 -67.5 -178.5t-129.5 -61.5 q-47 0 -90 23.5t-81 51t-70.5 50t-61.5 22.5q-33 0 -56.5 -26.5t-54.5 -106.5h-53z" />
<glyph unicode="&#xf2;" horiz-adv-x="1060" d="M72 453q0 104 36.5 194t101 156.5t152 103.5t185.5 37t180 -35t140.5 -97t91 -147t32.5 -188q0 -106 -35.5 -199.5t-99 -162t-151 -107.5t-187.5 -39t-183 37t-141.5 101.5t-90 153t-31.5 192.5zM233 498q0 -115 28 -211.5t85 -155.5q29 -29 76 -55.5t117 -26.5 q61 0 114.5 25.5t93 74t62 116t22.5 151.5q0 113 -26.5 210t-83.5 156q-29 29 -78 56.5t-117 27.5q-63 0 -116.5 -26.5t-92 -74.5t-61.5 -115.5t-23 -151.5zM233 1417h187l196 -377h-45z" />
<glyph unicode="&#xf3;" horiz-adv-x="1060" d="M72 453q0 104 36.5 194t101 156.5t152 103.5t185.5 37t180 -35t140.5 -97t91 -147t32.5 -188q0 -106 -35.5 -199.5t-99 -162t-151 -107.5t-187.5 -39t-183 37t-141.5 101.5t-90 153t-31.5 192.5zM233 498q0 -115 28 -211.5t85 -155.5q29 -29 76 -55.5t117 -26.5 q61 0 114.5 25.5t93 74t62 116t22.5 151.5q0 113 -26.5 210t-83.5 156q-29 29 -78 56.5t-117 27.5q-63 0 -116.5 -26.5t-92 -74.5t-61.5 -115.5t-23 -151.5zM442 1040l193 377h192l-338 -377h-47z" />
<glyph unicode="&#xf4;" horiz-adv-x="1060" d="M72 453q0 104 36.5 194t101 156.5t152 103.5t185.5 37t180 -35t140.5 -97t91 -147t32.5 -188q0 -106 -35.5 -199.5t-99 -162t-151 -107.5t-187.5 -39t-183 37t-141.5 101.5t-90 153t-31.5 192.5zM233 498q0 -115 28 -211.5t85 -155.5q29 -29 76 -55.5t117 -26.5 q61 0 114.5 25.5t93 74t62 116t22.5 151.5q0 113 -26.5 210t-83.5 156q-29 29 -78 56.5t-117 27.5q-63 0 -116.5 -26.5t-92 -74.5t-61.5 -115.5t-23 -151.5zM264 1040l228 398h77l228 -398h-56l-209 252h-4l-209 -252h-55z" />
<glyph unicode="&#xf5;" horiz-adv-x="1060" d="M72 453q0 104 36.5 194t101 156.5t152 103.5t185.5 37t180 -35t140.5 -97t91 -147t32.5 -188q0 -106 -35.5 -199.5t-99 -162t-151 -107.5t-187.5 -39t-183 37t-141.5 101.5t-90 153t-31.5 192.5zM199 1079q20 119 67 179.5t129 60.5q47 0 90 -22.5t81 -50t72 -51.5 t60 -24q33 0 56.5 27t54.5 107h53q-20 -117 -67 -178.5t-129 -61.5q-47 0 -90.5 23.5t-81 51t-70.5 50t-62 22.5q-33 0 -56 -26.5t-54 -106.5h-53zM233 498q0 -115 28 -211.5t85 -155.5q29 -29 76 -55.5t117 -26.5q61 0 114.5 25.5t93 74t62 116t22.5 151.5q0 113 -26.5 210 t-83.5 156q-29 29 -78 56.5t-117 27.5q-63 0 -116.5 -26.5t-92 -74.5t-61.5 -115.5t-23 -151.5z" />
<glyph unicode="&#xf6;" horiz-adv-x="1060" d="M72 453q0 104 36.5 194t101 156.5t152 103.5t185.5 37t180 -35t140.5 -97t91 -147t32.5 -188q0 -106 -35.5 -199.5t-99 -162t-151 -107.5t-187.5 -39t-183 37t-141.5 101.5t-90 153t-31.5 192.5zM213 1223q0 47 29.5 83.5t83.5 36.5q53 0 82.5 -36.5t29.5 -83.5 t-29.5 -84t-82.5 -37t-83 37t-30 84zM233 498q0 -115 28 -211.5t85 -155.5q29 -29 76 -55.5t117 -26.5q61 0 114.5 25.5t93 74t62 116t22.5 151.5q0 113 -26.5 210t-83.5 156q-29 29 -78 56.5t-117 27.5q-63 0 -116.5 -26.5t-92 -74.5t-61.5 -115.5t-23 -151.5zM623 1223 q0 47 29.5 83.5t82.5 36.5t83 -36.5t30 -83.5t-30 -84t-83 -37t-82.5 37t-29.5 84z" />
<glyph unicode="&#xf7;" horiz-adv-x="995" d="M84 426l6 111h817l6 -111h-829zM395 193q0 41 30 72.5t77 31.5t75.5 -32t28.5 -72q0 -41 -28.5 -74t-75.5 -33t-77 33t-30 74zM395 766q0 41 29 73.5t76 32.5t76.5 -32.5t29.5 -73.5t-29.5 -74t-76.5 -33t-76 33t-29 74z" />
<glyph unicode="&#xf8;" horiz-adv-x="1060" d="M76 455q0 102 34.5 191t96 154.5t145.5 104.5t183 39q59 0 110 -13t98 -36l162 279h78l-182 -318q86 -66 133 -170t47 -227q0 -100 -35 -190.5t-96.5 -156t-145 -104.5t-182.5 -39q-57 0 -108.5 13.5t-98.5 35.5l-141 -247h-80l164 282q-86 66 -134 171.5t-48 230.5z M225 506q0 -104 27 -188.5t74 -147.5l358 623q-37 35 -85 53t-101 18q-119 0 -196 -92t-77 -266zM373 117q80 -68 184 -68q57 0 107.5 23.5t87 69.5t57 113t20.5 153q0 102 -24.5 186t-71.5 145z" />
<glyph unicode="&#xf9;" horiz-adv-x="1077" d="M20 913h306l-15 -553q0 -154 52.5 -210t144.5 -56q72 0 136.5 34t107.5 71v323v285q0 14 -10.5 20.5t-45.5 10.5l-102 8l-6 67h311v-786q0 -33 19 -39l147 -33l-6 -49l-307 -37v150h-11q-78 -66 -159.5 -108t-167.5 -42q-47 0 -92.5 16.5t-79.5 51.5q-41 39 -58.5 96 t-17.5 129l4 545q0 23 -12.5 23.5t-53.5 7.5l-77 8zM215 1417h186l197 -377h-45z" />
<glyph unicode="&#xfa;" horiz-adv-x="1077" d="M20 913h306l-15 -553q0 -154 52.5 -210t144.5 -56q72 0 136.5 34t107.5 71v323v285q0 14 -10.5 20.5t-45.5 10.5l-102 8l-6 67h311v-786q0 -33 19 -39l147 -33l-6 -49l-307 -37v150h-11q-78 -66 -159.5 -108t-167.5 -42q-47 0 -92.5 16.5t-79.5 51.5q-41 39 -58.5 96 t-17.5 129l4 545q0 23 -12.5 23.5t-53.5 7.5l-77 8zM442 1040l193 377h192l-338 -377h-47z" />
<glyph unicode="&#xfb;" horiz-adv-x="1077" d="M20 913h306l-15 -553q0 -154 52.5 -210t144.5 -56q72 0 136.5 34t107.5 71v323v285q0 14 -10.5 20.5t-45.5 10.5l-102 8l-6 67h311v-786q0 -33 19 -39l147 -33l-6 -49l-307 -37v150h-11q-78 -66 -159.5 -108t-167.5 -42q-47 0 -92.5 16.5t-79.5 51.5q-41 39 -58.5 96 t-17.5 129l4 545q0 23 -12.5 23.5t-53.5 7.5l-77 8zM248 1040l227 398h78l227 -398h-55l-209 252h-4l-209 -252h-55z" />
<glyph unicode="&#xfc;" horiz-adv-x="1077" d="M20 913h306l-15 -553q0 -154 52.5 -210t144.5 -56q72 0 136.5 34t107.5 71v323v285q0 14 -10.5 20.5t-45.5 10.5l-102 8l-6 67h311v-786q0 -33 19 -39l147 -33l-6 -49l-307 -37v150h-11q-78 -66 -159.5 -108t-167.5 -42q-47 0 -92.5 16.5t-79.5 51.5q-41 39 -58.5 96 t-17.5 129l4 545q0 23 -12.5 23.5t-53.5 7.5l-77 8zM190 1223q0 47 30 83.5t83 36.5t83 -36.5t30 -83.5t-30 -84t-83 -37t-83 37t-30 84zM602 1223q0 47 30 83.5t83 36.5t82.5 -36.5t29.5 -83.5t-29.5 -84t-82.5 -37t-83 37t-30 84z" />
<glyph unicode="&#xfd;" horiz-adv-x="925" d="M-37 913h422l-6 -67l-70 -10q-25 -2 -36 -14.5t1 -41.5l254 -604l195 555q16 53 9 74.5t-48 25.5l-76 15l-6 67h371l-6 -67l-68 -15q-33 -4 -50.5 -23.5t-43.5 -84.5l-250 -680l-98 -311q-43 -133 -96.5 -201t-143.5 -68q-61 0 -97 30t-36 77q0 43 23.5 72.5t72.5 29.5 q47 0 74 -20.5t43 -52.5q27 12 47.5 50t42.5 107l78 224v2l-356 790q-14 31 -26.5 42t-51.5 17l-60 13zM360 1040l193 377h192l-337 -377h-48z" />
<glyph unicode="&#xfe;" horiz-adv-x="1050" d="M-16 1303l6 51l313 73v-643h8q59 63 135 106.5t162 43.5t154.5 -34t117 -93t74 -139t25.5 -172q0 -102 -33 -197.5t-94 -168.5t-150.5 -117t-199.5 -44q-43 0 -98.5 9.5t-96.5 25.5h-4v-401q0 -12 10.5 -19.5t46.5 -9.5l107 -8l6 -70h-459l6 70l86 8q51 2 52 31v1609 q0 37 -23 43zM303 162q47 -47 106.5 -80t131.5 -33q55 0 105 26.5t88 77t61.5 120t23.5 155.5q0 84 -20.5 153.5t-56 120t-86 78t-111.5 27.5q-74 0 -137.5 -38t-104.5 -89v-518z" />
<glyph unicode="&#xff;" horiz-adv-x="925" d="M-37 913h422l-6 -67l-70 -10q-25 -2 -36 -14.5t1 -41.5l254 -604l195 555q16 53 9 74.5t-48 25.5l-76 15l-6 67h371l-6 -67l-68 -15q-33 -4 -50.5 -23.5t-43.5 -84.5l-250 -680l-98 -311q-43 -133 -96.5 -201t-143.5 -68q-61 0 -97 30t-36 77q0 43 23.5 72.5t72.5 29.5 q47 0 74 -20.5t43 -52.5q27 12 47.5 50t42.5 107l78 224v2l-356 790q-14 31 -26.5 42t-51.5 17l-60 13zM164 1223q0 47 29.5 83.5t82.5 36.5t83 -36.5t30 -83.5t-29.5 -84t-83.5 -37q-53 0 -82.5 37t-29.5 84zM573 1223q0 47 30 83.5t83 36.5t83 -36.5t30 -83.5t-30 -84 t-83 -37t-83 37t-30 84z" />
<glyph unicode="&#x152;" horiz-adv-x="1910" d="M94 618q0 133 47 254t141.5 212.5t238 144.5t333.5 53l932 -2v-371h-82l-45 207q-8 31 -20.5 48.5t-55.5 26.5t-127 11t-235 2h-93v-514h91q68 0 106.5 1t60 5t29.5 11.5t12 21.5l48 137h65l-41 -426h-65l-15 131q-2 12 -7 20.5t-24.5 14.5t-59.5 8t-111 2h-89v-540h66 q166 0 259 3t140 12t62.5 26.5t23.5 46.5l52 198h92l-39 -362h-934q-170 0 -309.5 44t-238.5 126t-153.5 196.5t-54.5 251.5zM266 668q0 -131 40 -240t120 -186.5t196.5 -119.5t270.5 -42h78v1098l-166 32q-129 -2 -229.5 -45t-169 -115.5t-104.5 -169.5t-36 -212z" />
<glyph unicode="&#x153;" horiz-adv-x="1697" d="M72 455q2 104 40 194t101 155.5t149.5 102.5t184.5 37q125 0 221 -55t154 -152q63 98 162.5 152.5t215.5 54.5q143 0 229.5 -82t86.5 -215q0 -27 -3 -56.5t-9 -51.5l-617 8q-2 -6 -2 -25v-24q0 -86 23.5 -160t66.5 -126t102.5 -82t129.5 -30q72 0 140.5 30t121.5 95 l41 -24q-55 -111 -151.5 -170.5t-217.5 -59.5q-111 0 -201 52.5t-143 144.5q-63 -92 -161.5 -145.5t-217.5 -53.5q-100 0 -183 37t-142.5 101.5t-91 154t-29.5 193.5zM233 502q-2 -115 27 -213.5t86 -157.5q29 -29 76 -55.5t117 -26.5q61 0 114.5 25.5t92 73t61 114 t24.5 150.5q0 113 -26.5 212t-83.5 158q-29 29 -78 56.5t-117 27.5q-127 0 -209 -98t-84 -266zM995 608q131 2 232 2h223q8 121 -44 191.5t-144 70.5q-43 0 -85 -18t-78 -52t-64 -83.5t-40 -110.5z" />
<glyph unicode="&#x178;" horiz-adv-x="1239" d="M-14 1280h499l-6 -70l-102 -12q-35 -4 -31 -39t55 -119l246 -407h10l267 454q33 53 27.5 79t-44.5 34l-78 10l-6 70h414l-6 -70l-62 -10q-41 -12 -71.5 -32.5t-67.5 -77.5l-321 -533v-448q0 -12 10 -17.5t43 -9.5l139 -12l6 -70h-567l6 70l141 12q53 6 54 29v426 l-381 602q-12 16 -34 33.5t-50 23.5l-84 14zM330 1565q0 47 29.5 84t82.5 37t83 -37t30 -84t-29.5 -84t-83.5 -37q-53 0 -82.5 37t-29.5 84zM739 1565q0 47 30 84t83 37t83 -37t30 -84t-30 -84t-83 -37t-83 37t-30 84z" />
<glyph unicode="&#x2c6;" d="M143 1040l228 398h78l227 -398h-55l-209 252h-4l-209 -252h-56z" />
<glyph unicode="&#x2dc;" d="M78 1079q20 119 67.5 179.5t128.5 60.5q47 0 90.5 -22.5t81 -50t71.5 -51.5t61 -24q33 0 56 27t54 107h53q-20 -117 -67 -178.5t-129 -61.5q-47 0 -90 23.5t-81 51t-71 50t-61 22.5q-33 0 -56.5 -26.5t-54.5 -106.5h-53z" />
<glyph unicode="&#x2000;" horiz-adv-x="890" />
<glyph unicode="&#x2001;" horiz-adv-x="1783" />
<glyph unicode="&#x2002;" horiz-adv-x="890" />
<glyph unicode="&#x2003;" horiz-adv-x="1783" />
<glyph unicode="&#x2004;" horiz-adv-x="593" />
<glyph unicode="&#x2005;" horiz-adv-x="444" />
<glyph unicode="&#x2006;" horiz-adv-x="296" />
<glyph unicode="&#x2007;" horiz-adv-x="296" />
<glyph unicode="&#x2008;" horiz-adv-x="221" />
<glyph unicode="&#x2009;" horiz-adv-x="356" />
<glyph unicode="&#x200a;" horiz-adv-x="98" />
<glyph unicode="&#x2010;" horiz-adv-x="671" d="M70 428l6 104h524l6 -104h-536z" />
<glyph unicode="&#x2011;" horiz-adv-x="671" d="M70 428l6 104h524l6 -104h-536z" />
<glyph unicode="&#x2012;" horiz-adv-x="671" d="M70 428l6 104h524l6 -104h-536z" />
<glyph unicode="&#x2013;" horiz-adv-x="962" d="M53 424l6 100h848l6 -100h-860z" />
<glyph unicode="&#x2014;" horiz-adv-x="1921" d="M53 424l6 100h1805l6 -100h-1817z" />
<glyph unicode="&#x2018;" horiz-adv-x="462" d="M72 969q0 63 25.5 119.5t66.5 105.5t92 92t100 80l45 -33q-33 -25 -63.5 -54.5t-55 -63t-40 -72.5t-15.5 -80q0 -43 23.5 -74t53.5 -50t53.5 -29.5t23.5 -12.5q0 -47 -34 -81t-95 -34q-33 0 -65.5 14.5t-58.5 39t-41 58.5t-15 75z" />
<glyph unicode="&#x2019;" horiz-adv-x="462" d="M68 797q33 25 63.5 54.5t55 64t39 72.5t14.5 79q0 45 -23.5 76t-52.5 50t-52.5 29.5t-23.5 12.5q0 47 34 81t95 34q33 0 65.5 -14.5t58.5 -39t41 -58.5t15 -75q0 -63 -25.5 -120.5t-66.5 -106.5t-92 -92t-100 -80z" />
<glyph unicode="&#x201a;" horiz-adv-x="462" d="M68 -324q33 25 63.5 54.5t55 64.5t39 73t14.5 79q0 45 -23.5 75.5t-52.5 50t-52.5 30t-23.5 12.5q0 47 34 80.5t95 33.5q33 0 65.5 -14t58.5 -38.5t41 -58.5t15 -75q0 -63 -25.5 -120.5t-66.5 -106.5t-92 -92t-100 -80z" />
<glyph unicode="&#x201c;" horiz-adv-x="868" d="M72 969q0 63 25.5 119.5t66.5 105.5t92 92t100 80l45 -33q-33 -25 -63.5 -54.5t-55 -63t-40 -72.5t-15.5 -80q0 -43 23.5 -74t53.5 -50t53.5 -29.5t23.5 -12.5q0 -47 -34 -81t-95 -34q-33 0 -65.5 14.5t-58.5 39t-41 58.5t-15 75zM498 969q0 63 25.5 119.5t66.5 105.5 t92 92t100 80l45 -33q-33 -25 -63.5 -54.5t-55 -63t-39 -72.5t-14.5 -80q0 -43 23.5 -74t52.5 -50t52.5 -29.5t23.5 -12.5q0 -47 -34 -81t-95 -34q-33 0 -65.5 14.5t-58.5 39t-41 58.5t-15 75z" />
<glyph unicode="&#x201d;" horiz-adv-x="868" d="M68 797q33 25 63.5 54.5t55 64t39 72.5t14.5 79q0 45 -23.5 76t-52.5 50t-52.5 29.5t-23.5 12.5q0 47 34 81t95 34q33 0 65.5 -14.5t58.5 -39t41 -58.5t15 -75q0 -63 -25.5 -120.5t-66.5 -106.5t-92 -92t-100 -80zM496 797q33 25 63.5 54.5t55 64t39 72.5t14.5 79 q0 45 -23.5 76t-52.5 50t-52.5 29.5t-23.5 12.5q0 47 33 81t96 34q33 0 65.5 -14.5t58.5 -39t41 -58.5t15 -75q0 -63 -25.5 -120.5t-66.5 -106.5t-92 -92t-100 -80z" />
<glyph unicode="&#x201e;" horiz-adv-x="868" d="M68 -324q33 25 63.5 54.5t55 64.5t39 73t14.5 79q0 45 -23.5 75.5t-52.5 50t-52.5 30t-23.5 12.5q0 47 34 80.5t95 33.5q33 0 65.5 -14t58.5 -38.5t41 -58.5t15 -75q0 -63 -25.5 -120.5t-66.5 -106.5t-92 -92t-100 -80zM496 -324q33 25 63.5 54.5t55 64.5t39 73t14.5 79 q0 45 -23.5 75.5t-52.5 50t-52.5 30t-23.5 12.5q0 47 33 80.5t96 33.5q33 0 65.5 -14t58.5 -38.5t41 -58.5t15 -75q0 -63 -25.5 -120.5t-66.5 -106.5t-92 -92t-100 -80z" />
<glyph unicode="&#x2022;" horiz-adv-x="931" d="M72 475q0 23 12 63t30.5 83t39 80.5t34.5 52.5q16 16 53.5 35.5t80.5 37t83.5 29.5t61.5 12q23 0 62.5 -12t82.5 -29.5t81 -37t52 -35.5q16 -14 36 -52t37.5 -81t29.5 -83t12 -63t-12 -62.5t-29.5 -82.5t-37 -81t-36.5 -54q-14 -14 -52 -35t-81 -38.5t-84 -29.5t-63 -12 q-20 0 -61.5 12t-84.5 29.5t-79.5 38t-51.5 35.5q-14 16 -34.5 54t-39 81t-30.5 82.5t-12 62.5z" />
<glyph unicode="&#x2026;" horiz-adv-x="1392" d="M106 96q0 49 36 86t94 37q55 0 89.5 -37t34.5 -86t-34.5 -88t-89.5 -39q-57 0 -93.5 39t-36.5 88zM571 96q0 49 36 86t91 37q57 0 91 -37t34 -86t-33.5 -88t-91.5 -39q-55 0 -91 39t-36 88zM1034 96q0 49 36 86t93 37q55 0 90 -37t35 -86t-34.5 -88t-90.5 -39 q-57 0 -93 39t-36 88z" />
<glyph unicode="&#x202f;" horiz-adv-x="356" />
<glyph unicode="&#x2039;" horiz-adv-x="634" d="M80 410v86l440 315l21 -41l-303 -317l303 -318l-21 -41z" />
<glyph unicode="&#x203a;" horiz-adv-x="634" d="M96 135l303 318l-303 317l19 41l442 -315v-86l-442 -316z" />
<glyph unicode="&#x205f;" horiz-adv-x="444" />
<glyph unicode="&#x20ac;" horiz-adv-x="1056" d="M43 434l6 80h119q-2 23 -3 46.5t-1 45.5q0 23 1 42.5t3 41.5h-125l6 80h129q20 115 66.5 209t115 161.5t156.5 105.5t191 38q66 0 121 -13.5t97 -37t65.5 -54t23.5 -65.5q0 -39 -24.5 -65.5t-65.5 -26.5q-53 0 -84 46t-39 101q-29 18 -59.5 25.5t-69.5 7.5 q-143 0 -232.5 -117.5t-111.5 -314.5h424l6 -80h-436v-49q0 -68 6 -127h424l6 -80h-416q41 -174 137 -260t217 -86q92 0 164 44t125 108l41 -23q-59 -113 -152.5 -180.5t-228.5 -67.5q-88 0 -163.5 34t-136 94.5t-102.5 146.5t-63 190h-137z" />
<glyph unicode="&#x2122;" horiz-adv-x="1865" d="M61 1012l17 268h672v-268h-60l-14 71q-12 43 -24.5 71t-34 43t-55.5 20.5t-93 5.5h-6v-615q0 -20 18 -22l105 -13l2 -55h-371l4 55l105 13q20 2 20 22v615h-8q-51 0 -84 -6.5t-54.5 -21.5t-35.5 -43t-29 -69l-18 -71h-56zM838 518l4 55l80 11q8 0 13 5t10 21.5t7 46 t4 78.5l15 453q0 23 -17 24l-88 13l-4 55h289l156 -586h18l199 586h288l-4 -55l-84 -13q-23 -2 -22 -24l12 -510q2 -57 10.5 -72.5t20.5 -19.5l80 -13l4 -55h-336l4 55l78 13q14 4 17 21.5t3 70.5l-12 520h-20l-228 -655h-92l-186 659h-21l-16 -467q-2 -49 -2 -77.5t2 -44 t6 -20.5t12 -9l82 -11l4 -55h-286z" />
<glyph unicode="&#xe000;" horiz-adv-x="915" d="M0 915h915v-915h-915v915z" />
<glyph unicode="&#xfb01;" horiz-adv-x="1130" d="M25 821l12 90h149l2 52q6 104 41 189t95.5 146.5t142.5 95t182 33.5q35 0 72 -9t66.5 -26.5t49 -44t19.5 -61.5q0 -41 -25.5 -66.5t-66.5 -25.5q-98 0 -125 119l-2 10l-119 23q-86 -35 -131 -125.5t-45 -243.5v-66h358l232 31v-836q0 -12 10 -19t47 -9l86 -8l6 -70h-438 l6 70l84 8q51 2 51 31v708h-442v-711q0 -12 11.5 -19t45.5 -9l136 -8l6 -70h-488l6 70l86 8q51 2 52 31v704z" />
<glyph unicode="&#xfb02;" horiz-adv-x="1134" d="M25 821l12 90h149l2 52q6 104 41 189t95.5 146.5t142.5 95t182 33.5q78 0 144 -38l139 38v-1321q0 -12 10 -19t47 -9l86 -8l6 -70h-438l6 70l84 8q51 2 51 31v708h-442v-711q0 -12 11.5 -19t45.5 -9l136 -8l6 -70h-488l6 70l86 8q51 2 52 31v704zM342 911h442v285 q-6 -2 -20 -2q-98 0 -125 119l-2 10l-119 23q-86 -35 -131 -125.5t-45 -243.5v-66z" />
<glyph unicode="&#xfb03;" horiz-adv-x="1718" d="M25 821l12 90h149l2 33q10 102 46 187.5t93.5 146.5t130 95t154.5 34q72 0 125.5 -34t53.5 -89q0 -43 -26 -67.5t-63 -24.5q-43 0 -77.5 34t-51.5 93l-2 10l-51 4q-86 -35 -132 -129t-46 -248v-45h432l2 52q6 102 41 188t95.5 147.5t142.5 95t182 33.5q35 0 72 -9 t66.5 -26.5t49 -44t19.5 -61.5q0 -41 -25.5 -66.5t-64.5 -25.5q-96 0 -127 119l-2 10l-117 23q-86 -35 -131 -125.5t-45 -243.5v-66h356l232 31v-836q0 -12 11 -19t46 -9l86 -8l6 -70h-438l6 70l86 8q51 2 51 31v708h-442v-711q0 -12 10 -19t47 -9l133 -8l6 -70h-485l6 70 l84 8q18 2 34.5 8t16.5 23v710h-442v-692q0 -33 37 -39l162 -18l6 -70h-494l6 70l103 18q35 6 35 39v686z" />
<glyph unicode="&#xfb04;" horiz-adv-x="1722" d="M25 821l12 90h149l2 33q10 102 46 187.5t93.5 146.5t130 95t154.5 34q72 0 125.5 -34t53.5 -89q0 -43 -26 -67.5t-63 -24.5q-43 0 -77.5 34t-51.5 93l-2 10l-51 4q-86 -35 -132 -129t-46 -248v-45h432l2 52q6 102 41 188t95.5 147.5t142.5 95t182 33.5q78 0 143 -38 l140 38v-1321q0 -12 11 -19t46 -9l86 -8l6 -70h-438l6 70l86 8q51 2 51 31v708h-442v-711q0 -12 10 -19t47 -9l133 -8l6 -70h-485l6 70l84 8q18 2 34.5 8t16.5 23v710h-442v-692q0 -33 37 -39l162 -18l6 -70h-494l6 70l103 18q35 6 35 39v686zM932 911h442v285q-6 -2 -20 -2 q-96 0 -127 119l-2 10l-117 23q-86 -35 -131 -125.5t-45 -243.5v-66z" />
</font>
</defs>
</svg>
